<svg width="17" height="17" viewBox="0 0 17 17" xmlns="http://www.w3.org/2000/svg"><title>Fill 1</title><path d="M8.262 12.572a4.024 4.024 0 1 1 0-8.047 4.024 4.024 0 0 1 0 8.047m8.291-1.95l-1.62-.936a6.8 6.8 0 0 0 .104-1.137c0-.42-.044-.829-.116-1.228l1.632-.942a.46.46 0 0 0 .169-.628L14.94 2.665a.46.46 0 0 0-.628-.168l-1.525.934c-.602-.521-1.557-.936-1.962-1.22V.375c0-.254-.393-.376-.647-.376H6.615c-.254 0-.647.122-.647.376v1.736c-.81.268-1.478.685-2.127 1.224l-1.407-.84a.433.433 0 0 0-.604.169L.06 5.751c-.127.22-.046.5.174.628l1.388.8a6.819 6.819 0 0 0-.011 2.65l-1.371.792a.46.46 0 0 0-.168.628l1.781 3.086a.46.46 0 0 0 .628.168l1.295-.801c.664.566 1.382 1.006 2.192 1.284v1.638c0 .254.393.376.647.376h3.563c.254 0 .647-.122.647-.376v-1.737c.405-.296 1.41-.732 2.027-1.28l1.507.896c.22.127.477.052.604-.168l1.77-3.086a.464.464 0 0 0-.18-.628" fill="#C5C5C5" fill-rule="evenodd"/></svg>