<?xml version="1.0" encoding="UTF-8" standalone="no"?>
<svg width="100px" height="83px" viewBox="0 0 100 83" version="1.1" xmlns="http://www.w3.org/2000/svg" xmlns:xlink="http://www.w3.org/1999/xlink">
    <!-- Generator: Sketch 39.1 (31720) - http://www.bohemiancoding.com/sketch -->
    <title>Page 1</title>
    <desc>Created with Sketch.</desc>
    <defs></defs>
    <g id="Page-1" stroke="none" stroke-width="1" fill="none" fill-rule="evenodd">
        <g id="Monitaure_desktop-Copy" transform="translate(-275.000000, -1566.000000)">
            <g id="Page-1" transform="translate(275.000000, 1566.000000)">
                <g id="Group-3" transform="translate(0.000000, 0.048697)" fill="#40D89F">
                    <path d="M5.71664615,1.7888797 C3.41295385,1.7888797 1.53849231,3.6546952 1.53849231,5.94776162 L1.53849231,54.6338465 C1.53849231,56.9269129 3.41295385,58.7927284 5.71664615,58.7927284 L71.6563385,58.7927284 C73.9603385,58.7927284 75.8344923,56.9269129 75.8344923,54.6338465 L75.8344923,5.94776162 C75.8344923,3.6546952 73.9603385,1.7888797 71.6563385,1.7888797 L5.71664615,1.7888797 Z M71.6563385,60.3240937 L5.71664615,60.3240937 C2.56433846,60.3240937 3.07692308e-05,57.7713077 3.07692308e-05,54.6338465 L3.07692308e-05,5.94776162 C3.07692308e-05,2.81030037 2.56433846,0.257514391 5.71664615,0.257514391 L71.6563385,0.257514391 C74.8086462,0.257514391 77.3729538,2.81030037 77.3729538,5.94776162 L77.3729538,54.6338465 C77.3729538,57.7713077 74.8086462,60.3240937 71.6563385,60.3240937 L71.6563385,60.3240937 Z" id="Fill-1"></path>
                </g>
                <polygon id="Fill-4" fill="#40D89F" points="0.769230769 10.7039373 76.4615385 10.7039373 76.4615385 9.17257196 0.769230769 9.17257196"></polygon>
                <path d="M5.71889231,4.99124022 C5.3792,4.99124022 5.10258462,5.26627343 5.10258462,5.60470517 C5.10258462,5.94283063 5.3792,6.21817011 5.71889231,6.21817011 C6.05858462,6.21817011 6.3352,5.94283063 6.3352,5.60470517 C6.3352,5.26627343 6.05858462,4.99124022 5.71889231,4.99124022 M5.71889231,7.74953542 C4.53058462,7.74953542 3.56412308,6.78722546 3.56412308,5.60470517 C3.56412308,4.42218487 4.53058462,3.45987491 5.71889231,3.45987491 C6.9072,3.45987491 7.87366154,4.42218487 7.87366154,5.60470517 C7.87366154,6.78722546 6.9072,7.74953542 5.71889231,7.74953542" id="Fill-6" fill="#40D89F"></path>
                <path d="M11.9843692,4.99124022 C11.6446769,4.99124022 11.3680615,5.26627343 11.3680615,5.60470517 C11.3680615,5.94283063 11.6446769,6.21817011 11.9843692,6.21817011 C12.3240615,6.21817011 12.6006769,5.94283063 12.6006769,5.60470517 C12.6006769,5.26627343 12.3240615,4.99124022 11.9843692,4.99124022 M11.9843692,7.74953542 C10.7960615,7.74953542 9.8296,6.78722546 9.8296,5.60470517 C9.8296,4.42218487 10.7960615,3.45987491 11.9843692,3.45987491 C13.1723692,3.45987491 14.1391385,4.42218487 14.1391385,5.60470517 C14.1391385,6.78722546 13.1723692,7.74953542 11.9843692,7.74953542" id="Fill-7" fill="#40D89F"></path>
                <path d="M18.4906769,4.99124022 C18.1509846,4.99124022 17.8743692,5.26627343 17.8743692,5.60470517 C17.8743692,5.94283063 18.1509846,6.21817011 18.4906769,6.21817011 C18.8303692,6.21817011 19.1069846,5.94283063 19.1069846,5.60470517 C19.1069846,5.26627343 18.8303692,4.99124022 18.4906769,4.99124022 M18.4906769,7.74953542 C17.3026769,7.74953542 16.3359077,6.78722546 16.3359077,5.60470517 C16.3359077,4.42218487 17.3026769,3.45987491 18.4906769,3.45987491 C19.6789846,3.45987491 20.6454462,4.42218487 20.6454462,5.60470517 C20.6454462,6.78722546 19.6789846,7.74953542 18.4906769,7.74953542" id="Fill-8" fill="#40D89F"></path>
                <path d="M99.0769231,59.6072004 C99.0769231,71.9616432 89.0153846,81.9767723 76.6036923,81.9767723 C64.1923077,81.9767723 54.1304615,71.9616432 54.1304615,59.6072004 C54.1304615,47.2527576 64.1923077,37.2376284 76.6036923,37.2376284 C89.0153846,37.2376284 99.0769231,47.2527576 99.0769231,59.6072004" id="Fill-9" fill="#FFFFFF"></path>
                <path d="M76.6038154,38.0035255 C64.6361231,38.0035255 54.8998154,47.694924 54.8998154,59.6071085 C54.8998154,71.5195993 64.6361231,81.2109978 76.6038154,81.2109978 C88.5715077,81.2109978 98.3078154,71.5195993 98.3078154,59.6071085 C98.3078154,47.694924 88.5715077,38.0035255 76.6038154,38.0035255 M76.6038154,82.7423631 C63.7878154,82.7423631 53.3613538,72.3639941 53.3613538,59.6071085 C53.3613538,46.8505292 63.7878154,36.4721601 76.6038154,36.4721601 C89.4195077,36.4721601 99.8462769,46.8505292 99.8462769,59.6071085 C99.8462769,72.3639941 89.4195077,82.7423631 76.6038154,82.7423631" id="Fill-10" fill="#40D89F"></path>
                <path d="M72.9224615,67.6707269 C72.7184615,67.6707269 72.5227692,67.5378044 72.3784615,67.3944686 L65.4984615,60.5164945 C65.1981538,60.2172657 65.1981538,59.719572 65.4987692,59.4203432 C65.7987692,59.1214207 66.2858462,59.1149889 66.5864615,59.4142177 L72.9218462,65.7203801 L86.6587692,52.0008782 C86.9584615,51.7010369 87.4452308,51.6995055 87.7464615,51.998428 C88.0473846,52.296738 88.048,52.781262 87.7483077,53.080797 L73.4673846,67.3935498 C73.3230769,67.5378044 73.1273846,67.6707269 72.9227692,67.6707269 L72.9224615,67.6707269 Z" id="Fill-11" fill="#40D89F"></path>
            </g>
        </g>
    </g>
</svg>