<?xml version="1.0" encoding="UTF-8" standalone="no"?>
<svg width="100px" height="107px" viewBox="0 0 100 107" version="1.1" xmlns="http://www.w3.org/2000/svg" xmlns:xlink="http://www.w3.org/1999/xlink">
    <!-- Generator: Sketch 39.1 (31720) - http://www.bohemiancoding.com/sketch -->
    <title>Page 1</title>
    <desc>Created with Sketch.</desc>
    <defs>
        <polygon id="path-1" points="0 0.135559851 0 57.6765004 99.9999203 57.6765004 99.9999203 0.135559851 0 0.135559851"></polygon>
        <polygon id="path-3" points="0 106.864758 100 106.864758 100 0 0 0"></polygon>
    </defs>
    <g id="Page-1" stroke="none" stroke-width="1" fill="none" fill-rule="evenodd">
        <g id="Monitaure_desktop-Copy" transform="translate(-1071.000000, -1554.000000)">
            <g id="Page-1" transform="translate(1071.000000, 1554.000000)">
                <g id="Group-3" transform="translate(0.000000, 24.526468)">
                    <mask id="mask-2" fill="white">
                        <use xlink:href="#path-1"></use>
                    </mask>
                    <g id="Clip-2"></g>
                    <path d="M6.74294821,2.12440743 C4.12342629,2.12440743 1.99195219,4.25247435 1.99195219,6.86780892 L1.99195219,50.9442513 C1.99195219,53.5599836 4.12342629,55.6876528 6.74294821,55.6876528 L93.2568924,55.6876528 C95.8768127,55.6876528 98.0078884,53.5599836 98.0078884,50.9442513 L98.0078884,6.86780892 C98.0078884,4.25247435 95.8768127,2.12440743 93.2568924,2.12440743 L6.74294821,2.12440743 Z M93.2568924,57.6765004 L6.74294821,57.6765004 C3.02501992,57.6765004 -7.96812747e-05,54.6562364 -7.96812747e-05,50.9442513 L-7.96812747e-05,6.86780892 C-7.96812747e-05,3.15582379 3.02501992,0.135559851 6.74294821,0.135559851 L93.2568924,0.135559851 C96.9748207,0.135559851 99.9999203,3.15582379 99.9999203,6.86780892 L99.9999203,50.9442513 C99.9999203,54.6562364 96.9748207,57.6765004 93.2568924,57.6765004 L93.2568924,57.6765004 Z" id="Fill-1" fill="#40D89F" mask="url(#mask-2)"></path>
                </g>
                <mask id="mask-4" fill="white">
                    <use xlink:href="#path-3"></use>
                </mask>
                <g id="Clip-5"></g>
                <polygon id="Fill-4" fill="#40D89F" mask="url(#mask-4)" points="0.996015936 42.0442379 99.0039841 42.0442379 99.0039841 34.4866171 0.996015936 34.4866171"></polygon>
                <path d="M2.78844622,106.864758 C2.55577689,106.864758 2.32231076,106.784011 2.13306773,106.618937 C1.71912351,106.257762 1.67689243,105.629684 2.03904382,105.215606 L93.8717131,0.340092937 C94.2334661,-0.0735873606 94.8621514,-0.115750929 95.2768924,0.246219331 C95.6912351,0.607394052 95.7334661,1.23586989 95.3713147,1.64915242 L3.53864542,106.525063 C3.34183267,106.749803 3.06573705,106.864758 2.78844622,106.864758" id="Fill-6" fill="#40D89F" mask="url(#mask-4)"></path>
            </g>
        </g>
    </g>
</svg>