<svg width="100" height="97" viewBox="0 0 100 97" xmlns="http://www.w3.org/2000/svg" xmlns:xlink="http://www.w3.org/1999/xlink"><title>Page 1</title><defs><path id="a" d="M0 0v80.85h77.264V0H0z"/></defs><g fill="none" fill-rule="evenodd"><g transform="translate(0 15.51)"><mask id="b" fill="#fff"><use xlink:href="#a"/></mask><path d="M38.642 21.848c-10.204 0-18.506 8.295-18.506 18.49 0 10.196 8.302 18.491 18.506 18.491 10.205 0 18.507-8.295 18.507-18.49 0-10.196-8.302-18.49-18.507-18.49zm0 38.794c-11.205 0-20.32-9.108-20.32-20.304 0-11.195 9.115-20.303 20.32-20.303 11.206 0 20.322 9.108 20.322 20.303 0 11.196-9.116 20.304-20.322 20.304zm-21.259.877l.498.473c3.25 3.084 7.484 5.565 11.92 6.986l.631.202v8.22c0 .78.998 1.637 1.906 1.637h12.608c.788 0 1.453-.75 1.453-1.637v-8.22l.63-.202c4.59-1.47 9.017-4.016 12.148-6.986l.49-.466 7.163 4.12a1.542 1.542 0 0 0 2.1-.559l6.309-10.909a1.523 1.523 0 0 0-.555-2.087l-7.139-4.117.158-.658a29.992 29.992 0 0 0 0-13.955l-.158-.658 7.138-4.118c.354-.203.608-.533.713-.927a1.518 1.518 0 0 0-.153-1.16L68.94 15.59a1.529 1.529 0 0 0-2.09-.56l-7.182 4.121-.49-.466c-3.13-2.969-7.558-5.515-12.148-6.986l-.63-.202V3.277c0-.848-.611-1.464-1.453-1.464H32.338c-.863 0-1.906.653-1.906 1.464v8.22l-.63.201c-4.437 1.422-8.67 3.903-11.921 6.986l-.495.47-7.05-4.127a1.476 1.476 0 0 0-.746-.202c-.532 0-1.015.286-1.292.764l-6.28 10.908a1.505 1.505 0 0 0-.148 1.157c.108.395.363.726.719.931l7.144 4.118-.158.658a29.983 29.983 0 0 0-.819 6.977c0 2.349.277 4.697.824 6.978l.158.658L2.6 52.09a1.517 1.517 0 0 0-.712.928c-.106.394-.051.806.153 1.16l6.304 10.908a1.529 1.529 0 0 0 2.09.56l6.948-4.128zm27.563 19.33H32.338c-1.72 0-3.72-1.506-3.72-3.45v-6.903c-4.236-1.454-8.268-3.815-11.481-6.721L11.35 67.21a3.358 3.358 0 0 1-1.679.453 3.356 3.356 0 0 1-2.898-1.67L.47 55.084a3.318 3.318 0 0 1-.335-2.534 3.318 3.318 0 0 1 1.558-2.029l5.972-3.445A31.846 31.846 0 0 1 7.66 33.6l-5.978-3.445a3.337 3.337 0 0 1-1.564-2.024 3.3 3.3 0 0 1 .328-2.54l6.28-10.907a3.326 3.326 0 0 1 2.863-1.672c.576 0 1.15.155 1.657.448l5.887 3.445c3.213-2.908 7.247-5.27 11.484-6.724V3.277c0-1.931 1.96-3.277 3.72-3.277h12.608c1.832 0 3.267 1.44 3.267 3.277v6.904c4.378 1.496 8.582 3.911 11.715 6.73l6.017-3.452a3.346 3.346 0 0 1 4.566 1.224l6.304 10.909a3.32 3.32 0 0 1 .334 2.535 3.319 3.319 0 0 1-1.558 2.028l-5.972 3.446a31.823 31.823 0 0 1 0 13.475l5.972 3.445a3.31 3.31 0 0 1 1.556 2.03c.229.862.11 1.761-.337 2.534l-6.31 10.91a3.362 3.362 0 0 1-2.904 1.67 3.351 3.351 0 0 1-1.672-.448l-5.997-3.45c-3.132 2.818-7.336 5.233-11.714 6.729V77.4c0 1.902-1.465 3.45-3.267 3.45z" fill="#40D89F" mask="url(#b)"/></g><path d="M73.357 16.353a16.08 16.08 0 0 1 9.782 9.773 16.08 16.08 0 0 1 9.782-9.773 16.08 16.08 0 0 1-9.782-9.774 16.081 16.081 0 0 1-9.782 9.774m9.782 15.99a.907.907 0 0 1-.907-.907c0-7.817-6.365-14.177-14.19-14.177a.907.907 0 1 1 0-1.813c7.825 0 14.19-6.36 14.19-14.177a.907.907 0 0 1 1.815 0c0 7.817 6.365 14.177 14.19 14.177a.907.907 0 1 1 0 1.813c-7.825 0-14.19 6.36-14.19 14.177 0 .5-.406.907-.908.907" fill="#40D89F"/></g></svg>