<?xml version="1.0" encoding="UTF-8" standalone="no"?>
<svg width="17px" height="17px" viewBox="0 0 17 17" version="1.1" xmlns="http://www.w3.org/2000/svg" xmlns:xlink="http://www.w3.org/1999/xlink">
    <!-- Generator: Sketch 40.1 (33804) - http://www.bohemiancoding.com/sketch -->
    <title>Fill 1</title>
    <desc>Created with Sketch.</desc>
    <defs></defs>
    <g id="Page-1" stroke="none" stroke-width="1" fill="none" fill-rule="evenodd">
        <g id="Buttons" transform="translate(-160.000000, -59.000000)" fill="#C5C5C5">
            <path d="M168.261798,71.5723905 C166.039655,71.5723905 164.23806,69.7707952 164.23806,67.5486524 C164.23806,65.3261048 166.039655,63.5245095 168.261798,63.5245095 C170.48394,63.5245095 172.285536,65.3261048 172.285536,67.5486524 C172.285536,69.7707952 170.48394,71.5723905 168.261798,71.5723905 M176.553345,69.6214381 L174.933893,68.6864381 C174.996631,68.3156762 175.036702,67.9372238 175.036702,67.5486524 C175.036702,67.1289143 174.993393,66.7201048 174.920536,66.3214143 L176.553345,65.3787238 C176.773131,65.2516286 176.848417,64.9707238 176.721726,64.7509381 L174.939964,61.6650333 C174.812869,61.4452476 174.531964,61.3699619 174.312179,61.4966524 L172.787036,62.4312476 C172.185155,61.9099143 171.229917,61.4950333 170.825155,61.2104857 L170.825155,59.3757 C170.825155,59.1215095 170.432131,59.000081 170.178345,59.000081 L166.615226,59.000081 C166.36144,59.000081 165.968012,59.1215095 165.968012,59.3757 L165.968012,61.1117238 C165.158488,61.3796762 164.490226,61.7969857 163.841393,62.3361286 L162.43444,61.4966524 C162.214655,61.3699619 161.956821,61.4452476 161.830131,61.6650333 L160.060107,64.7509381 C159.933417,64.9707238 160.014369,65.2516286 160.234155,65.3787238 L161.622488,66.1785333 C161.531821,66.6209381 161.485274,67.0791286 161.485274,67.5486524 C161.485274,67.9870095 161.531417,68.4144381 161.61075,68.829319 L160.239821,69.6214381 C160.020036,69.7481286 159.94475,70.0294381 160.071845,70.2492238 L161.853202,73.3351286 C161.980298,73.5549143 162.261607,73.6302 162.481393,73.5031048 L163.776226,72.7016762 C164.440036,73.2679381 165.158488,73.7079143 165.968012,73.985581 L165.968012,75.6244619 C165.968012,75.8782476 166.36144,76.000081 166.615226,76.000081 L170.178345,76.000081 C170.432131,76.000081 170.825155,75.8782476 170.825155,75.6244619 L170.825155,73.886819 C171.229917,73.5913429 172.235345,73.1550095 172.852202,72.6061524 L174.359131,73.5031048 C174.578917,73.6302 174.836345,73.5549143 174.96344,73.3347238 L176.733464,70.2492238 C176.860155,70.0294381 176.773131,69.7481286 176.553345,69.6214381" id="Fill-1"></path>
        </g>
    </g>
</svg>