<svg width="508" height="198" viewBox="0 0 508 198" xmlns="http://www.w3.org/2000/svg" xmlns:xlink="http://www.w3.org/1999/xlink"><title>Group 18</title><defs><path id="a" d="M0 0h508v198H0z"/><mask id="b" x="0" y="0" width="508" height="198" fill="#fff"><use xlink:href="#a"/></mask></defs><g fill="none" fill-rule="evenodd"><use mask="url(#b)" xlink:href="#a" stroke="#C7C7C7" stroke-width="2" fill="#FFF"/><path d="M57.462 27.635a15.991 15.991 0 0 0-4.794-.731c-1.615 0-3.175.242-4.646.688C46.983 27.746 39.36 28.652 28 24c0 0 1.323 6.804 11.236 10.203a15.982 15.982 0 0 0-2.593 8.749C36.643 51.815 43.818 59 52.668 59c8.851 0 16.026-7.185 16.026-16.048 0-3.251-.968-6.275-2.627-8.803C75.839 30.732 77.15 24 77.15 24c-10.529 4.311-17.847 3.848-19.688 3.635M42.829 43.04c0-5.442 4.405-9.853 9.84-9.853 5.434 0 9.84 4.411 9.84 9.853s-4.406 9.854-9.84 9.854c-5.435 0-9.84-4.412-9.84-9.854" fill="#25DC32"/><g stroke="#5A5A5A" stroke-width="2.86" stroke-linecap="round"><path d="M461.417 26.237l16.745 16.63M461.165 42.968l16.745-16.63"/></g><g transform="translate(204 120)"><rect fill="#4285F4" width="283" height="51.292" rx="2.86"/><path d="M45.758 29.686h-5.513L39.092 33H36.52l5.376-14.233h2.22L49.501 33h-2.58l-1.164-3.314zm-4.819-1.994h4.125l-2.062-5.904-2.063 5.904zM51.115 33V18.767h4.204c1.258 0 2.374.28 3.348.84a5.732 5.732 0 0 1 2.263 2.386c.534 1.03.801 2.21.801 3.539v.713c0 1.35-.268 2.535-.806 3.558a5.663 5.663 0 0 1-2.297 2.366c-.994.554-2.133.831-3.417.831h-4.096zm2.474-12.239v10.264h1.613c1.296 0 2.292-.405 2.986-1.217.694-.811 1.047-1.976 1.06-3.494v-.792c0-1.545-.335-2.724-1.006-3.539-.672-.814-1.646-1.222-2.923-1.222h-1.73zM64.195 33V18.767h4.203c1.258 0 2.374.28 3.348.84a5.732 5.732 0 0 1 2.263 2.386c.535 1.03.802 2.21.802 3.539v.713c0 1.35-.269 2.535-.807 3.558a5.663 5.663 0 0 1-2.297 2.366c-.994.554-2.132.831-3.416.831h-4.096zm2.473-12.239v10.264h1.613c1.297 0 2.292-.405 2.986-1.217.694-.811 1.048-1.976 1.061-3.494v-.792c0-1.545-.336-2.724-1.007-3.539-.671-.814-1.645-1.222-2.923-1.222h-1.73zm25.289 0h-4.438V33h-2.454V20.761h-4.399v-1.994h11.291v1.994zm12.952 5.494c0 1.395-.24 2.618-.723 3.67-.482 1.053-1.171 1.861-2.068 2.425-.896.564-1.927.846-3.093.846-1.154 0-2.182-.282-3.085-.846-.902-.564-1.6-1.367-2.091-2.41-.493-1.042-.742-2.245-.748-3.607v-.801c0-1.389.246-2.614.738-3.676.492-1.062 1.186-1.875 2.082-2.439.896-.564 1.924-.845 3.084-.845 1.16 0 2.188.278 3.084.835.896.558 1.589 1.36 2.077 2.405.49 1.046.737 2.263.743 3.651v.792zm-2.473-.743c0-1.577-.298-2.786-.894-3.627-.597-.84-1.442-1.26-2.537-1.26-1.069 0-1.905.418-2.507 1.255-.603.838-.911 2.022-.924 3.554v.821c0 1.564.305 2.773.914 3.627.61.853 1.455 1.28 2.537 1.28 1.094 0 1.937-.417 2.527-1.251.59-.834.884-2.053.884-3.656v-.743zM123.66 33h-2.464v-6.325h-6.364V33h-2.473V18.767h2.473v5.924h6.364v-5.924h2.464V33zm14.281-6.745c0 1.395-.24 2.618-.723 3.67-.482 1.053-1.171 1.861-2.067 2.425-.897.564-1.928.846-3.094.846-1.154 0-2.182-.282-3.085-.846-.902-.564-1.6-1.367-2.091-2.41-.492-1.042-.742-2.245-.748-3.607v-.801c0-1.389.246-2.614.738-3.676.492-1.062 1.186-1.875 2.082-2.439.896-.564 1.924-.845 3.084-.845 1.16 0 2.188.278 3.084.835.896.558 1.589 1.36 2.077 2.405.49 1.046.737 2.263.743 3.651v.792zm-2.473-.743c0-1.577-.298-2.786-.894-3.627-.597-.84-1.442-1.26-2.537-1.26-1.069 0-1.904.418-2.507 1.255-.603.838-.911 2.022-.924 3.554v.821c0 1.564.305 2.773.914 3.627.61.853 1.455 1.28 2.537 1.28 1.094 0 1.937-.417 2.527-1.251.59-.834.884-2.053.884-3.656v-.743zm8.143-6.745l4.106 10.91 4.096-10.91h3.196V33h-2.463v-4.692l.244-6.276L148.586 33h-1.77l-4.193-10.958.244 6.266V33h-2.463V18.767h3.206zm22.64 7.879h-5.846v4.38h6.833V33h-9.306V18.767h9.238v1.994h-6.765v3.93h5.846v1.955zm15.426 2.688c0-.625-.22-1.108-.66-1.447-.44-.338-1.234-.68-2.38-1.026-1.148-.345-2.06-.73-2.738-1.153-1.297-.815-1.945-1.877-1.945-3.187 0-1.147.468-2.092 1.403-2.835.935-.743 2.149-1.114 3.641-1.114.99 0 1.874.182 2.65.547.775.365 1.384.885 1.827 1.56.443.674.665 1.421.665 2.243h-2.463c0-.743-.233-1.325-.7-1.745-.465-.42-1.132-.63-1.999-.63-.808 0-1.435.172-1.881.517-.447.346-.67.828-.67 1.447 0 .521.241.956.723 1.305.483.349 1.278.688 2.386 1.017 1.108.329 1.997.703 2.668 1.124.672.42 1.164.902 1.476 1.447.313.544.47 1.18.47 1.91 0 1.187-.455 2.13-1.364 2.83-.91.701-2.142 1.052-3.7 1.052-1.03 0-1.976-.191-2.84-.572-.863-.382-1.534-.908-2.013-1.58-.48-.67-.719-1.452-.719-2.345h2.473c0 .808.267 1.434.802 1.877.534.443 1.3.664 2.297.664.86 0 1.507-.174 1.94-.523.434-.348.65-.81.65-1.383zm15.503-.968c-.143 1.519-.704 2.703-1.681 3.554-.978.85-2.278 1.276-3.9 1.276-1.134 0-2.133-.27-2.997-.807-.863-.538-1.53-1.302-1.999-2.292-.469-.99-.713-2.141-.733-3.451v-1.33c0-1.342.238-2.525.714-3.548.475-1.023 1.158-1.812 2.048-2.366.89-.554 1.917-.83 3.084-.83 1.57 0 2.835.426 3.793 1.28.958.854 1.515 2.06 1.671 3.617h-2.463c-.117-1.023-.416-1.761-.895-2.214-.479-.453-1.18-.68-2.106-.68-1.075 0-1.901.393-2.478 1.178-.577.786-.872 1.938-.885 3.456v1.261c0 1.538.275 2.711.826 3.52.55.807 1.357 1.211 2.42 1.211.97 0 1.7-.218 2.19-.655.488-.436.798-1.163.928-2.18h2.463zm7.44-.85h-2.757V33h-2.473V18.767h5.005c1.642 0 2.91.368 3.802 1.105.893.736 1.34 1.802 1.34 3.196 0 .952-.23 1.748-.69 2.39-.46.642-1.1 1.136-1.92 1.481l3.196 5.934V33h-2.65l-2.854-5.484zm-2.757-1.984h2.541c.834 0 1.486-.21 1.955-.63.47-.421.704-.996.704-1.726 0-.763-.216-1.353-.65-1.77-.433-.417-1.08-.632-1.94-.645h-2.61v4.77zm18.338 1.114h-5.845v4.38h6.833V33h-9.307V18.767h9.238v1.994h-6.764v3.93h5.845v1.955zm11.32 0h-5.845v4.38h6.833V33H223.2V18.767h9.238v1.994h-6.764v3.93h5.845v1.955zM245.812 33h-2.473l-6.345-10.098V33h-2.473V18.767h2.473l6.364 10.137V18.767h2.454V33z" fill="#FFF"/></g><path d="M105.578 24.938l4.922 13.078 4.91-13.078h3.832V42h-2.953v-5.625l.293-7.523L111.543 42h-2.121l-5.027-13.137.293 7.512V42h-2.954V24.937h3.844zm16.36 10.605c0-1.242.246-2.361.738-3.357.492-.997 1.183-1.762 2.074-2.297.89-.535 1.914-.803 3.07-.803 1.711 0 3.1.55 4.166 1.652 1.067 1.102 1.643 2.563 1.729 4.383l.012.668c0 1.25-.24 2.367-.721 3.352-.48.984-1.168 1.746-2.063 2.285-.894.539-1.927.808-3.1.808-1.788 0-3.22-.595-4.294-1.787-1.074-1.191-1.612-2.779-1.612-4.763v-.141zm2.847.246c0 1.305.27 2.326.809 3.065.539.738 1.289 1.107 2.25 1.107.96 0 1.709-.375 2.244-1.125.535-.75.803-1.848.803-3.293 0-1.281-.276-2.297-.827-3.047-.55-.75-1.298-1.125-2.244-1.125-.93 0-1.668.37-2.215 1.108-.546.738-.82 1.841-.82 3.31zm13.992-6.469l.082 1.465c.938-1.133 2.168-1.7 3.692-1.7 2.64 0 3.984 1.513 4.031 4.536V42h-2.848v-8.215c0-.805-.173-1.4-.521-1.787-.348-.387-.916-.58-1.705-.58-1.149 0-2.004.52-2.567 1.559V42h-2.847V29.32h2.683zM152.512 42h-2.848V29.32h2.848V42zm-3.024-15.973c0-.437.139-.8.416-1.09.278-.289.674-.433 1.19-.433.515 0 .914.144 1.195.433.281.29.422.653.422 1.09 0 .43-.14.787-.422 1.073-.281.285-.68.427-1.195.427-.516 0-.912-.142-1.19-.427-.277-.286-.416-.643-.416-1.073zm9.692.211v3.082h2.238v2.11h-2.238v7.078c0 .484.095.834.287 1.049.191.214.533.322 1.025.322.328 0 .66-.04.996-.117v2.203c-.648.18-1.273.27-1.875.27-2.187 0-3.281-1.208-3.281-3.622V31.43h-2.086v-2.11h2.086v-3.082h2.848zM171.168 42c-.125-.242-.234-.637-.328-1.184-.906.946-2.016 1.418-3.328 1.418-1.274 0-2.313-.363-3.117-1.09-.805-.726-1.208-1.624-1.208-2.695 0-1.351.502-2.388 1.506-3.111 1.004-.723 2.44-1.084 4.307-1.084h1.746v-.832c0-.656-.183-1.182-.55-1.576-.368-.395-.926-.592-1.676-.592-.649 0-1.18.162-1.594.486-.414.324-.621.737-.621 1.237h-2.848c0-.696.23-1.346.691-1.952.461-.605 1.088-1.08 1.881-1.423.793-.344 1.678-.516 2.655-.516 1.484 0 2.668.373 3.55 1.12.883.745 1.336 1.794 1.36 3.146v5.718c0 1.14.16 2.051.48 2.73v.2h-2.906zm-3.129-2.05a3.24 3.24 0 0 0 1.588-.41 2.74 2.74 0 0 0 1.12-1.102v-2.391h-1.536c-1.055 0-1.848.183-2.379.55-.531.368-.797.887-.797 1.56 0 .546.182.982.545 1.306.363.324.85.486 1.46.486zm16.219.808c-.836.984-2.024 1.476-3.563 1.476-1.375 0-2.416-.402-3.123-1.207-.707-.804-1.06-1.968-1.06-3.492V29.32h2.847v8.18c0 1.61.668 2.414 2.004 2.414 1.383 0 2.317-.496 2.801-1.488V29.32h2.848V42h-2.684l-.07-1.242zm12.293-8.836a7.047 7.047 0 0 0-1.16-.094c-1.305 0-2.184.5-2.637 1.5V42h-2.848V29.32h2.719l.07 1.418c.688-1.101 1.64-1.652 2.86-1.652.406 0 .742.055 1.007.164l-.011 2.672zm7.16 10.312c-1.805 0-3.268-.568-4.389-1.705-1.12-1.136-1.681-2.65-1.681-4.54v-.352c0-1.266.244-2.397.732-3.393s1.174-1.771 2.057-2.326c.883-.555 1.867-.832 2.953-.832 1.726 0 3.06.55 4.002 1.652.941 1.102 1.412 2.66 1.412 4.676v1.148h-8.285c.086 1.047.435 1.875 1.049 2.485.613.61 1.384.914 2.314.914 1.305 0 2.367-.527 3.188-1.582l1.535 1.465a5.127 5.127 0 0 1-2.034 1.763c-.847.418-1.798.627-2.853.627zm-.34-10.863c-.781 0-1.412.274-1.892.82-.481.547-.788 1.309-.92 2.286h5.425v-.211c-.062-.954-.316-1.674-.761-2.162-.446-.489-1.063-.733-1.852-.733zm19.137 4.524h-6.153v-2.297h6.153v2.297zm12.445-10.958l4.922 13.079 4.91-13.078h3.832V42h-2.953v-5.625l.293-7.523L240.918 42h-2.121l-5.027-13.137.292 7.512V42h-2.953V24.937h3.844zm16.36 10.606c0-1.242.246-2.361.738-3.357.492-.997 1.183-1.762 2.074-2.297.89-.535 1.914-.803 3.07-.803 1.711 0 3.1.55 4.166 1.652 1.067 1.102 1.643 2.563 1.729 4.383l.012.668c0 1.25-.24 2.367-.721 3.352-.48.984-1.168 1.746-2.063 2.285-.894.539-1.927.808-3.1.808-1.788 0-3.22-.595-4.294-1.787-1.074-1.191-1.612-2.779-1.612-4.763v-.141zm2.847.246c0 1.305.27 2.326.809 3.065.539.738 1.289 1.107 2.25 1.107.96 0 1.709-.375 2.244-1.125.535-.75.803-1.848.803-3.293 0-1.281-.276-2.297-.827-3.047-.55-.75-1.298-1.125-2.244-1.125-.93 0-1.668.37-2.215 1.108-.546.738-.82 1.841-.82 3.31zm13.992-6.469l.082 1.465c.938-1.133 2.168-1.7 3.692-1.7 2.64 0 3.984 1.513 4.031 4.536V42h-2.848v-8.215c0-.805-.173-1.4-.521-1.787-.348-.387-.916-.58-1.705-.58-1.149 0-2.004.52-2.567 1.559V42h-2.847V29.32h2.683zM281.887 42h-2.848V29.32h2.848V42zm-3.024-15.973c0-.437.139-.8.416-1.09.278-.289.674-.433 1.19-.433.515 0 .914.144 1.195.433.281.29.422.653.422 1.09 0 .43-.14.787-.422 1.073-.281.285-.68.427-1.195.427-.516 0-.912-.142-1.19-.427-.277-.286-.416-.643-.416-1.073zm9.692.211v3.082h2.238v2.11h-2.238v7.078c0 .484.095.834.287 1.049.191.214.533.322 1.025.322.328 0 .66-.04.996-.117v2.203c-.648.18-1.273.27-1.875.27-2.187 0-3.281-1.208-3.281-3.622V31.43h-2.086v-2.11h2.086v-3.082h2.848zm3.527 9.305c0-1.242.246-2.361.738-3.357.493-.997 1.184-1.762 2.075-2.297.89-.535 1.914-.803 3.07-.803 1.71 0 3.1.55 4.166 1.652 1.066 1.102 1.642 2.563 1.728 4.383l.012.668c0 1.25-.24 2.367-.72 3.352-.481.984-1.169 1.746-2.063 2.285-.895.539-1.928.808-3.1.808-1.789 0-3.22-.595-4.295-1.787-1.074-1.191-1.611-2.779-1.611-4.763v-.141zm2.848.246c0 1.305.27 2.326.808 3.065.54.738 1.29 1.107 2.25 1.107.961 0 1.71-.375 2.244-1.125.536-.75.803-1.848.803-3.293 0-1.281-.275-2.297-.826-3.047-.55-.75-1.299-1.125-2.244-1.125-.93 0-1.668.37-2.215 1.108-.547.738-.82 1.841-.82 3.31zm17.988-3.867a7.047 7.047 0 0 0-1.16-.094c-1.305 0-2.184.5-2.637 1.5V42h-2.848V29.32h2.72l.07 1.418c.687-1.101 1.64-1.652 2.859-1.652.406 0 .742.055 1.008.164l-.012 2.672zM317.746 42h-2.848V29.32h2.848V42zm-3.023-15.973c0-.437.138-.8.416-1.09.277-.289.673-.433 1.19-.433.515 0 .913.144 1.194.433.282.29.422.653.422 1.09 0 .43-.14.787-.422 1.073-.28.285-.68.427-1.195.427-.516 0-.912-.142-1.19-.427-.277-.286-.415-.643-.415-1.073zm8.765 3.293l.082 1.465c.938-1.133 2.168-1.7 3.692-1.7 2.64 0 3.984 1.513 4.031 4.536V42h-2.848v-8.215c0-.805-.174-1.4-.521-1.787-.348-.387-.916-.58-1.705-.58-1.149 0-2.004.52-2.567 1.559V42h-2.847V29.32h2.683zm10.207 6.246c0-1.968.463-3.54 1.389-4.716.926-1.176 2.154-1.764 3.686-1.764 1.445 0 2.582.504 3.41 1.512l.129-1.278h2.566v12.293c0 1.664-.518 2.977-1.553 3.938-1.035.96-2.431 1.441-4.19 1.441-.929 0-1.837-.193-2.724-.58-.887-.387-1.56-.892-2.021-1.517l1.347-1.711c.875 1.039 1.953 1.558 3.235 1.558.945 0 1.691-.256 2.238-.767.547-.512.82-1.264.82-2.256v-.856c-.82.914-1.914 1.371-3.28 1.371-1.485 0-2.698-.59-3.64-1.77-.941-1.179-1.412-2.812-1.412-4.898zm2.836.246c0 1.274.26 2.276.78 3.006s1.24 1.096 2.162 1.096c1.148 0 2-.492 2.554-1.477V32.86c-.539-.96-1.382-1.441-2.53-1.441-.938 0-1.667.371-2.186 1.113-.52.742-.78 1.836-.78 3.282zM354.777 42V31.43h-1.933v-2.11h1.933v-1.16c0-1.406.391-2.492 1.172-3.258.781-.765 1.875-1.148 3.281-1.148.5 0 1.032.07 1.594.21l-.07 2.227a5.609 5.609 0 0 0-1.09-.093c-1.36 0-2.039.699-2.039 2.097v1.125h2.578v2.11h-2.578V42h-2.848zm6.973-6.457c0-1.242.246-2.361.738-3.357.492-.997 1.184-1.762 2.075-2.297.89-.535 1.914-.803 3.07-.803 1.71 0 3.1.55 4.166 1.652 1.066 1.102 1.642 2.563 1.728 4.383l.012.668c0 1.25-.24 2.367-.72 3.352-.481.984-1.169 1.746-2.063 2.285-.895.539-1.928.808-3.1.808-1.789 0-3.22-.595-4.295-1.787-1.074-1.191-1.611-2.779-1.611-4.763v-.141zm2.848.246c0 1.305.27 2.326.808 3.065.54.738 1.29 1.107 2.25 1.107.961 0 1.71-.375 2.244-1.125.536-.75.803-1.848.803-3.293 0-1.281-.275-2.297-.826-3.047-.55-.75-1.299-1.125-2.244-1.125-.93 0-1.668.37-2.215 1.108-.547.738-.82 1.841-.82 3.31zm17.988-3.867a7.047 7.047 0 0 0-1.16-.094c-1.305 0-2.184.5-2.637 1.5V42h-2.848V29.32h2.72l.07 1.418c.687-1.101 1.64-1.652 2.859-1.652.406 0 .742.055 1.008.164l-.012 2.672z" fill="#333"/><path d="M102.76 66.49l.044 1.055c.697-.82 1.637-1.23 2.821-1.23 1.33 0 2.235.51 2.716 1.529a3.602 3.602 0 0 1 1.235-1.108c.507-.28 1.106-.422 1.797-.422 2.086 0 3.147 1.105 3.182 3.314V76h-1.626v-6.275c0-.68-.156-1.188-.466-1.525-.31-.337-.832-.506-1.565-.506-.603 0-1.104.18-1.502.54-.399.361-.63.846-.695 1.455V76h-1.635v-6.231c0-1.383-.676-2.075-2.03-2.075-1.066 0-1.796.454-2.188 1.363V76h-1.626v-9.51h1.538zm13.816 4.667c0-.931.183-1.77.55-2.513.366-.745.875-1.319 1.529-1.723.653-.404 1.399-.607 2.237-.607 1.295 0 2.342.449 3.142 1.345.8.897 1.2 2.089 1.2 3.577v.115c0 .925-.178 1.756-.532 2.491a4.038 4.038 0 0 1-1.52 1.719c-.66.41-1.417.615-2.273.615-1.289 0-2.333-.448-3.133-1.345-.8-.896-1.2-2.083-1.2-3.56v-.114zm1.635.194c0 1.054.245 1.9.734 2.54.49.638 1.144.958 1.964.958.826 0 1.483-.324 1.969-.972.486-.647.73-1.554.73-2.72 0-1.043-.248-1.888-.743-2.535-.495-.648-1.153-.972-1.973-.972-.803 0-1.45.32-1.943.958-.492.64-.738 1.553-.738 2.743zm10.6-4.86l.052 1.195c.727-.915 1.676-1.372 2.848-1.372 2.01 0 3.023 1.134 3.041 3.402V76h-1.626v-6.293c-.006-.686-.163-1.192-.47-1.52-.308-.329-.787-.493-1.437-.493-.528 0-.99.141-1.389.422-.398.281-.709.65-.932 1.108V76h-1.626v-9.51h1.539zM138.97 76h-1.626v-9.51h1.626V76zm-1.758-12.032a.97.97 0 0 1 .242-.668c.16-.182.4-.273.716-.273.316 0 .557.091.72.273a.96.96 0 0 1 .247.668.929.929 0 0 1-.246.659c-.164.176-.405.264-.721.264-.317 0-.555-.088-.716-.264a.938.938 0 0 1-.242-.66zm6.565.22v2.302h1.776v1.257h-1.776v5.898c0 .38.08.666.238.856.158.19.427.286.808.286.188 0 .446-.035.774-.105V76a4.714 4.714 0 0 1-1.248.176c-.727 0-1.275-.22-1.644-.66-.37-.439-.554-1.063-.554-1.871v-5.898h-1.731V66.49h1.731v-2.302h1.626zM153.323 76c-.094-.188-.17-.521-.228-1.002-.756.785-1.658 1.178-2.707 1.178-.938 0-1.707-.265-2.307-.796-.601-.53-.901-1.202-.901-2.017 0-.99.376-1.759 1.13-2.307.752-.548 1.811-.822 3.176-.822h1.582v-.747c0-.568-.17-1.02-.51-1.358-.34-.337-.84-.505-1.502-.505-.58 0-1.067.147-1.46.44-.392.292-.588.647-.588 1.063h-1.635c0-.475.169-.933.505-1.376.337-.442.794-.792 1.372-1.05a4.613 4.613 0 0 1 1.902-.387c1.096 0 1.954.274 2.576.822.62.548.943 1.302.966 2.263v4.377c0 .873.112 1.568.334 2.083V76h-1.705zm-2.698-1.24c.51 0 .993-.131 1.45-.395.457-.263.788-.606.993-1.028v-1.951h-1.274c-1.992 0-2.988.583-2.988 1.749 0 .51.17.908.51 1.195.34.287.776.43 1.309.43zm12.49.3c-.634.744-1.562 1.116-2.787 1.116-1.014 0-1.786-.295-2.316-.884-.53-.588-.798-1.46-.804-2.614V66.49h1.626v6.144c0 1.441.586 2.162 1.758 2.162 1.242 0 2.068-.463 2.478-1.389V66.49h1.626V76h-1.547l-.035-.94zm8.648-7.11a4.872 4.872 0 0 0-.8-.062c-1.067 0-1.79.454-2.171 1.362V76h-1.626v-9.51h1.582l.026 1.099c.534-.85 1.29-1.275 2.268-1.275.316 0 .557.041.72.124v1.511zm5.273 8.226c-1.289 0-2.338-.424-3.146-1.27-.809-.847-1.213-1.98-1.213-3.397v-.299c0-.943.18-1.786.54-2.527.36-.741.865-1.321 1.512-1.74a3.8 3.8 0 0 1 2.105-.629c1.236 0 2.197.408 2.883 1.222.685.815 1.028 1.98 1.028 3.498v.677h-6.442c.023.937.297 1.695.822 2.272.524.577 1.19.866 1.999.866.574 0 1.06-.118 1.459-.352a3.666 3.666 0 0 0 1.046-.932l.993.774c-.797 1.224-1.992 1.837-3.586 1.837zm-.202-8.526c-.656 0-1.207.24-1.652.717-.446.477-.721 1.147-.827 2.008h4.764v-.123c-.047-.826-.27-1.466-.668-1.92-.398-.455-.937-.682-1.617-.682zm5.827 7.497c0-.28.084-.515.25-.703.168-.187.418-.28.752-.28s.587.093.76.28c.173.188.26.422.26.703 0 .27-.087.496-.26.677-.173.182-.426.273-.76.273s-.584-.091-.751-.273a.962.962 0 0 1-.25-.677zm6.469.853h-1.626v-9.51h1.626V76zm-1.758-12.032a.97.97 0 0 1 .242-.668c.16-.182.4-.273.716-.273.316 0 .557.091.72.273a.96.96 0 0 1 .247.668.929.929 0 0 1-.246.659c-.164.176-.405.264-.72.264-.317 0-.556-.088-.717-.264a.938.938 0 0 1-.242-.66zm3.929 7.19c0-.932.183-1.77.55-2.514.365-.745.875-1.319 1.528-1.723.654-.404 1.4-.607 2.237-.607 1.295 0 2.342.449 3.142 1.345.8.897 1.2 2.089 1.2 3.577v.115c0 .925-.177 1.756-.532 2.491a4.038 4.038 0 0 1-1.52 1.719c-.66.41-1.417.615-2.272.615-1.29 0-2.334-.448-3.134-1.345-.8-.896-1.2-2.083-1.2-3.56v-.114zm1.635.193c0 1.054.244 1.9.733 2.54.49.638 1.144.958 1.965.958.826 0 1.482-.324 1.969-.972.486-.647.729-1.554.729-2.72 0-1.043-.248-1.888-.743-2.535-.495-.648-1.152-.972-1.973-.972-.803 0-1.45.32-1.942.958-.492.64-.738 1.553-.738 2.743z" fill="#656565"/></g></svg>