<svg xmlns="http://www.w3.org/2000/svg" viewBox="0 0 1920 1080"><path fill="#212121" d="M0 0h1920v1080H0z"/><g fill="#FFF"><path opacity=".1" d="M1693.5 765.1c86.9 0 166.3-32.5 226.5-86.1V169c-60.2-53.5-139.6-86.1-226.5-86.1-188.4 0-341.1 152.7-341.1 341.1s152.7 341.1 341.1 341.1z"/><circle opacity=".2" cx="1693.5" cy="424" r="159"/><circle opacity=".5" cx="1693.5" cy="424" r="81.2"/><circle cx="1693.5" cy="424" r="43.5"/><path opacity=".02" d="M1433.9 0c-142.5 87.4-237.5 244.6-237.5 424 0 274.5 222.6 497.1 497.1 497.1 81.6 0 158.6-19.7 226.5-54.5V0h-486.1z"/></g><path opacity=".8" fill="#68ED83" d="M0 1080h1920V423.6c-211.7 38.6-252.8 270.6-568.9 270.6-293.1 0-379.6-230.9-731.5-230.9C327.2 463.3 76.4 616.9 0 668.9V1080z"/><path fill="#37474F" d="M1767.1 576.1l-21 24 6-54.6-12.1-30.9-10 20.4v-27.9l-18.9 14.9s.3 13.6-1 23.6c-1 8-19.6 54.1-27 72L1673 597h-20l-16 18.1V650h-66.4c-3.9 0-7.1 1.3-9.6 3.4 44.8 11.1 90.4 24.9 135.6 38.6 25.6-28 50.4-57.4 76.6-83l-6.1-32.9zm-71.1-177V391h-5v8.1c-8 1-15 6.6-15 13.3v3.7h35v-3.7c0-6.7-6-12.3-15-13.3z"/><path fill="#FFF" d="M1676 414.3h35.1v28H1676z"/><path fill="#CFD8DC" d="M1721 667.3h-54.7l7-198h40.7z"/><path fill="#78909C" d="M1709 470l7 198h5l-7-198z"/><path fill="#ECEFF1" d="M1678 470l-7 197.3-5 .2 7-197.5z"/><path fill="#90A4AE" d="M1704 470l7 198h5l-7-198z"/><path fill="#B0BEC5" d="M1699 470l7 198h5l-7-198z"/><path fill="#37474F" d="M1666.3 465.3h54.7v8h-54.7zm39.8 91.4h2.8v26h-2.8z"/><path fill="#37474F" d="M1668.3 455.9h2.4v10.5h-2.4zm48.3 0h2.4v10.5h-2.4zm-45.8-21.9h5.5v8.3h-5.5zm20.1 0h5.5v8.3h-5.5z"/><path fill="#37474F" d="M1676 413.3h1.4v28h-1.4zm16.9 0h1.4v28h-1.4z"/><path fill="#E1F5FE" d="M1704.5 414.3h4v28h-4z"/><path fill="#B3E5FC" d="M1707.1 414.3h3v28h-3z"/><path fill="#37474F" d="M1672.3 437.3h42.7v29h-42.7z"/><path fill="#90A4AE" d="M1680.2 443.4h27v18.7h-27z"/><path fill="#78909C" d="M1710.5 443.4h4.5v18.7h-4.5z"/><path fill="#B0BEC5" d="M1672.3 443.4h4.5v18.7h-4.5z"/><path fill="#37474F" d="M1710.8 434h5.7v8.3h-5.7z"/><path fill="#37474F" d="M1709.7 413.3h1.4v28h-1.4zm10.8 239.7h-54.2l.5-6.3h53.5z"/><path opacity=".8" fill="#68ED83" d="M0 1080h1920V536.1c-170.6.6-233.6 265.5-410.4 265.5-177 0-223-112-383.5-112s-200 121-372.5 121-281-275.5-612.5-275.5C84.9 535.1 38.8 542 0 553.4V1080z"/><path fill="#37474F" d="M1722.5 662l2.5-21h-4.2l5.3-32.8-12 4.5V641h-4l-7.3 11-21 6.1-11.2 12.6 39.7 5.1c4-4.6 8.1-9.2 12.2-13.8z"/><path opacity=".8" fill="#68ED83" d="M0 1080h1920V745.9c-162.7-18.6-358.2-116.3-521.7-116.3-180.7 0-376 130.7-483.3 130.7S599 636.7 425 636.7c-148.1 0-270.2 89.6-425 116.3v327z"/></svg>