<svg width="43" height="42" viewBox="0 0 43 42" xmlns="http://www.w3.org/2000/svg" xmlns:xlink="http://www.w3.org/1999/xlink"><title>Group 19</title><defs><rect id="a" width="42" height="42" rx="6.462"/><mask id="b" x="0" y="0" width="42" height="42" fill="#fff"><use xlink:href="#a"/></mask></defs><g transform="translate(.667)" stroke="#35C891" fill="none" fill-rule="evenodd"><use mask="url(#b)" stroke-width="3" xlink:href="#a"/><path d="M23.386 14.487a7.808 7.808 0 0 0-2.34-.357c-.79 0-1.55.118-2.27.336-.507.075-4.23.517-9.776-1.754 0 0 .646 3.322 5.487 4.982a7.804 7.804 0 0 0-1.267 4.272c0 4.328 3.504 7.837 7.825 7.837 4.322 0 7.826-3.509 7.826-7.837a7.808 7.808 0 0 0-1.283-4.298C32.36 16 33 12.712 33 12.712c-5.141 2.105-8.715 1.88-9.614 1.775m-7.145 7.522a4.808 4.808 0 0 1 4.804-4.811 4.808 4.808 0 0 1 4.806 4.81 4.809 4.809 0 0 1-4.806 4.813 4.808 4.808 0 0 1-4.804-4.812"/></g></svg>
