<svg width="42" height="41" viewBox="0 0 42 41" xmlns="http://www.w3.org/2000/svg"><title>Rectangle 16</title><path d="M19.93.546c0-.302.245-.546.54-.546h1.06c.298 0 .54.244.54.546v9.62a.545.545 0 0 1-.54.545h-1.06a.543.543 0 0 1-.54-.546V.545zm16.686 7a.545.545 0 0 1 .764.076l.667.824a.543.543 0 0 1-.084.764l-7.475 6.053a.545.545 0 0 1-.765-.076l-.667-.824a.543.543 0 0 1 .084-.763l7.476-6.054zm4.963 17.49a.545.545 0 0 1 .41.65l-.238 1.032a.543.543 0 0 1-.654.404l-9.372-2.164a.545.545 0 0 1-.41-.65l.238-1.032a.543.543 0 0 1 .653-.404l9.373 2.164zM31.036 39.751a.545.545 0 0 1-.246.727l-.953.465a.543.543 0 0 1-.725-.254l-4.217-8.645a.545.545 0 0 1 .246-.728l.953-.465a.543.543 0 0 1 .725.254l4.217 8.646zm-18.149.938a.545.545 0 0 1-.724.254l-.953-.465a.543.543 0 0 1-.247-.727l4.217-8.646a.545.545 0 0 1 .725-.254l.953.465c.268.131.379.456.246.728l-4.217 8.645zM.902 27.122a.545.545 0 0 1-.653-.404L.01 25.685a.543.543 0 0 1 .41-.649l9.373-2.164a.545.545 0 0 1 .654.404l.238 1.033a.543.543 0 0 1-.41.65L.902 27.121zM4.036 9.21a.545.545 0 0 1-.084-.764l.667-.824a.543.543 0 0 1 .764-.076L12.86 13.6c.234.19.27.534.084.763l-.667.824a.543.543 0 0 1-.764.076L4.036 9.21z" fill="#35C891" fill-rule="evenodd"/></svg>