<svg width="37" height="44" viewBox="0 0 37 44" xmlns="http://www.w3.org/2000/svg"><title>Group 2</title><g transform="translate(1 1)" fill="none" fill-rule="evenodd"><path d="M14.805 39.835c-5.724 1.324-10.794.693-11.324-1.41-.53-2.102 3.68-4.88 9.405-6.204 5.724-1.324 10.794-.693 11.324 1.41.53 2.102-3.68 4.88-9.405 6.204m9.17-9.264s-.558-.198-.812-1.205l-2.075-8.231c-1.18-4.685-5.635-7.806-10.463-7.768a.973.973 0 0 1-.643-.28c-.483-.566-1.322-.848-2.1-.691-.767.2-1.379.818-1.539 1.533a.921.921 0 0 1-.437.53c-4.314 2.076-6.793 6.8-5.612 11.485l2.075 8.231c.254 1.008-.143 1.427-.143 1.427-1.069 1.118-1.45 2.242-1.185 3.292.736 2.92 7.071 3.96 14.113 2.348 7.034-1.643 12.179-5.34 11.443-8.259-.265-1.05-1.139-1.883-2.622-2.412z" stroke="#35C891"/><path d="M9.93 34.739c-.937.353-1.754.75-2.431 1.18a6.268 6.268 0 0 0-1.037.799c.7.995 2.676 1.227 4.684.489 2.113-.778 3.495-2.351 3.202-3.592-.409.06-.822.132-1.237.216a20.77 20.77 0 0 0-3.18.908" stroke="#35C891"/><ellipse stroke="#35C891" stroke-width="1.5" fill="#FFF" cx="22.5" cy="12.353" rx="12.5" ry="12.353"/><path d="M23.241 11.252c.188-.282.281-.554.281-.817a.936.936 0 0 0-.244-.66.813.813 0 0 0-.626-.265c-.466 0-.908.353-1.326 1.06L20 9.736c.347-.571.727-1.003 1.14-1.296.414-.293.941-.44 1.581-.44s1.203.216 1.687.648c.485.432.727 1.02.727 1.764 0 .406-.097.795-.292 1.167-.194.372-.553.847-1.077 1.425l-1.336 1.477h2.928v1.578h-5.23V14.75l2.174-2.367c.439-.473.752-.85.94-1.132z" fill="#35C891"/></g></svg>
