<svg width="508" height="121" viewBox="0 0 508 121" xmlns="http://www.w3.org/2000/svg" xmlns:xlink="http://www.w3.org/1999/xlink"><title>Group 30</title><defs><rect id="a" width="508" height="121" rx="5"/><mask id="b" x="0" y="0" width="508" height="121" fill="#fff"><use xlink:href="#a"/></mask></defs><g fill="none" fill-rule="evenodd"><use mask="url(#b)" xlink:href="#a" stroke="#C7C7C7" stroke-width="2" fill="#FFF"/><path d="M68.55 30.44a27.665 27.665 0 0 0-8.387-1.296c-2.827 0-5.556.429-8.13 1.219C50.216 30.635 36.876 32.239 17 24c0 0 2.315 12.053 19.66 18.074a28.565 28.565 0 0 0-4.537 15.497c0 15.7 12.554 28.429 28.04 28.429 15.487 0 28.04-12.728 28.04-28.429a28.577 28.577 0 0 0-4.596-15.592C100.705 35.926 103 24 103 24c-18.423 7.637-31.228 6.817-34.45 6.44M42.947 57.726c0-9.64 7.708-17.454 17.217-17.454 9.508 0 17.218 7.815 17.218 17.454 0 9.64-7.71 17.456-17.218 17.456-9.509 0-17.217-7.816-17.217-17.456" fill="#25DC32"/><path d="M123.665 24.203l4.184 10.442 4.183-10.442h2.189V37h-1.688v-4.983l.158-5.38-4.2 10.363h-1.293l-4.192-10.336.167 5.353V37h-1.688V24.203h2.18zm12.85 7.954c0-.931.183-1.77.549-2.513.366-.745.876-1.319 1.53-1.723.653-.404 1.398-.607 2.236-.607 1.295 0 2.342.449 3.142 1.345.8.897 1.2 2.089 1.2 3.577v.115c0 .925-.177 1.756-.532 2.491a4.038 4.038 0 0 1-1.52 1.719c-.66.41-1.417.615-2.272.615-1.29 0-2.334-.448-3.134-1.345-.8-.896-1.2-2.083-1.2-3.56v-.114zm1.634.194c0 1.054.245 1.9.734 2.54.49.638 1.144.958 1.965.958.826 0 1.482-.324 1.968-.972.487-.647.73-1.554.73-2.72 0-1.043-.248-1.888-.743-2.535-.495-.648-1.153-.972-1.973-.972-.803 0-1.45.32-1.942.958-.492.64-.739 1.553-.739 2.743zm10.6-4.86l.053 1.195c.726-.915 1.676-1.372 2.847-1.372 2.01 0 3.024 1.134 3.041 3.402V37h-1.626v-6.293c-.005-.686-.162-1.192-.47-1.52-.307-.329-.786-.493-1.437-.493-.527 0-.99.141-1.388.422-.399.281-.71.65-.932 1.108V37h-1.626v-9.51h1.538zM158.909 37h-1.626v-9.51h1.626V37zm-1.758-12.032a.97.97 0 0 1 .242-.668c.161-.182.4-.273.716-.273.317 0 .557.091.721.273a.96.96 0 0 1 .246.668.929.929 0 0 1-.246.659c-.164.176-.404.264-.72.264-.317 0-.556-.088-.717-.264a.938.938 0 0 1-.242-.66zm6.566.22v2.302h1.775v1.257h-1.775v5.898c0 .38.079.666.237.856.158.19.428.286.809.286.187 0 .445-.035.773-.105V37a4.714 4.714 0 0 1-1.248.176c-.726 0-1.274-.22-1.643-.66-.37-.439-.554-1.063-.554-1.871v-5.898h-1.732V27.49h1.732v-2.302h1.626zM173.262 37c-.094-.188-.17-.521-.229-1.002-.756.785-1.658 1.178-2.707 1.178-.937 0-1.706-.265-2.307-.796-.6-.53-.9-1.202-.9-2.017 0-.99.376-1.759 1.129-2.307.752-.548 1.812-.822 3.177-.822h1.582v-.747c0-.568-.17-1.02-.51-1.358-.34-.337-.84-.505-1.503-.505-.58 0-1.066.147-1.459.44-.392.292-.589.647-.589 1.063h-1.634c0-.475.168-.933.505-1.376.337-.442.794-.792 1.371-1.05a4.613 4.613 0 0 1 1.903-.387c1.096 0 1.954.274 2.575.822.621.548.943 1.302.967 2.263v4.377c0 .873.111 1.568.334 2.083V37h-1.705zm-2.699-1.24c.51 0 .994-.131 1.45-.395.458-.263.789-.606.994-1.028v-1.951h-1.275c-1.992 0-2.988.583-2.988 1.749 0 .51.17.908.51 1.195.34.287.776.43 1.31.43zm12.49.3c-.633.744-1.562 1.116-2.786 1.116-1.014 0-1.786-.295-2.316-.884-.53-.588-.799-1.46-.805-2.614V27.49h1.626v6.144c0 1.441.586 2.162 1.758 2.162 1.242 0 2.069-.463 2.479-1.389V27.49h1.626V37h-1.547l-.035-.94zm8.648-7.11a4.872 4.872 0 0 0-.8-.062c-1.066 0-1.79.454-2.17 1.362V37h-1.627v-9.51h1.583l.026 1.099c.533-.85 1.289-1.275 2.267-1.275.317 0 .557.041.721.123v1.512zm5.274 8.226c-1.29 0-2.338-.424-3.147-1.27-.808-.847-1.213-1.98-1.213-3.397v-.299c0-.943.18-1.786.54-2.527.361-.741.865-1.321 1.512-1.74a3.8 3.8 0 0 1 2.105-.629c1.237 0 2.198.408 2.883 1.222.686.815 1.029 1.98 1.029 3.498v.677h-6.443c.024.937.298 1.695.822 2.272.524.577 1.19.866 2 .866.574 0 1.06-.118 1.458-.352a3.666 3.666 0 0 0 1.046-.932l.994.774c-.797 1.224-1.993 1.837-3.586 1.837zm-.203-8.526c-.656 0-1.207.24-1.652.717-.445.477-.72 1.147-.826 2.008h4.764v-.123c-.047-.826-.27-1.466-.668-1.92-.399-.455-.938-.682-1.618-.682zm11.787-1.16l.052 1.196c.727-.915 1.676-1.372 2.848-1.372 2.01 0 3.023 1.134 3.041 3.402V37h-1.626v-6.293c-.006-.686-.163-1.192-.47-1.52-.308-.329-.787-.493-1.437-.493-.528 0-.99.141-1.389.422-.398.281-.709.65-.932 1.108V37h-1.625v-9.51h1.538zm7.962 4.667c0-.931.184-1.77.55-2.513.366-.745.876-1.319 1.53-1.723.652-.404 1.398-.607 2.236-.607 1.295 0 2.342.449 3.142 1.345.8.897 1.2 2.089 1.2 3.577v.115c0 .925-.178 1.756-.532 2.491a4.038 4.038 0 0 1-1.52 1.719c-.66.41-1.417.615-2.273.615-1.289 0-2.333-.448-3.133-1.345-.8-.896-1.2-2.083-1.2-3.56v-.114zm1.635.194c0 1.054.245 1.9.734 2.54.49.638 1.144.958 1.964.958.827 0 1.483-.324 1.97-.972.486-.647.729-1.554.729-2.72 0-1.043-.248-1.888-.743-2.535-.495-.648-1.153-.972-1.973-.972-.803 0-1.45.32-1.942.958-.493.64-.739 1.553-.739 2.743zm11.268-7.163v2.302h1.775v1.257h-1.775v5.898c0 .38.079.666.237.856.158.19.428.286.809.286.187 0 .445-.035.773-.105V37a4.714 4.714 0 0 1-1.248.176c-.726 0-1.274-.22-1.643-.66-.37-.439-.554-1.063-.554-1.871v-5.898h-1.732V27.49h1.732v-2.302h1.626zM234.864 37h-1.626v-9.51h1.626V37zm-1.758-12.032a.97.97 0 0 1 .242-.668c.161-.182.4-.273.716-.273.317 0 .557.091.721.273a.96.96 0 0 1 .246.668.929.929 0 0 1-.246.659c-.164.176-.404.264-.72.264-.317 0-.556-.088-.717-.264a.938.938 0 0 1-.242-.66zM238.011 37v-8.253h-1.503V27.49h1.503v-.808c0-1.06.303-1.887.91-2.479.606-.592 1.463-.888 2.57-.888.656 0 1.486.18 2.488.537l-.273 1.37c-.732-.292-1.43-.439-2.092-.439-.697 0-1.2.157-1.507.47-.308.314-.461.784-.461 1.411v.826h1.942v1.257h-1.942V37h-1.635zm6.776 0h-1.635v-9.51h1.635V37zm6.46-1.151c.58 0 1.087-.176 1.52-.528.434-.351.674-.79.721-1.318h1.538c-.029.545-.216 1.063-.562 1.556a3.705 3.705 0 0 1-1.384 1.177 3.994 3.994 0 0 1-1.833.44c-1.295 0-2.325-.432-3.09-1.297-.764-.864-1.146-2.046-1.146-3.546v-.272c0-.926.17-1.75.51-2.47.34-.72.827-1.28 1.463-1.679.636-.398 1.387-.598 2.254-.598 1.067 0 1.953.32 2.659.958.706.64 1.082 1.468 1.13 2.488h-1.539c-.047-.615-.28-1.12-.698-1.516-.42-.396-.936-.594-1.552-.594-.826 0-1.466.298-1.92.892-.454.595-.681 1.455-.681 2.58v.308c0 1.095.225 1.94.676 2.53.452.593 1.096.889 1.934.889zM262.726 37c-.094-.188-.17-.521-.229-1.002-.756.785-1.658 1.178-2.707 1.178-.937 0-1.707-.265-2.307-.796-.6-.53-.901-1.202-.901-2.017 0-.99.376-1.759 1.13-2.307.752-.548 1.811-.822 3.177-.822h1.582v-.747c0-.568-.17-1.02-.51-1.358-.34-.337-.84-.505-1.503-.505-.58 0-1.066.147-1.459.44-.393.292-.589.647-.589 1.063h-1.635c0-.475.169-.933.506-1.376.337-.442.794-.792 1.37-1.05a4.613 4.613 0 0 1 1.904-.387c1.095 0 1.954.274 2.575.822.621.548.943 1.302.967 2.263v4.377c0 .873.111 1.568.334 2.083V37h-1.705zm-2.699-1.24c.51 0 .994-.131 1.45-.395.458-.263.789-.606.994-1.028v-1.951h-1.275c-1.992 0-2.988.583-2.988 1.749 0 .51.17.908.51 1.195.34.287.776.43 1.31.43zm8.825-10.572v2.302h1.775v1.257h-1.775v5.898c0 .38.079.666.237.856.158.19.428.286.808.286.188 0 .446-.035.774-.105V37a4.714 4.714 0 0 1-1.248.176c-.727 0-1.275-.22-1.644-.66-.369-.439-.553-1.063-.553-1.871v-5.898h-1.732V27.49h1.732v-2.302h1.626zM274.292 37h-1.626v-9.51h1.626V37zm-1.758-12.032a.97.97 0 0 1 .242-.668c.161-.182.4-.273.716-.273.317 0 .557.091.72.273a.96.96 0 0 1 .247.668.929.929 0 0 1-.246.659c-.164.176-.404.264-.72.264-.317 0-.556-.088-.717-.264a.938.938 0 0 1-.242-.66zm3.929 7.19c0-.932.183-1.77.55-2.514.365-.745.875-1.319 1.529-1.723.653-.404 1.398-.607 2.236-.607 1.295 0 2.343.449 3.142 1.345.8.897 1.2 2.089 1.2 3.577v.115c0 .925-.177 1.756-.532 2.491a4.038 4.038 0 0 1-1.52 1.719c-.66.41-1.417.615-2.272.615-1.29 0-2.334-.448-3.133-1.345-.8-.896-1.2-2.083-1.2-3.56v-.114zm1.635.193c0 1.054.244 1.9.734 2.54.489.638 1.144.958 1.964.958.826 0 1.482-.324 1.969-.972.486-.647.73-1.554.73-2.72 0-1.043-.248-1.888-.744-2.535-.495-.648-1.152-.972-1.973-.972-.802 0-1.45.32-1.942.958-.492.64-.738 1.553-.738 2.743zm10.6-4.86l.052 1.195c.727-.915 1.676-1.372 2.848-1.372 2.01 0 3.023 1.134 3.04 3.402V37h-1.625v-6.293c-.006-.686-.163-1.192-.47-1.52-.308-.329-.787-.493-1.438-.493-.527 0-.99.141-1.388.422-.399.281-.71.65-.932 1.108V37h-1.626v-9.51h1.538z" fill="#333"/><path d="M128.552 64.66h-5.362L121.986 68h-1.74l4.887-12.797h1.476L131.505 68h-1.732l-1.221-3.34zm-4.852-1.389h4.35l-2.179-5.985-2.17 5.985zM134.74 68h-1.627V54.5h1.626V68zm6.547.176c-1.289 0-2.338-.424-3.146-1.27-.809-.847-1.213-1.98-1.213-3.397v-.299c0-.943.18-1.786.54-2.527.36-.741.865-1.321 1.512-1.74a3.8 3.8 0 0 1 2.105-.629c1.236 0 2.197.408 2.883 1.222.685.815 1.028 1.98 1.028 3.498v.677h-6.442c.023.937.297 1.695.821 2.272.525.577 1.191.866 2 .866.574 0 1.06-.118 1.459-.352a3.666 3.666 0 0 0 1.046-.932l.993.774c-.797 1.224-1.992 1.837-3.586 1.837zm-.202-8.526c-.656 0-1.207.24-1.652.717-.446.477-.721 1.147-.827 2.008h4.764v-.123c-.047-.826-.27-1.466-.668-1.92-.398-.455-.937-.682-1.617-.682zm10.389.3a4.872 4.872 0 0 0-.8-.062c-1.067 0-1.79.454-2.171 1.362V68h-1.626v-9.51h1.582l.026 1.099c.534-.85 1.29-1.275 2.268-1.275.316 0 .557.041.72.123v1.512zm4.14-3.763v2.303h1.775v1.257h-1.776v5.898c0 .38.08.666.238.856.158.19.427.286.808.286.188 0 .445-.035.774-.105V68a4.714 4.714 0 0 1-1.248.176c-.727 0-1.275-.22-1.644-.66-.37-.439-.554-1.063-.554-1.871v-5.898h-1.731V58.49h1.731v-2.303h1.626zm3.62 10.96c0-.28.084-.515.25-.703.168-.187.418-.28.752-.28s.588.093.76.28c.173.188.26.422.26.703 0 .27-.087.496-.26.677-.172.182-.426.273-.76.273s-.584-.091-.751-.273a.962.962 0 0 1-.25-.677zm.01-7.76c0-.282.083-.516.25-.703.167-.188.417-.282.751-.282s.588.094.76.282c.173.187.26.421.26.703 0 .27-.087.495-.26.676-.172.182-.426.273-.76.273s-.584-.09-.751-.273a.962.962 0 0 1-.25-.676zM178.191 68h-1.696v-5.915h-6.451V68h-1.688V55.203h1.688v5.502h6.451v-5.502h1.696V68zm11.584-11.408h-4.113V68h-1.679V56.592h-4.104v-1.389h9.896v1.389zm10.881 0h-4.113V68h-1.679V56.592h-4.104v-1.389h9.896v1.389zm3.586 6.398V68h-1.687V55.203h4.72c1.4 0 2.497.358 3.29 1.072.795.715 1.192 1.662 1.192 2.84 0 1.241-.388 2.198-1.165 2.869-.776.67-1.888 1.006-3.335 1.006h-3.015zm0-1.38h3.032c.903 0 1.594-.212 2.075-.637.48-.425.72-1.038.72-1.841 0-.762-.24-1.371-.72-1.828-.48-.457-1.14-.695-1.978-.712h-3.129v5.018zm13.439.686c-1.448-.416-2.5-.927-3.16-1.534-.66-.606-.989-1.355-.989-2.245 0-1.008.403-1.842 1.209-2.5.805-.66 1.853-.99 3.142-.99.879 0 1.662.17 2.35.51.69.34 1.223.809 1.6 1.406.378.598.567 1.251.567 1.96h-1.696c0-.773-.246-1.381-.738-1.823-.492-.443-1.187-.664-2.083-.664-.832 0-1.481.183-1.947.55-.466.366-.699.874-.699 1.524 0 .522.221.963.664 1.323.442.36 1.195.69 2.259.989 1.063.299 1.895.628 2.496.989.6.36 1.046.78 1.336 1.26.29.481.435 1.047.435 1.697 0 1.037-.405 1.868-1.213 2.492-.809.624-1.89.936-3.243.936-.88 0-1.7-.169-2.461-.506-.762-.337-1.35-.798-1.762-1.384a3.378 3.378 0 0 1-.62-1.995h1.696c0 .773.286 1.384.857 1.833.571.448 1.335.672 2.29.672.89 0 1.573-.182 2.048-.545.474-.363.711-.858.711-1.485 0-.627-.22-1.112-.659-1.455-.44-.343-1.236-.681-2.39-1.015zm25.154 1.292c-.07 1.418-.422 2.537-1.055 3.357-.633.82-1.48 1.23-2.54 1.23-1.095 0-1.799-.491-2.11-1.476-.316.498-.677.869-1.085 1.112a2.429 2.429 0 0 1-1.26.365c-.833 0-1.463-.34-1.89-1.02-.428-.68-.586-1.62-.475-2.821.088-.967.309-1.83.663-2.588.355-.76.812-1.355 1.372-1.789.56-.434 1.147-.65 1.762-.65.474 0 .9.063 1.274.189.375.126.797.373 1.266.742l-.457 4.87c-.112 1.353.263 2.03 1.125 2.03.662 0 1.198-.328 1.608-.985.41-.656.633-1.511.668-2.566.111-2.28-.312-4.017-1.27-5.212-.958-1.195-2.415-1.793-4.372-1.793-1.178 0-2.224.292-3.138.875-.914.583-1.635 1.425-2.162 2.526-.528 1.102-.823 2.373-.888 3.815-.07 1.453.106 2.714.527 3.784.422 1.069 1.065 1.886 1.93 2.452.864.565 1.908.848 3.133.848.527 0 1.056-.065 1.586-.194.53-.128.972-.295 1.323-.5l.325 1.01c-.363.229-.845.416-1.446.563a7.67 7.67 0 0 1-1.823.22c-1.465 0-2.725-.33-3.78-.99-1.054-.659-1.844-1.608-2.368-2.847-.525-1.24-.752-2.688-.681-4.346.07-1.612.43-3.06 1.08-4.346.651-1.287 1.533-2.28 2.646-2.98 1.114-.7 2.37-1.05 3.77-1.05 1.46 0 2.71.328 3.754.984 1.043.656 1.819 1.603 2.329 2.84.51 1.235.73 2.683.659 4.34zm-9.018.747c-.082.832-.004 1.47.233 1.916.238.445.614.668 1.13.668.351 0 .69-.15 1.015-.448.325-.3.593-.727.804-1.284l.009-.079.404-4.42a2.26 2.26 0 0 0-1.055-.255c-.685 0-1.252.348-1.7 1.046-.449.697-.728 1.649-.84 2.856zm24.337-7.743h-4.113V68h-1.679V56.592h-4.104v-1.389h9.896v1.389zM264.677 68c-.094-.188-.17-.521-.229-1.002-.756.785-1.658 1.178-2.707 1.178-.937 0-1.706-.265-2.307-.796-.6-.53-.9-1.202-.9-2.017 0-.99.376-1.759 1.129-2.307s1.812-.822 3.177-.822h1.582v-.747c0-.568-.17-1.02-.51-1.358-.34-.337-.84-.505-1.503-.505-.58 0-1.066.147-1.459.44-.392.292-.589.647-.589 1.063h-1.634c0-.475.168-.933.505-1.376.337-.442.794-.792 1.371-1.05a4.613 4.613 0 0 1 1.903-.387c1.096 0 1.954.274 2.575.822.621.548.943 1.302.967 2.263v4.377c0 .873.111 1.568.334 2.083V68h-1.705zm-2.698-1.24c.51 0 .993-.131 1.45-.395.457-.263.788-.606.993-1.028v-1.951h-1.275c-1.992 0-2.988.583-2.988 1.749 0 .51.17.908.51 1.195.34.287.776.43 1.31.43zm8.384 1.24h-1.626v-9.51h1.626V68zm-1.758-12.032a.97.97 0 0 1 .242-.668c.161-.182.4-.273.716-.273.317 0 .557.091.721.273a.96.96 0 0 1 .246.668.929.929 0 0 1-.246.659c-.164.176-.404.264-.72.264-.317 0-.556-.088-.717-.264a.938.938 0 0 1-.242-.66zm12.393 7.383c0 1.447-.331 2.613-.993 3.498-.662.884-1.559 1.327-2.69 1.327-1.154 0-2.062-.366-2.724-1.099v4.58h-1.626V58.49h1.485l.08 1.055c.661-.82 1.581-1.23 2.76-1.23 1.142 0 2.045.43 2.71 1.291.666.862.998 2.06.998 3.595v.15zm-1.626-.185c0-1.072-.228-1.919-.685-2.54-.458-.621-1.084-.932-1.881-.932-.985 0-1.723.437-2.215 1.31v4.544c.486.867 1.23 1.3 2.232 1.3.78 0 1.4-.308 1.86-.927.46-.618.69-1.536.69-2.755zm7.638 5.01c-1.29 0-2.338-.424-3.147-1.27-.808-.847-1.213-1.98-1.213-3.397v-.299c0-.943.18-1.786.54-2.527.361-.741.865-1.321 1.513-1.74a3.8 3.8 0 0 1 2.105-.629c1.236 0 2.197.408 2.882 1.222.686.815 1.029 1.98 1.029 3.498v.677h-6.443c.024.937.298 1.695.822 2.272.525.577 1.191.866 2 .866.574 0 1.06-.118 1.459-.352a3.666 3.666 0 0 0 1.046-.932l.993.774c-.797 1.224-1.992 1.837-3.586 1.837zm-.202-8.526c-.657 0-1.207.24-1.653.717-.445.477-.72 1.147-.826 2.008h4.764v-.123c-.047-.826-.27-1.466-.668-1.92-.399-.455-.938-.682-1.617-.682zm7.558 8.35h-1.626v-9.51h1.626V68zm-1.758-12.032a.97.97 0 0 1 .242-.668c.161-.182.4-.273.716-.273.317 0 .557.091.721.273a.96.96 0 0 1 .246.668.929.929 0 0 1-.246.659c-.164.176-.404.264-.72.264-.317 0-.556-.088-.717-.264a.938.938 0 0 1-.242-.66zM303.19 68h-1.626v-9.51h1.626V68zm-1.757-12.032a.97.97 0 0 1 .241-.668c.161-.182.4-.273.717-.273.316 0 .556.091.72.273a.96.96 0 0 1 .246.668.929.929 0 0 1-.246.659c-.164.176-.404.264-.72.264-.317 0-.556-.088-.717-.264a.938.938 0 0 1-.241-.66zm9.896 9.51c0-.44-.165-.781-.496-1.024-.332-.244-.909-.453-1.732-.629s-1.476-.387-1.96-.633c-.483-.246-.84-.539-1.072-.879-.232-.34-.347-.744-.347-1.212 0-.78.33-1.439.988-1.978.66-.539 1.502-.809 2.527-.809 1.078 0 1.953.279 2.624.835.67.557 1.006 1.269 1.006 2.136h-1.635c0-.445-.189-.829-.566-1.151-.378-.322-.854-.484-1.429-.484-.591 0-1.054.13-1.388.387a1.217 1.217 0 0 0-.501 1.01c0 .393.155.69.465.889.311.199.872.39 1.684.57.811.182 1.469.4 1.973.651.504.252.877.555 1.12.91.243.354.365.787.365 1.296 0 .85-.34 1.531-1.02 2.044-.68.512-1.561.769-2.645.769-.762 0-1.436-.135-2.021-.405-.586-.269-1.045-.646-1.376-1.129a2.722 2.722 0 0 1-.497-1.569h1.626c.03.545.248.977.655 1.297.407.319.945.479 1.613.479.615 0 1.109-.125 1.481-.374.372-.249.558-.581.558-.997zM319.784 68V55.203h3.612c1.114 0 2.098.246 2.954.738a4.993 4.993 0 0 1 1.982 2.101c.465.908.701 1.951.707 3.129v.817c0 1.207-.233 2.265-.699 3.173a4.915 4.915 0 0 1-1.995 2.092c-.864.486-1.87.735-3.019.747h-3.542zm1.688-11.408V66.62h1.775c1.3 0 2.313-.404 3.037-1.213.723-.808 1.085-1.96 1.085-3.454v-.747c0-1.453-.341-2.582-1.024-3.388-.682-.806-1.65-1.214-2.905-1.226h-1.968zm19.96 5.423c0 1.254-.211 2.348-.633 3.282-.422.935-1.02 1.648-1.793 2.14-.774.493-1.676.739-2.707.739-1.008 0-1.902-.248-2.68-.743-.78-.495-1.385-1.201-1.816-2.118-.43-.917-.652-1.98-.663-3.186v-.923c0-1.23.214-2.317.641-3.26.428-.944 1.033-1.666 1.815-2.167.782-.501 1.677-.752 2.685-.752 1.026 0 1.93.248 2.712.743.782.495 1.384 1.213 1.806 2.153.422.94.633 2.035.633 3.283v.809zm-1.68-.827c0-1.517-.304-2.682-.913-3.493-.61-.812-1.462-1.217-2.558-1.217-1.066 0-1.906.405-2.518 1.217-.612.811-.927 1.938-.945 3.38v.94c0 1.47.31 2.626.928 3.467.618.84 1.469 1.261 2.553 1.261 1.09 0 1.933-.397 2.531-1.19.598-.795.905-1.933.923-3.415v-.95zm6.97 2.778l.247 1.687.36-1.52 2.531-8.93h1.424l2.47 8.93.351 1.547.273-1.723 1.986-8.754h1.697L354.958 68h-1.538l-2.637-9.325-.202-.976-.202.976L347.646 68h-1.539l-3.093-12.797h1.687l2.022 8.763zM369.769 68h-1.697l-6.442-9.861V68h-1.696V55.203h1.696l6.46 9.905v-9.905h1.679V68z" fill="#656565"/><path d="M122.453 88.547l.04.937c.619-.729 1.455-1.093 2.507-1.093 1.182 0 1.987.453 2.414 1.359a3.202 3.202 0 0 1 1.098-.984c.45-.25.983-.375 1.597-.375 1.855 0 2.797.981 2.828 2.945V97h-1.445v-5.578c0-.604-.138-1.056-.414-1.356-.276-.3-.74-.449-1.39-.449-.537 0-.982.16-1.336.48-.355.321-.56.752-.618 1.294V97h-1.453v-5.54c0-1.228-.601-1.843-1.804-1.843-.948 0-1.597.404-1.946 1.211V97h-1.445v-8.453h1.367zm12.281 4.148c0-.828.163-1.573.489-2.234.325-.662.778-1.172 1.359-1.531.58-.36 1.244-.54 1.988-.54 1.151 0 2.082.4 2.793 1.196.711.797 1.067 1.857 1.067 3.18v.101c0 .823-.158 1.561-.473 2.215a3.589 3.589 0 0 1-1.352 1.527c-.585.365-1.259.547-2.02.547-1.145 0-2.073-.398-2.784-1.195-.711-.797-1.067-1.852-1.067-3.164v-.102zm1.453.172c0 .938.218 1.69.653 2.258.435.568 1.017.852 1.746.852.734 0 1.318-.288 1.75-.864.432-.575.648-1.381.648-2.418 0-.927-.22-1.678-.66-2.254-.44-.575-1.025-.863-1.754-.863-.713 0-1.289.284-1.726.852-.438.567-.656 1.38-.656 2.437zm9.422-4.32l.047 1.062c.646-.812 1.49-1.218 2.531-1.218 1.787 0 2.688 1.007 2.704 3.023V97h-1.446v-5.594c-.005-.61-.144-1.06-.418-1.351-.273-.292-.699-.438-1.277-.438-.469 0-.88.125-1.234.375-.355.25-.63.578-.828.985V97h-1.446v-8.453h1.367zM154.641 97h-1.446v-8.453h1.446V97zm-1.563-10.695c0-.235.072-.433.215-.594.143-.162.355-.242.637-.242.28 0 .494.08.64.242.146.161.22.36.22.594 0 .234-.074.43-.22.586-.146.156-.36.234-.64.234-.282 0-.494-.078-.637-.234a.834.834 0 0 1-.215-.586zm5.836.195v2.047h1.578v1.117h-1.578v5.242c0 .339.07.593.211.762.14.17.38.254.719.254a3.5 3.5 0 0 0 .687-.094V97a4.19 4.19 0 0 1-1.11.156c-.645 0-1.132-.195-1.46-.586-.328-.39-.492-.945-.492-1.664v-5.242h-1.54v-1.117h1.54V86.5h1.445zm8.484 10.5c-.083-.167-.15-.464-.203-.89-.672.697-1.474 1.046-2.406 1.046-.833 0-1.517-.235-2.05-.707-.535-.471-.802-1.069-.802-1.793 0-.88.335-1.564 1.004-2.05.67-.488 1.611-.731 2.825-.731h1.406v-.664c0-.505-.151-.908-.453-1.207-.302-.3-.748-.45-1.336-.45-.516 0-.948.13-1.297.391-.349.26-.524.576-.524.946h-1.453c0-.422.15-.83.45-1.223.3-.393.705-.704 1.218-.934a4.1 4.1 0 0 1 1.692-.343c.974 0 1.737.243 2.289.73s.838 1.158.86 2.012v3.89c0 .776.098 1.394.296 1.852V97h-1.516zM165 95.898a2.54 2.54 0 0 0 1.29-.351c.405-.235.7-.54.882-.914v-1.735h-1.133c-1.77 0-2.656.519-2.656 1.555 0 .453.15.807.453 1.063.302.255.69.382 1.164.382zm11.102.266c-.563.662-1.388.992-2.477.992-.901 0-1.587-.261-2.059-.785-.471-.523-.71-1.298-.714-2.324v-5.5h1.445v5.46c0 1.282.52 1.923 1.562 1.923 1.105 0 1.839-.412 2.203-1.235v-6.148h1.446V97h-1.375l-.031-.836zm7.687-6.32a4.331 4.331 0 0 0-.71-.055c-.949 0-1.592.404-1.93 1.211v6h-1.446v-8.453h1.406l.024.976c.474-.755 1.146-1.132 2.015-1.132.282 0 .495.036.641.109v1.344zm4.688 7.312c-1.146 0-2.079-.376-2.797-1.129-.72-.752-1.078-1.759-1.078-3.02v-.265c0-.838.16-1.587.48-2.246a3.748 3.748 0 0 1 1.344-1.547 3.378 3.378 0 0 1 1.87-.558c1.1 0 1.954.362 2.563 1.086.61.724.914 1.76.914 3.109v.602h-5.726c.02.833.264 1.506.73 2.019.466.513 1.059.77 1.778.77.51 0 .942-.105 1.297-.313.354-.208.664-.484.93-.828l.882.687c-.708 1.089-1.77 1.633-3.187 1.633zm-.18-7.578c-.583 0-1.073.212-1.469.637-.396.424-.64 1.02-.734 1.785h4.234v-.11c-.042-.734-.24-1.303-.594-1.706-.354-.404-.833-.606-1.437-.606zm5.18 6.664c0-.25.074-.458.222-.625.149-.166.371-.25.668-.25.297 0 .522.084.676.25.154.167.23.375.23.625 0 .24-.076.44-.23.602-.154.161-.379.242-.676.242-.297 0-.52-.08-.668-.242a.855.855 0 0 1-.222-.602zm5.75.758h-1.446v-8.453h1.446V97zm-1.563-10.695c0-.235.072-.433.215-.594.143-.162.355-.242.637-.242.28 0 .494.08.64.242.146.161.219.36.219.594 0 .234-.073.43-.219.586-.146.156-.36.234-.64.234-.282 0-.494-.078-.637-.234a.834.834 0 0 1-.215-.586zm3.492 6.39c0-.828.163-1.573.489-2.234.325-.662.778-1.172 1.359-1.531.58-.36 1.243-.54 1.988-.54 1.151 0 2.082.4 2.793 1.196.711.797 1.067 1.857 1.067 3.18v.101c0 .823-.158 1.561-.473 2.215a3.589 3.589 0 0 1-1.352 1.527c-.586.365-1.259.547-2.02.547-1.145 0-2.073-.398-2.784-1.195-.711-.797-1.067-1.852-1.067-3.164v-.102zm1.453.172c0 .938.218 1.69.653 2.258.435.568 1.017.852 1.746.852.734 0 1.318-.288 1.75-.864.432-.575.648-1.381.648-2.418 0-.927-.22-1.678-.66-2.254-.44-.575-1.025-.863-1.754-.863-.713 0-1.289.284-1.726.852-.438.567-.657 1.38-.657 2.437z" fill="#9C9C9C"/><path d="M490.815 93.333c.034-.272.06-.544.06-.833 0-.289-.025-.561-.06-.833l1.794-1.402a.429.429 0 0 0 .102-.545l-1.7-2.94c-.102-.188-.332-.256-.519-.188l-2.116.85a6.21 6.21 0 0 0-1.436-.832l-.324-2.253A.414.414 0 0 0 486.2 84h-3.4a.414.414 0 0 0-.417.357l-.322 2.253a6.53 6.53 0 0 0-1.437.832l-2.116-.85a.415.415 0 0 0-.519.188l-1.7 2.94a.42.42 0 0 0 .102.545l1.793 1.402c-.034.272-.059.553-.059.833 0 .28.026.561.06.833l-1.794 1.402a.429.429 0 0 0-.102.545l1.7 2.94c.102.188.332.256.519.188l2.116-.85c.442.34.918.62 1.437.832l.323 2.253a.414.414 0 0 0 .416.357h3.4a.414.414 0 0 0 .417-.357l.322-2.253a6.53 6.53 0 0 0 1.437-.832l2.117.85c.195.076.416 0 .518-.188l1.7-2.94a.429.429 0 0 0-.102-.545l-1.794-1.402zm-6.315 2.142a2.978 2.978 0 0 1-2.975-2.975 2.978 2.978 0 0 1 2.975-2.975 2.978 2.978 0 0 1 2.975 2.975 2.978 2.978 0 0 1-2.975 2.975z" fill="#737373"/><g stroke="#767676" stroke-width="2.43" stroke-linecap="round"><path d="M480.478 16.125l8.372 8.805M480.352 24.983l8.372-8.804"/></g></g></svg>