<svg width="84" height="50" viewBox="0 0 84 50" xmlns="http://www.w3.org/2000/svg"><title>Aa</title><path d="M21.516.112L4.668 45.184l-4.176.864V49h14.112v-2.952l-4.68-.36-.72-1.008 5.112-13.752h16.992l5.184 13.752-.504 1.008-4.464.36V49h16.344v-2.952l-4.32-.864L26.268.112h-4.752zm1.152 7.56l7.416 19.944H15.54l7.128-19.944zM72.996 49h10.08v-2.592l-3.816-.36-1.224-1.152v-20.88c0-7.2-3.24-10.296-10.872-10.296-8.496 0-14.4 3.384-14.4 8.208 0 1.584.576 2.088 2.232 2.088h4.968v-6.048c2.232-.792 3.672-1.08 5.616-1.08 4.752 0 6.48 2.088 6.48 7.992v2.304c-8.712 2.16-10.296 2.664-13.824 4.032-4.968 2.016-7.2 4.896-7.2 9.144 0 5.4 3.672 9.144 9.144 9.144 3.528 0 6.624-1.224 11.88-4.68L72.996 49zm-.936-6.624c-4.248 2.376-6.624 3.24-9.072 3.24-3.384 0-5.616-2.376-5.616-5.976 0-2.952 1.512-4.968 4.968-6.624 2.448-1.152 3.528-1.512 9.72-3.312v12.672z" fill="#40D89F" fill-rule="evenodd"/></svg>