<?xml version="1.0" encoding="UTF-8" standalone="no"?>
<svg width="84px" height="50px" viewBox="0 0 84 50" version="1.1" xmlns="http://www.w3.org/2000/svg" xmlns:xlink="http://www.w3.org/1999/xlink">
    <!-- Generator: Sketch 40.1 (33804) - http://www.bohemiancoding.com/sketch -->
    <title>Aa</title>
    <desc>Created with Sketch.</desc>
    <defs></defs>
    <g id="Page-1" stroke="none" stroke-width="1" fill="none" fill-rule="evenodd">
        <g id="Monitaure_desktop-Copy-2" transform="translate(-962.000000, -4461.000000)" fill="#40D89F">
            <path d="M983.515919,4461.112 L966.667919,4506.184 L962.491919,4507.048 L962.491919,4510 L976.603919,4510 L976.603919,4507.048 L971.923919,4506.688 L971.203919,4505.68 L976.315919,4491.928 L993.307919,4491.928 L998.491919,4505.68 L997.987919,4506.688 L993.523919,4507.048 L993.523919,4510 L1009.86792,4510 L1009.86792,4507.048 L1005.54792,4506.184 L988.267919,4461.112 L983.515919,4461.112 Z M984.667919,4468.672 L992.083919,4488.616 L977.539919,4488.616 L984.667919,4468.672 Z M1034.99592,4510 L1045.07592,4510 L1045.07592,4507.408 L1041.25992,4507.048 L1040.03592,4505.896 L1040.03592,4485.016 C1040.03592,4477.816 1036.79592,4474.72 1029.16392,4474.72 C1020.66792,4474.72 1014.76392,4478.104 1014.76392,4482.928 C1014.76392,4484.512 1015.33992,4485.016 1016.99592,4485.016 L1021.96392,4485.016 L1021.96392,4478.968 C1024.19592,4478.176 1025.63592,4477.888 1027.57992,4477.888 C1032.33192,4477.888 1034.05992,4479.976 1034.05992,4485.88 L1034.05992,4488.184 C1025.34792,4490.344 1023.76392,4490.848 1020.23592,4492.216 C1015.26792,4494.232 1013.03592,4497.112 1013.03592,4501.36 C1013.03592,4506.76 1016.70792,4510.504 1022.17992,4510.504 C1025.70792,4510.504 1028.80392,4509.28 1034.05992,4505.824 L1034.99592,4510 Z M1034.05992,4503.376 C1029.81192,4505.752 1027.43592,4506.616 1024.98792,4506.616 C1021.60392,4506.616 1019.37192,4504.24 1019.37192,4500.64 C1019.37192,4497.688 1020.88392,4495.672 1024.33992,4494.016 C1026.78792,4492.864 1027.86792,4492.504 1034.05992,4490.704 L1034.05992,4503.376 Z" id="Aa"></path>
        </g>
    </g>
</svg>