<svg xmlns="http://www.w3.org/2000/svg" width="512" height="512" viewBox="0 0 512 512"><path fill="#aaa" d="M384 224v-96C384 57.438 326.594 0 256 0c-70.578 0-128 57.438-128 128v96c-35.344 0-64 28.656-64 64v160c0 35.344 28.656 64 64 64h256c35.344 0 64-28.656 64-64V288c0-35.344-28.656-64-64-64zM272 379.094V432c0 8.844-7.156 16-16 16s-16-7.156-16-16v-52.906c-9.391-5.563-16-15.375-16-27.094 0-17.688 14.328-32 32-32s32 14.313 32 32c0 11.719-6.609 21.531-16 27.094zM320 224H192v-96c0-35.313 28.703-64 64-64 35.281 0 64 28.688 64 64v96z"/></svg>