<?xml version="1.0" encoding="utf-8"?>
<!-- Generator: Adobe Illustrator 18.1.1, SVG Export Plug-In . SVG Version: 6.00 Build 0)  -->
<svg version="1.1" id="Calque_1" xmlns="http://www.w3.org/2000/svg" xmlns:xlink="http://www.w3.org/1999/xlink" x="0px" y="0px"
	 viewBox="0 0 271.7 263.7" enable-background="new 0 0 271.7 263.7" xml:space="preserve">
<g>
	<ellipse opacity="0.2" fill="#FFFFFF" cx="103" cy="252" rx="101" ry="8"/>
	<path fill="#FFFFFF" d="M103,40L103,40c-1.9,0-3.5-1.6-3.5-3.5v-31c0-1.9,1.6-3.5,3.5-3.5l0,0c1.9,0,3.5,1.6,3.5,3.5v31
		C106.5,38.4,104.9,40,103,40z"/>
	<path fill="#FFFFFF" d="M58.5,58.5L58.5,58.5c-1.4,1.4-3.6,1.4-4.9,0L31.6,36.5c-1.4-1.4-1.4-3.6,0-4.9l0,0c1.4-1.4,3.6-1.4,4.9,0
		l21.9,21.9C59.8,54.9,59.8,57.1,58.5,58.5z"/>
	<path fill="#FFFFFF" d="M40,103L40,103c0,1.9-1.6,3.5-3.5,3.5h-31c-1.9,0-3.5-1.6-3.5-3.5l0,0c0-1.9,1.6-3.5,3.5-3.5h31
		C38.4,99.5,40,101.1,40,103z"/>
	<path fill="#FFFFFF" d="M58.5,147.5L58.5,147.5c1.4,1.4,1.4,3.6,0,4.9l-21.9,21.9c-1.4,1.4-3.6,1.4-4.9,0h0c-1.4-1.4-1.4-3.6,0-4.9
		l21.9-21.9C54.9,146.2,57.1,146.2,58.5,147.5z"/>
	<path fill="#FFFFFF" d="M103,166L103,166c1.9,0,3.5,1.6,3.5,3.5v31c0,1.9-1.6,3.5-3.5,3.5l0,0c-1.9,0-3.5-1.6-3.5-3.5v-31
		C99.5,167.6,101.1,166,103,166z"/>
	<path fill="#FFFFFF" d="M147.5,147.5L147.5,147.5c1.4-1.4,3.6-1.4,4.9,0l21.9,21.9c1.4,1.4,1.4,3.6,0,4.9l0,0
		c-1.4,1.4-3.6,1.4-4.9,0l-21.9-21.9C146.2,151.1,146.2,148.9,147.5,147.5z"/>
	<path fill="#FFFFFF" d="M166,103L166,103c0-1.9,1.6-3.5,3.5-3.5h31c1.9,0,3.5,1.6,3.5,3.5l0,0c0,1.9-1.6,3.5-3.5,3.5h-31
		C167.6,106.5,166,104.9,166,103z"/>
	<path fill="#FFFFFF" d="M147.5,58.5L147.5,58.5c-1.4-1.4-1.4-3.6,0-4.9l21.9-21.9c1.4-1.4,3.6-1.4,4.9,0v0c1.4,1.4,1.4,3.6,0,4.9
		l-21.9,21.9C151.1,59.8,148.9,59.8,147.5,58.5z"/>
	<path fill="#FFFFFF" d="M266.7,103.7c-1.4-1.4-3.5-2.4-5-1.9l1.3-1.3c1.4-1.4,1.5-3.7,0.1-5.1c-1.4-1.4-3.7-1.5-5.1-0.1l-1.1,1.1
		c-0.1-1.9-0.6-3.5-1.9-4.9c-2.4-2.5-6.4-2.7-8.8-0.3c-2.4,2.3-2.3,6.3,0.1,8.8c1.3,1.4,2.9,1.8,4.8,2l-1.1,1.1
		c-1.4,1.4-1.5,3.7-0.1,5.1s3.7,1.5,5.1,0.1l1.3-1.3c-0.5,1.5,0.4,3.6,1.8,5.1c2.4,2.5,6.4,2.6,8.8,0.3
		C269.2,110.1,269.2,106.2,266.7,103.7z M247.7,98.5c-1.7-1.7-1.7-4.3-0.1-5.9c1.6-1.5,4.2-1.4,5.8,0.3c1.7,1.7,1.7,4.3,0.1,5.9
		C252,100.3,249.4,100.2,247.7,98.5z M259.5,110.6c-1.7-1.7-1.7-4.3-0.1-5.9c1.6-1.5,4.2-1.4,5.8,0.3c1.7,1.7,1.7,4.3,0.1,5.9
		C263.8,112.4,261.2,112.3,259.5,110.6z"/>
	<path opacity="0.5" fill="none" stroke="#FFFFFF" stroke-width="2" stroke-miterlimit="10" stroke-dasharray="3" d="M252.5,105.5
		c0,0-21.5,17-14,34.8s-6,37.5-22,40s-16.8,23.2-14,31.8s-3.2,27-24.5,5.2s-19.2-19-41.8-21"/>
</g>
</svg>
