<svg xmlns="http://www.w3.org/2000/svg" viewBox="0 0 461.7 68"><path fill="#212121" d="M172.7 10v34.9L147 10h-1.5c-1.8 3-4.9 7.4-10.9 10.8V63h13V30.5L173.2 63h12.5V10h-13zm-118 0h-7.4L33.5 39.3 19.7 10h-16v53h12V30.4L29.9 59H37l15.7-28.6V63h12V21c-4-3.4-8.2-8-10-11zm141 .6h11.9v53.3h-11.9V10.6zm45.2 10.3v43H229v-43h-15.1V10.6H256v10.3h-15.1zm84.5 29.2c2 2.5 4.7 3.7 8 3.7 3.4 0 6-1.2 8-3.7s2.9-5.8 2.9-10.1V10.6h11.9v29.8c0 7.7-2.1 13.7-6.4 17.8-4.3 4.1-9.7 6.2-16.4 6.2-6.7 0-12.1-2.1-16.4-6.3-4.3-4.2-6.4-10.1-6.4-17.8V10.6h11.9V40c0 4.3 1 7.7 2.9 10.1zm84-21.8c0 8.5-3.4 14.1-10.1 16.5l13.5 19.1h-14.6l-11.8-17h-8.2v17h-11.9V10.6h20.2c8.3 0 14.2 1.4 17.7 4.2s5.2 7.3 5.2 13.5zm-14.3 6.3c1.5-1.3 2.2-3.4 2.2-6.3s-.8-4.8-2.3-5.9c-1.5-1.1-4.2-1.6-8-1.6h-8.9v15.8h8.7c4 0 6.8-.7 8.3-2zm62.5-24v10.6h-26.5v11H455v10.1h-23.9v11.1h27.4v10.5h-39.3V10.6h38.4zM286 10h-11.5l-23 53h13.7c2.7-1 12.1-9.1 26.7-10.4l4.5 10.4H309l-23-53zm-14.9 37.7l9.2-21.2 7.1 16.5c-6.4 1-11.9 2.7-16.3 4.7z"/><linearGradient id="a" gradientUnits="userSpaceOnUse" x1="56.854" y1="34.333" x2="143.337" y2="34.333"><stop offset="0" stop-color="#25dc32"/><stop offset="1" stop-color="#6cf388"/></linearGradient><path fill="url(#a)" d="M143.3 3.6c-18.5 7.6-31.4 6.8-34.6 6.4-2.7-.8-5.5-1.3-8.4-1.3-2.8 0-5.6.4-8.2 1.2-1.8.3-15.2 1.9-35.2-6.3 0 0 2.3 12 19.8 17.9-2.9 4.4-4.6 9.7-4.6 15.4 0 15.6 12.6 28.2 28.2 28.2s28.2-12.6 28.2-28.2c0-5.7-1.7-11-4.6-15.5 17.1-6 19.4-17.8 19.4-17.8zm-43 50.8c-9.6 0-17.3-7.8-17.3-17.3 0-9.6 7.8-17.3 17.3-17.3s17.3 7.8 17.3 17.3-7.8 17.3-17.3 17.3z"/></svg>