<svg width="186" height="26" viewBox="0 0 186 26" xmlns="http://www.w3.org/2000/svg"><title>Monitaure logo</title><g fill="none" fill-rule="evenodd"><path d="M69.273 3.275v14.156L58.47 3.275h-.598c-.729 1.093-1.691 2.92-4.418 4.293v17.556h5.454v-13.58l10.228 13.58h5.045V3.275h-4.91zm-48.475 0h-3.013l-5.63 11.96-5.597-11.96H0v21.849h4.91v-13.64l5.784 12.001h2.892l6.596-12.002v13.64h4.91V7.653c-1.637-1.395-3.551-3.284-4.294-4.377" fill="#DDD"/><path fill="#DEDEDE" d="M78.354 25.186h4.85V3.416h-4.85zM96.776 7.62v17.565h-4.852V7.62h-6.158V3.416h17.167V7.62zm34.481 11.944c.808 1.007 1.897 1.51 3.266 1.51 1.368 0 2.451-.503 3.25-1.51.797-1.006 1.197-2.383 1.197-4.126V3.416h4.852v12.178c0 3.155-.871 5.58-2.613 7.271-1.742 1.693-3.97 2.539-6.686 2.539-2.717 0-4.95-.852-6.703-2.554-1.751-1.702-2.627-4.121-2.627-7.256V3.416h4.851v12.022c0 1.743.405 3.12 1.213 4.126m28.405-6.337c.601-.54.902-1.397.902-2.57 0-1.172-.311-1.977-.934-2.413-.62-.436-1.709-.654-3.265-.654h-3.639v6.446h3.546c1.659 0 2.788-.27 3.39-.81m5.846-2.585c0 3.49-1.379 5.741-4.135 6.759l5.503 7.785h-5.97l-4.82-6.944h-3.36v6.944h-4.85V3.415h8.24c3.38 0 5.79.573 7.231 1.714 1.441 1.142 2.161 2.98 2.161 5.512m19.666-7.225v4.329h-10.823v4.485h9.735v4.142h-9.735v4.516h11.165v4.298H169.5V3.416zM109.098 18.56l3.737-8.653 2.905 6.759a25.23 25.23 0 0 0-6.642 1.895zm6.07-15.285h-4.697l-9.392 21.848h5.584c1.09-.546 4.932-3.697 10.907-4.25l1.826 4.25h5.164l-9.393-21.848zm-72.325-.12a11.478 11.478 0 0 0-3.44-.525c-1.16 0-2.28.174-3.335.494-.746.11-6.218.76-14.371-2.578 0 0 .95 4.884 8.065 7.324a11.471 11.471 0 0 0-1.862 6.279c0 6.362 5.15 11.519 11.503 11.519 6.352 0 11.502-5.157 11.502-11.52 0-2.333-.695-4.503-1.886-6.317C56.033 5.378 56.975.546 56.975.546c-7.557 3.094-12.81 2.762-14.132 2.61M32.34 14.211c0-3.906 3.162-7.073 7.063-7.073 3.9 0 7.063 3.167 7.063 7.073 0 3.906-3.163 7.072-7.063 7.072-3.901 0-7.063-3.166-7.063-7.072"/></g></svg>