<svg width="508" height="185" viewBox="0 0 508 185" xmlns="http://www.w3.org/2000/svg" xmlns:xlink="http://www.w3.org/1999/xlink"><title>Group 26</title><defs><rect id="a" width="508" height="185" rx="5"/><mask id="b" x="0" y="0" width="508" height="185" fill="#fff"><use xlink:href="#a"/></mask></defs><g fill="none" fill-rule="evenodd"><use mask="url(#b)" xlink:href="#a" stroke="#C7C7C7" stroke-width="2" fill="#FFF"/><path d="M58.369 46.05a17.343 17.343 0 0 0-5.267-.814c-1.775 0-3.488.27-5.104.766C46.856 46.174 38.48 47.182 26 42c0 0 1.454 7.582 12.345 11.37a17.991 17.991 0 0 0-2.85 9.747C35.496 72.994 43.38 81 53.103 81c9.725 0 17.607-8.006 17.607-17.883a18 18 0 0 0-2.886-9.808C78.559 49.502 80 42 80 42c-11.568 4.804-19.608 4.288-21.631 4.05M42.292 63.216c0-6.064 4.84-10.98 10.81-10.98 5.97 0 10.812 4.916 10.812 10.98s-4.841 10.98-10.812 10.98c-5.97 0-10.81-4.916-10.81-10.98" fill="#25DC32"/><path d="M105.578 24.938l4.922 13.078 4.91-13.078h3.832V42h-2.953v-5.625l.293-7.523L111.543 42h-2.121l-5.027-13.137.293 7.512V42h-2.954V24.937h3.844zm16.36 10.605c0-1.242.246-2.361.738-3.357.492-.997 1.183-1.762 2.074-2.297.89-.535 1.914-.803 3.07-.803 1.711 0 3.1.55 4.166 1.652 1.067 1.102 1.643 2.563 1.729 4.383l.012.668c0 1.25-.24 2.367-.721 3.352-.48.984-1.168 1.746-2.063 2.285-.894.539-1.927.808-3.1.808-1.788 0-3.22-.595-4.294-1.787-1.074-1.191-1.612-2.779-1.612-4.763v-.141zm2.847.246c0 1.305.27 2.326.809 3.065.539.738 1.289 1.107 2.25 1.107.96 0 1.709-.375 2.244-1.125.535-.75.803-1.848.803-3.293 0-1.281-.276-2.297-.827-3.047-.55-.75-1.298-1.125-2.244-1.125-.93 0-1.668.37-2.215 1.108-.546.738-.82 1.841-.82 3.31zm13.992-6.469l.082 1.465c.938-1.133 2.168-1.7 3.692-1.7 2.64 0 3.984 1.513 4.031 4.536V42h-2.848v-8.215c0-.805-.173-1.4-.521-1.787-.348-.387-.916-.58-1.705-.58-1.149 0-2.004.52-2.567 1.559V42h-2.847V29.32h2.683zM152.512 42h-2.848V29.32h2.848V42zm-3.024-15.973c0-.437.139-.8.416-1.09.278-.289.674-.433 1.19-.433.515 0 .914.144 1.195.433.281.29.422.653.422 1.09 0 .43-.14.787-.422 1.073-.281.285-.68.427-1.195.427-.516 0-.912-.142-1.19-.427-.277-.286-.416-.643-.416-1.073zm9.692.211v3.082h2.238v2.11h-2.238v7.078c0 .484.095.834.287 1.049.191.214.533.322 1.025.322.328 0 .66-.04.996-.117v2.203c-.648.18-1.273.27-1.875.27-2.187 0-3.281-1.208-3.281-3.622V31.43h-2.086v-2.11h2.086v-3.082h2.848zM171.168 42c-.125-.242-.234-.637-.328-1.184-.906.946-2.016 1.418-3.328 1.418-1.274 0-2.313-.363-3.117-1.09-.805-.726-1.208-1.624-1.208-2.695 0-1.351.502-2.388 1.506-3.111 1.004-.723 2.44-1.084 4.307-1.084h1.746v-.832c0-.656-.183-1.182-.55-1.576-.368-.395-.926-.592-1.676-.592-.649 0-1.18.162-1.594.486-.414.324-.621.737-.621 1.237h-2.848c0-.696.23-1.346.691-1.952.461-.605 1.088-1.08 1.881-1.423.793-.344 1.678-.516 2.655-.516 1.484 0 2.668.373 3.55 1.12.883.745 1.336 1.794 1.36 3.146v5.718c0 1.14.16 2.051.48 2.73v.2h-2.906zm-3.129-2.05a3.24 3.24 0 0 0 1.588-.41 2.74 2.74 0 0 0 1.12-1.102v-2.391h-1.536c-1.055 0-1.848.183-2.379.55-.531.368-.797.887-.797 1.56 0 .546.182.982.545 1.306.363.324.85.486 1.46.486zm16.219.808c-.836.984-2.024 1.476-3.563 1.476-1.375 0-2.416-.402-3.123-1.207-.707-.804-1.06-1.968-1.06-3.492V29.32h2.847v8.18c0 1.61.668 2.414 2.004 2.414 1.383 0 2.317-.496 2.801-1.488V29.32h2.848V42h-2.684l-.07-1.242zm12.293-8.836a7.047 7.047 0 0 0-1.16-.094c-1.305 0-2.184.5-2.637 1.5V42h-2.848V29.32h2.719l.07 1.418c.688-1.101 1.64-1.652 2.86-1.652.406 0 .742.055 1.007.164l-.011 2.672zm7.16 10.312c-1.805 0-3.268-.568-4.389-1.705-1.12-1.136-1.681-2.65-1.681-4.54v-.352c0-1.266.244-2.397.732-3.393s1.174-1.771 2.057-2.326c.883-.555 1.867-.832 2.953-.832 1.726 0 3.06.55 4.002 1.652.941 1.102 1.412 2.66 1.412 4.676v1.148h-8.285c.086 1.047.435 1.875 1.049 2.485.613.61 1.384.914 2.314.914 1.305 0 2.367-.527 3.188-1.582l1.535 1.465a5.127 5.127 0 0 1-2.034 1.763c-.847.418-1.798.627-2.853.627zm-.34-10.863c-.781 0-1.412.274-1.892.82-.481.547-.788 1.309-.92 2.286h5.425v-.211c-.062-.954-.316-1.674-.761-2.162-.446-.489-1.063-.733-1.852-.733zm16.254-2.05l.082 1.464c.938-1.133 2.168-1.7 3.691-1.7 2.641 0 3.985 1.513 4.032 4.536V42h-2.848v-8.215c0-.805-.174-1.4-.521-1.787-.348-.387-.916-.58-1.706-.58-1.148 0-2.003.52-2.566 1.559V42h-2.848V29.32h2.684zm10.172 6.222c0-1.242.246-2.361.738-3.357.492-.997 1.184-1.762 2.074-2.297.891-.535 1.914-.803 3.07-.803 1.712 0 3.1.55 4.167 1.652 1.066 1.102 1.642 2.563 1.728 4.383l.012.668c0 1.25-.24 2.367-.72 3.352-.481.984-1.169 1.746-2.063 2.285-.895.539-1.928.808-3.1.808-1.789 0-3.22-.595-4.295-1.787-1.074-1.191-1.611-2.779-1.611-4.763v-.141zm2.848.246c0 1.305.27 2.326.808 3.065.54.738 1.29 1.107 2.25 1.107.961 0 1.71-.375 2.244-1.125.535-.75.803-1.848.803-3.293 0-1.281-.275-2.297-.826-3.047-.551-.75-1.299-1.125-2.244-1.125-.93 0-1.668.37-2.215 1.108-.547.738-.82 1.841-.82 3.31zm14.917-9.55v3.081h2.239v2.11h-2.238v7.078c0 .484.095.834.287 1.049.191.214.533.322 1.025.322.328 0 .66-.04.996-.117v2.203c-.648.18-1.273.27-1.875.27-2.187 0-3.281-1.208-3.281-3.622V31.43h-2.086v-2.11h2.086v-3.082h2.847zM255.005 42h-2.848V29.32h2.848V42zm-3.024-15.973c0-.437.14-.8.416-1.09.278-.289.674-.433 1.19-.433.516 0 .914.144 1.195.433.282.29.422.653.422 1.09 0 .43-.14.787-.422 1.073-.281.285-.68.427-1.195.427-.516 0-.912-.142-1.19-.427-.277-.286-.416-.643-.416-1.073zM258.86 42V31.43h-1.934v-2.11h1.933v-.867c.008-.992.22-1.844.633-2.555.414-.71 1-1.246 1.758-1.605.758-.36 1.668-.54 2.73-.54a7.96 7.96 0 0 1 1.8.2c.574.133 1.17.3 1.786.504l-.433 2.355c-1.078-.375-2.063-.562-2.953-.562-.868 0-1.496.19-1.887.568-.39.38-.586.948-.586 1.705v.797h2.496v2.11h-2.496V42h-2.848zm10.054 0h-2.848V29.32h2.848V42zm8.367-2.04c.711 0 1.301-.206 1.77-.62.469-.414.719-.926.75-1.535h2.683a4.183 4.183 0 0 1-.738 2.209c-.46.683-1.086 1.224-1.875 1.623-.789.398-1.64.597-2.555.597-1.773 0-3.18-.574-4.218-1.722-1.04-1.149-1.559-2.735-1.559-4.758v-.293c0-1.93.516-3.475 1.547-4.635 1.031-1.16 2.437-1.74 4.219-1.74 1.508 0 2.736.44 3.685 1.318.95.88 1.447 2.033 1.494 3.463h-2.683c-.031-.726-.28-1.324-.744-1.793-.465-.469-1.057-.703-1.776-.703-.922 0-1.633.334-2.133 1.002-.5.668-.753 1.682-.761 3.041v.457c0 1.375.248 2.4.744 3.076.496.676 1.213 1.014 2.15 1.014zm14.93 2.04c-.125-.242-.234-.637-.328-1.184-.906.946-2.016 1.418-3.328 1.418-1.274 0-2.313-.363-3.118-1.09-.804-.726-1.207-1.624-1.207-2.695 0-1.351.502-2.388 1.506-3.111 1.004-.723 2.44-1.084 4.307-1.084h1.746v-.832c0-.656-.184-1.182-.55-1.576-.368-.395-.926-.592-1.676-.592-.649 0-1.18.162-1.594.486-.414.324-.621.737-.621 1.237H284.5c0-.696.23-1.346.691-1.952.461-.605 1.088-1.08 1.881-1.423.793-.344 1.678-.516 2.655-.516 1.484 0 2.668.373 3.55 1.12.883.745 1.336 1.794 1.36 3.146v5.718c0 1.14.16 2.051.48 2.73v.2h-2.906zm-3.129-2.05a3.24 3.24 0 0 0 1.588-.41 2.74 2.74 0 0 0 1.12-1.102v-2.391h-1.536c-1.055 0-1.848.183-2.379.55-.531.368-.797.887-.797 1.56 0 .546.182.982.545 1.306.363.324.85.486 1.459.486zm12.106-13.712v3.082h2.238v2.11h-2.238v7.078c0 .484.095.834.287 1.049.191.214.533.322 1.025.322.328 0 .66-.04.996-.117v2.203c-.648.18-1.273.27-1.875.27-2.187 0-3.281-1.208-3.281-3.622V31.43h-2.086v-2.11h2.086v-3.082h2.848zM308.627 42h-2.847V29.32h2.848V42zm-3.023-15.973c0-.437.14-.8.416-1.09.278-.289.674-.433 1.19-.433.516 0 .914.144 1.195.433.282.29.422.653.422 1.09 0 .43-.14.787-.422 1.073-.281.285-.68.427-1.195.427-.516 0-.912-.142-1.19-.427-.277-.286-.416-.643-.416-1.073zm5.59 9.516c0-1.242.246-2.361.739-3.357.492-.997 1.183-1.762 2.074-2.297.89-.535 1.914-.803 3.07-.803 1.711 0 3.1.55 4.166 1.652 1.067 1.102 1.643 2.563 1.729 4.383l.011.668c0 1.25-.24 2.367-.72 3.352-.48.984-1.168 1.746-2.063 2.285-.894.539-1.928.808-3.1.808-1.789 0-3.22-.595-4.294-1.787-1.075-1.191-1.612-2.779-1.612-4.763v-.141zm2.848.246c0 1.305.27 2.326.809 3.065.539.738 1.289 1.107 2.25 1.107.96 0 1.709-.375 2.244-1.125.535-.75.802-1.848.802-3.293 0-1.281-.275-2.297-.826-3.047-.55-.75-1.299-1.125-2.244-1.125-.93 0-1.668.37-2.215 1.108-.547.738-.82 1.841-.82 3.31zm13.992-6.469l.082 1.465c.938-1.133 2.168-1.7 3.692-1.7 2.64 0 3.984 1.513 4.03 4.536V42h-2.847v-8.215c0-.805-.174-1.4-.521-1.787-.348-.387-.916-.58-1.705-.58-1.149 0-2.004.52-2.567 1.559V42h-2.847V29.32h2.683z" fill="#333"/><path d="M111.32 76h-1.696v-5.915h-6.451V76h-1.688V63.203h1.688v5.502h6.451v-5.502h1.696V76zm11.584-11.408h-4.113V76h-1.679V64.592h-4.104v-1.389h9.896v1.389zm10.881 0h-4.113V76h-1.679V64.592h-4.104v-1.389h9.896v1.389zm3.586 6.398V76h-1.687V63.203h4.72c1.4 0 2.497.358 3.29 1.072.795.715 1.192 1.662 1.192 2.84 0 1.241-.388 2.198-1.165 2.869-.776.67-1.888 1.006-3.335 1.006h-3.015zm0-1.38h3.032c.903 0 1.594-.212 2.075-.637.48-.425.72-1.038.72-1.841 0-.762-.24-1.371-.72-1.828-.48-.457-1.14-.695-1.978-.712h-3.129v5.018zm27.914 1.978c-.07 1.418-.422 2.537-1.055 3.357-.632.82-1.479 1.23-2.54 1.23-1.095 0-1.798-.491-2.109-1.476-.316.498-.678.869-1.085 1.112a2.429 2.429 0 0 1-1.262.365c-.832 0-1.462-.34-1.89-1.02-.427-.68-.585-1.62-.474-2.821.088-.967.31-1.83.664-2.588.354-.76.811-1.355 1.37-1.789.56-.434 1.148-.65 1.763-.65.475 0 .9.063 1.274.189.375.126.797.373 1.266.742l-.457 4.87c-.111 1.353.264 2.03 1.125 2.03.662 0 1.198-.328 1.608-.985.41-.656.633-1.511.668-2.566.112-2.28-.312-4.017-1.27-5.212-.958-1.195-2.415-1.793-4.372-1.793-1.178 0-2.224.292-3.138.875-.914.583-1.635 1.425-2.162 2.526-.527 1.102-.823 2.373-.888 3.815-.07 1.453.106 2.714.528 3.784.422 1.069 1.065 1.886 1.929 2.452.864.565 1.909.848 3.133.848.527 0 1.056-.065 1.587-.194.53-.128.97-.295 1.322-.5l.326 1.01c-.364.229-.846.416-1.446.563a7.67 7.67 0 0 1-1.824.22c-1.465 0-2.725-.33-3.78-.99-1.054-.659-1.844-1.608-2.368-2.847-.524-1.24-.751-2.688-.681-4.346.07-1.612.43-3.06 1.08-4.346.651-1.287 1.533-2.28 2.646-2.98 1.114-.7 2.37-1.05 3.77-1.05 1.46 0 2.71.328 3.754.984 1.043.656 1.82 1.603 2.329 2.84.51 1.235.73 2.683.66 4.34zm-9.017.747c-.082.832-.005 1.47.232 1.916.238.445.614.668 1.13.668.351 0 .69-.15 1.015-.448.325-.3.593-.727.804-1.284l.009-.079.404-4.42a2.26 2.26 0 0 0-1.054-.255c-.686 0-1.253.348-1.701 1.046-.448.697-.728 1.649-.84 2.856zm17.543 2.285h6.064V76h-7.76V63.203h1.696V74.62zm9.5 1.38h-1.625v-9.51h1.626V76zm-1.757-12.032a.97.97 0 0 1 .241-.668c.162-.182.4-.273.717-.273.316 0 .556.091.72.273a.96.96 0 0 1 .247.668.929.929 0 0 1-.247.659c-.164.176-.404.264-.72.264-.317 0-.555-.088-.717-.264a.938.938 0 0 1-.241-.66zm12.41 7.383c0 1.453-.334 2.62-1.002 3.502-.668.882-1.565 1.323-2.69 1.323-1.2 0-2.13-.425-2.786-1.275L187.407 76h-1.494V62.5h1.626v5.036c.656-.814 1.562-1.222 2.716-1.222 1.154 0 2.06.437 2.72 1.31.66.873.989 2.068.989 3.586v.14zm-1.626-.185c0-1.107-.214-1.963-.642-2.566-.427-.604-1.043-.906-1.845-.906-1.073 0-1.843.498-2.312 1.494v4.114c.498.996 1.274 1.494 2.33 1.494.778 0 1.385-.302 1.819-.905.433-.604.65-1.512.65-2.725zm8.27-3.217a4.872 4.872 0 0 0-.8-.061c-1.066 0-1.79.454-2.17 1.362V76h-1.626v-9.51h1.582l.026 1.099c.533-.85 1.29-1.275 2.268-1.275.316 0 .556.041.72.124v1.511zm5.274 8.227c-1.29 0-2.338-.424-3.147-1.27-.808-.847-1.213-1.98-1.213-3.397v-.299c0-.943.18-1.786.541-2.527.36-.741.864-1.321 1.512-1.74a3.8 3.8 0 0 1 2.105-.629c1.236 0 2.197.408 2.882 1.222.686.815 1.029 1.98 1.029 3.498v.677h-6.443c.024.937.298 1.695.822 2.272.525.577 1.191.866 2 .866.574 0 1.06-.118 1.459-.352a3.666 3.666 0 0 0 1.046-.932l.993.774c-.797 1.224-1.992 1.837-3.586 1.837zm-.202-8.526c-.657 0-1.207.24-1.653.717-.445.477-.72 1.147-.826 2.008h4.764v-.123c-.047-.826-.27-1.466-.668-1.92-.399-.455-.938-.682-1.617-.682zm8.815 6.144l2.356-7.304h1.66l-3.41 9.51h-1.239l-3.445-9.51h1.661l2.417 7.304zM221.843 76h-1.626v-9.51h1.626V76zm-1.758-12.032a.97.97 0 0 1 .242-.668c.16-.182.4-.273.716-.273.316 0 .557.091.72.273a.96.96 0 0 1 .247.668.929.929 0 0 1-.246.659c-.164.176-.405.264-.721.264-.316 0-.555-.088-.716-.264a.938.938 0 0 1-.242-.66zM226.211 76h-1.626V62.5h1.626V76zm4.368 0h-1.626V62.5h1.626V76zm6.548.176c-1.29 0-2.338-.424-3.147-1.27-.808-.847-1.212-1.98-1.212-3.397v-.299c0-.943.18-1.786.54-2.527.36-.741.864-1.321 1.512-1.74a3.8 3.8 0 0 1 2.105-.629c1.236 0 2.197.408 2.883 1.222.685.815 1.028 1.98 1.028 3.498v.677h-6.442c.023.937.297 1.695.821 2.272.525.577 1.191.866 2 .866.574 0 1.06-.118 1.459-.352a3.666 3.666 0 0 0 1.046-.932l.993.774c-.797 1.224-1.992 1.837-3.586 1.837zm-.202-8.526c-.656 0-1.207.24-1.653.717-.445.477-.72 1.147-.826 2.008h4.764v-.123c-.047-.826-.27-1.466-.668-1.92-.398-.455-.938-.682-1.617-.682zM248.939 76h-1.626v-9.51h1.626V76zm-1.757-12.032a.97.97 0 0 1 .241-.668c.161-.182.4-.273.717-.273.316 0 .556.091.72.273a.96.96 0 0 1 .246.668.929.929 0 0 1-.246.659c-.164.176-.404.264-.72.264-.317 0-.556-.088-.717-.264a.938.938 0 0 1-.241-.66zm9.896 9.51c0-.44-.165-.781-.496-1.024-.332-.244-.909-.453-1.732-.629s-1.476-.387-1.96-.633c-.483-.246-.84-.539-1.072-.879-.232-.34-.347-.744-.347-1.212 0-.78.33-1.439.988-1.978.66-.539 1.502-.809 2.527-.809 1.078 0 1.953.279 2.624.835.67.557 1.006 1.269 1.006 2.136h-1.635c0-.445-.189-.829-.566-1.151-.378-.322-.854-.484-1.429-.484-.591 0-1.054.13-1.388.387a1.217 1.217 0 0 0-.501 1.01c0 .393.155.69.465.889.311.199.872.39 1.684.57.811.182 1.469.4 1.973.651.504.252.877.555 1.12.91.244.354.365.787.365 1.296 0 .85-.34 1.531-1.02 2.044-.68.512-1.56.769-2.645.769-.762 0-1.435-.135-2.021-.405-.586-.269-1.045-.646-1.376-1.129a2.722 2.722 0 0 1-.496-1.569h1.625c.03.545.248.977.655 1.297.407.319.945.479 1.613.479.615 0 1.109-.125 1.481-.374.372-.249.558-.581.558-.997zm16.251-2.127c0 1.453-.334 2.62-1.002 3.502-.668.882-1.564 1.323-2.69 1.323-1.2 0-2.13-.425-2.785-1.275l-.08 1.099h-1.494V62.5h1.626v5.036c.657-.814 1.562-1.222 2.716-1.222 1.154 0 2.061.437 2.72 1.31.66.873.99 2.068.99 3.586v.14zm-1.626-.185c0-1.107-.214-1.963-.641-2.566-.428-.604-1.043-.906-1.846-.906-1.072 0-1.843.498-2.312 1.494v4.114c.498.996 1.275 1.494 2.33 1.494.779 0 1.385-.302 1.819-.905.433-.604.65-1.512.65-2.725zM281.248 76c-.094-.188-.17-.521-.228-1.002-.756.785-1.659 1.178-2.707 1.178-.938 0-1.707-.265-2.308-.796-.6-.53-.9-1.202-.9-2.017 0-.99.376-1.759 1.129-2.307s1.812-.822 3.177-.822h1.582v-.747c0-.568-.17-1.02-.51-1.358-.34-.337-.84-.505-1.503-.505-.58 0-1.066.147-1.459.44-.392.292-.588.647-.588 1.063h-1.635c0-.475.168-.933.505-1.376.337-.442.794-.792 1.371-1.05a4.613 4.613 0 0 1 1.903-.387c1.096 0 1.954.274 2.575.822.621.548.944 1.302.967 2.263v4.377c0 .873.111 1.568.334 2.083V76h-1.705zm-2.698-1.24c.51 0 .993-.131 1.45-.395.457-.263.788-.606.993-1.028v-1.951h-1.274c-1.992 0-2.989.583-2.989 1.749 0 .51.17.908.51 1.195.34.287.777.43 1.31.43zm10.432.089c.58 0 1.087-.176 1.52-.528.435-.351.675-.79.722-1.318h1.538c-.03.545-.217 1.063-.563 1.556a3.705 3.705 0 0 1-1.384 1.177 3.994 3.994 0 0 1-1.833.44c-1.295 0-2.324-.432-3.089-1.297-.765-.864-1.147-2.046-1.147-3.546v-.272c0-.926.17-1.75.51-2.47.34-.72.827-1.28 1.463-1.679.636-.398 1.387-.598 2.255-.598 1.066 0 1.952.32 2.658.958.706.64 1.083 1.468 1.13 2.488h-1.538c-.047-.615-.28-1.12-.7-1.516-.418-.396-.935-.594-1.55-.594-.827 0-1.467.298-1.92.892-.455.595-.682 1.455-.682 2.58v.308c0 1.095.226 1.94.677 2.53.451.593 1.096.889 1.933.889zm8.262-3.252l-1.02 1.063V76H294.6V62.5h1.626v8.165l.87-1.046 2.962-3.129h1.977l-3.7 3.973 4.13 5.537h-1.906l-3.314-4.403zm16.796 3.463c-.633.744-1.561 1.116-2.786 1.116-1.014 0-1.786-.295-2.316-.884-.53-.588-.798-1.46-.804-2.614V66.49h1.626v6.144c0 1.441.586 2.162 1.758 2.162 1.242 0 2.068-.463 2.478-1.389V66.49h1.626V76h-1.547l-.035-.94zm12.085-3.71c0 1.448-.331 2.614-.993 3.499-.662.884-1.559 1.327-2.69 1.327-1.154 0-2.062-.366-2.724-1.099v4.58h-1.626V66.49h1.485l.08 1.055c.661-.82 1.581-1.23 2.759-1.23 1.143 0 2.046.43 2.711 1.291.665.862.998 2.06.998 3.595v.15zm-1.626-.184c0-1.072-.228-1.919-.686-2.54-.457-.621-1.084-.932-1.88-.932-.985 0-1.723.437-2.215 1.31v4.544c.486.867 1.23 1.3 2.232 1.3.78 0 1.4-.308 1.86-.927.459-.618.689-1.536.689-2.755zM338.518 76c-.094-.188-.17-.521-.229-1.002-.756.785-1.658 1.178-2.707 1.178-.937 0-1.707-.265-2.307-.796-.6-.53-.901-1.202-.901-2.017 0-.99.376-1.759 1.13-2.307.752-.548 1.811-.822 3.177-.822h1.582v-.747c0-.568-.17-1.02-.51-1.358-.34-.337-.84-.505-1.503-.505-.58 0-1.066.147-1.459.44-.393.292-.589.647-.589 1.063h-1.635c0-.475.169-.933.506-1.376.337-.442.794-.792 1.37-1.05a4.613 4.613 0 0 1 1.904-.387c1.095 0 1.954.274 2.575.822.621.548.943 1.302.967 2.263v4.377c0 .873.111 1.568.334 2.083V76h-1.705zm-2.699-1.24c.51 0 .993-.131 1.45-.395.458-.263.789-.606.994-1.028v-1.951h-1.275c-1.992 0-2.988.583-2.988 1.749 0 .51.17.908.51 1.195.34.287.776.43 1.31.43zm7.418 1.24v-8.253h-1.503V66.49h1.503v-.975c0-1.02.273-1.808.818-2.365.545-.556 1.315-.835 2.311-.835.375 0 .747.05 1.116.15l-.087 1.318a4.67 4.67 0 0 0-.88-.079c-.527 0-.934.154-1.221.462-.287.307-.43.748-.43 1.322v1.002h2.03v1.257h-2.03V76h-1.627zm7.656-11.813v2.303h1.775v1.257h-1.775v5.898c0 .38.079.666.237.856.158.19.428.286.808.286.188 0 .446-.035.774-.105V76a4.714 4.714 0 0 1-1.248.176c-.727 0-1.275-.22-1.644-.66-.369-.439-.553-1.063-.553-1.871v-5.898h-1.732V66.49h1.732v-2.302h1.626zm7.62 11.989c-1.29 0-2.338-.424-3.147-1.27-.808-.847-1.213-1.98-1.213-3.397v-.299c0-.943.18-1.786.54-2.527.361-.741.865-1.321 1.513-1.74a3.8 3.8 0 0 1 2.105-.629c1.236 0 2.197.408 2.882 1.222.686.815 1.029 1.98 1.029 3.498v.677h-6.443c.024.937.298 1.695.822 2.272.524.577 1.191.866 2 .866.574 0 1.06-.118 1.459-.352a3.666 3.666 0 0 0 1.045-.932l.994.774c-.797 1.224-1.993 1.837-3.586 1.837zm-.202-8.526c-.657 0-1.207.24-1.653.717-.445.477-.72 1.147-.826 2.008h4.764v-.123c-.047-.826-.27-1.466-.668-1.92-.399-.455-.938-.682-1.617-.682zm10.388.3a4.872 4.872 0 0 0-.8-.062c-1.066 0-1.79.454-2.17 1.362V76h-1.626v-9.51h1.582l.026 1.099c.533-.85 1.289-1.275 2.268-1.275.316 0 .556.041.72.124v1.511zm6.53 1.634l.65-6.38h6.558v1.502h-5.177l-.387 3.49c.627-.37 1.339-.554 2.136-.554 1.166 0 2.092.385 2.777 1.155.686.77 1.028 1.812 1.028 3.125 0 1.318-.356 2.357-1.067 3.116-.712.758-1.707 1.138-2.984 1.138-1.131 0-2.054-.314-2.769-.94-.715-.628-1.122-1.495-1.222-2.602h1.539c.1.732.36 1.284.782 1.657.422.372.978.558 1.67.558.756 0 1.349-.258 1.78-.774.43-.515.645-1.227.645-2.136 0-.855-.232-1.542-.698-2.06-.466-.52-1.086-.778-1.86-.778-.708 0-1.265.155-1.67.465l-.43.352-1.3-.334zM102.76 87.49l.045 1.055c.697-.82 1.637-1.23 2.821-1.23 1.33 0 2.235.51 2.716 1.529a3.602 3.602 0 0 1 1.235-1.108c.507-.28 1.106-.422 1.797-.422 2.086 0 3.147 1.105 3.182 3.314V97h-1.626v-6.275c0-.68-.156-1.188-.466-1.525-.31-.337-.832-.506-1.565-.506-.603 0-1.104.18-1.502.54-.399.361-.63.846-.695 1.455V97h-1.635v-6.231c0-1.383-.676-2.075-2.03-2.075-1.066 0-1.796.454-2.188 1.363V97h-1.626v-9.51h1.538zM118.774 97h-1.626v-9.51h1.626V97zm-1.757-12.032a.97.97 0 0 1 .241-.668c.161-.182.4-.273.717-.273.316 0 .556.091.72.273a.96.96 0 0 1 .246.668.929.929 0 0 1-.246.659c-.164.176-.404.264-.72.264-.317 0-.556-.088-.717-.264a.938.938 0 0 1-.241-.66zm5.897 2.522l.053 1.196c.726-.915 1.676-1.372 2.847-1.372 2.01 0 3.024 1.134 3.041 3.402V97h-1.625v-6.293c-.006-.686-.163-1.192-.47-1.52-.308-.329-.787-.493-1.438-.493-.527 0-.99.141-1.388.422-.399.281-.71.65-.932 1.108V97h-1.626v-9.51h1.538zm14.265 8.57c-.633.744-1.562 1.116-2.786 1.116-1.014 0-1.786-.295-2.316-.884-.53-.588-.799-1.46-.805-2.614V87.49h1.626v6.144c0 1.441.586 2.162 1.758 2.162 1.242 0 2.069-.463 2.479-1.389V87.49h1.626V97h-1.547l-.035-.94zm6.258-10.873v2.303h1.775v1.257h-1.775v5.898c0 .38.079.666.237.856.158.19.428.286.808.286.188 0 .446-.035.774-.105V97a4.714 4.714 0 0 1-1.248.176c-.727 0-1.275-.22-1.644-.66-.369-.439-.553-1.063-.553-1.871v-5.898h-1.732V87.49h1.732v-2.302h1.626zm7.62 11.989c-1.29 0-2.338-.424-3.147-1.27-.808-.847-1.213-1.98-1.213-3.397v-.299c0-.943.18-1.786.54-2.527.361-.741.865-1.321 1.513-1.74a3.8 3.8 0 0 1 2.105-.629c1.236 0 2.197.408 2.882 1.222.686.815 1.029 1.98 1.029 3.498v.677h-6.443c.024.937.298 1.695.822 2.272.524.577 1.191.866 2 .866.574 0 1.06-.118 1.459-.352a3.666 3.666 0 0 0 1.045-.932l.994.774c-.797 1.224-1.993 1.837-3.586 1.837zm-.202-8.526c-.657 0-1.208.24-1.653.717-.445.477-.72 1.147-.826 2.008h4.764v-.123c-.047-.826-.27-1.466-.668-1.92-.399-.455-.938-.682-1.617-.682zm11.329 5.828c0-.44-.166-.781-.497-1.024-.331-.244-.908-.453-1.731-.629-.824-.176-1.477-.387-1.96-.633-.484-.246-.841-.539-1.073-.879-.231-.34-.347-.744-.347-1.212 0-.78.33-1.439.989-1.978.66-.539 1.501-.809 2.527-.809 1.078 0 1.952.279 2.623.835.671.557 1.007 1.269 1.007 2.136h-1.635c0-.445-.189-.829-.567-1.151-.378-.322-.854-.484-1.428-.484-.592 0-1.055.13-1.389.387a1.217 1.217 0 0 0-.5 1.01c0 .393.154.69.465.889.31.199.872.39 1.683.57.812.182 1.47.4 1.973.651.504.252.878.555 1.12.91.244.354.366.787.366 1.296 0 .85-.34 1.531-1.02 2.044-.68.512-1.561.769-2.645.769-.762 0-1.436-.135-2.022-.405-.586-.269-1.044-.646-1.375-1.129a2.722 2.722 0 0 1-.497-1.569h1.626c.03.545.248.977.655 1.297.407.319.945.479 1.613.479.615 0 1.108-.125 1.48-.374.373-.249.559-.581.559-.997zm7.77-2.32c0-.932.182-1.77.548-2.514.367-.745.876-1.319 1.53-1.723.653-.404 1.399-.607 2.237-.607 1.295 0 2.342.449 3.142 1.345.8.897 1.2 2.089 1.2 3.577v.115c0 .925-.178 1.756-.532 2.491a4.038 4.038 0 0 1-1.52 1.719c-.66.41-1.417.615-2.273.615-1.289 0-2.333-.448-3.133-1.345-.8-.896-1.2-2.083-1.2-3.56v-.114zm1.634.193c0 1.054.245 1.9.734 2.54.49.638 1.144.958 1.964.958.826 0 1.483-.324 1.969-.972.486-.647.73-1.554.73-2.72 0-1.043-.248-1.888-.743-2.535-.495-.648-1.153-.972-1.973-.972-.803 0-1.45.32-1.943.958-.492.64-.738 1.553-.738 2.743zM181.448 97v-8.253h-1.503V87.49h1.503v-.975c0-1.02.273-1.808.818-2.365.545-.556 1.315-.835 2.311-.835.375 0 .747.05 1.116.15l-.088 1.318a4.67 4.67 0 0 0-.878-.079c-.528 0-.935.154-1.222.462-.287.307-.43.748-.43 1.322v1.002h2.03v1.257h-2.03V97h-1.627zm9.51-4.834c0-1.459.346-2.632 1.037-3.52.692-.888 1.597-1.332 2.716-1.332 1.113 0 1.995.381 2.645 1.143V83.5h1.626V97h-1.494l-.079-1.02c-.65.797-1.555 1.196-2.716 1.196-1.101 0-2-.451-2.693-1.354-.695-.902-1.042-2.08-1.042-3.533v-.123zm1.626.185c0 1.078.223 1.921.668 2.53.445.61 1.06.915 1.846.915 1.03 0 1.784-.463 2.258-1.389V90.04c-.486-.896-1.233-1.345-2.24-1.345-.798 0-1.419.308-1.864.923-.445.615-.668 1.527-.668 2.734zm8.49-.194c0-.931.183-1.77.55-2.513.366-.745.876-1.319 1.529-1.723.653-.404 1.399-.607 2.237-.607 1.295 0 2.342.449 3.142 1.345.8.897 1.2 2.089 1.2 3.577v.115c0 .925-.178 1.756-.532 2.491a4.038 4.038 0 0 1-1.52 1.719c-.66.41-1.417.615-2.273.615-1.289 0-2.333-.448-3.133-1.345-.8-.896-1.2-2.083-1.2-3.56v-.114zm1.635.194c0 1.054.245 1.9.734 2.54.49.638 1.144.958 1.964.958.826 0 1.483-.324 1.969-.972.486-.647.73-1.554.73-2.72 0-1.043-.248-1.888-.743-2.535-.495-.648-1.153-.972-1.973-.972-.803 0-1.45.32-1.943.958-.492.64-.738 1.553-.738 2.743zm17.481 2.408l1.829-7.269h1.626L220.876 97h-1.318l-2.312-7.207-2.25 7.207h-1.318l-2.76-9.51h1.617l1.872 7.12 2.215-7.12h1.31l2.258 7.269zm6.645-7.269l.053 1.196c.726-.915 1.675-1.372 2.847-1.372 2.01 0 3.024 1.134 3.041 3.402V97h-1.626v-6.293c-.005-.686-.162-1.192-.47-1.52-.307-.329-.786-.493-1.437-.493-.527 0-.99.141-1.389.422-.398.281-.708.65-.931 1.108V97h-1.626v-9.51h1.538zm10.6-2.302v2.302h1.775v1.257h-1.775v5.898c0 .38.079.666.237.856.158.19.428.286.808.286.188 0 .446-.035.774-.105V97a4.714 4.714 0 0 1-1.248.176c-.727 0-1.275-.22-1.644-.66-.369-.439-.553-1.063-.553-1.871v-5.898h-1.732V87.49h1.732v-2.302h1.626zM242.875 97h-1.626v-9.51h1.626V97zm-1.758-12.032a.97.97 0 0 1 .242-.668c.161-.182.4-.273.716-.273.317 0 .557.091.72.273a.96.96 0 0 1 .247.668.929.929 0 0 1-.246.659c-.164.176-.404.264-.72.264-.317 0-.556-.088-.717-.264a.938.938 0 0 1-.242-.66zm5.889 2.522l.044 1.055c.697-.82 1.637-1.23 2.821-1.23 1.33 0 2.235.51 2.716 1.529a3.602 3.602 0 0 1 1.235-1.108c.507-.28 1.106-.422 1.797-.422 2.086 0 3.147 1.105 3.182 3.314V97h-1.626v-6.275c0-.68-.155-1.188-.466-1.525-.31-.337-.832-.506-1.564-.506-.604 0-1.105.18-1.503.54-.399.361-.63.846-.695 1.455V97h-1.635v-6.231c0-1.383-.676-2.075-2.03-2.075-1.066 0-1.796.454-2.188 1.363V97h-1.626v-9.51h1.538zm18.193 9.686c-1.289 0-2.338-.424-3.146-1.27-.809-.847-1.213-1.98-1.213-3.397v-.299c0-.943.18-1.786.54-2.527.36-.741.865-1.321 1.512-1.74a3.8 3.8 0 0 1 2.105-.629c1.236 0 2.197.408 2.883 1.222.685.815 1.028 1.98 1.028 3.498v.677h-6.442c.023.937.297 1.695.822 2.272.524.577 1.19.866 2 .866.573 0 1.06-.118 1.458-.352a3.666 3.666 0 0 0 1.046-.932l.993.774c-.797 1.224-1.992 1.837-3.586 1.837zm-.202-8.526c-.656 0-1.207.24-1.652.717-.446.477-.721 1.147-.826 2.008h4.763v-.123c-.047-.826-.27-1.466-.668-1.92-.398-.455-.937-.682-1.617-.682zm5.827 7.497c0-.28.084-.515.25-.703.168-.187.418-.28.752-.28s.588.093.76.28c.173.188.26.422.26.703 0 .27-.087.496-.26.677-.172.182-.426.273-.76.273s-.584-.091-.751-.273a.962.962 0 0 1-.25-.677zM138.76 148.49l.044 1.055c.697-.82 1.637-1.23 2.821-1.23 1.33 0 2.235.51 2.716 1.529a3.602 3.602 0 0 1 1.235-1.108c.507-.28 1.106-.422 1.797-.422 2.086 0 3.147 1.105 3.182 3.314V158h-1.626v-6.275c0-.68-.156-1.188-.466-1.525-.31-.337-.832-.506-1.565-.506-.603 0-1.104.18-1.502.54-.399.361-.63.846-.695 1.455V158h-1.635v-6.231c0-1.383-.676-2.075-2.03-2.075-1.066 0-1.796.454-2.188 1.363V158h-1.626v-9.51h1.538zm13.816 4.667c0-.931.183-1.77.55-2.513.366-.745.875-1.319 1.529-1.723.653-.404 1.399-.607 2.237-.607 1.295 0 2.342.449 3.142 1.345.8.897 1.2 2.089 1.2 3.577v.115c0 .925-.178 1.756-.532 2.491a4.038 4.038 0 0 1-1.52 1.719c-.66.41-1.417.615-2.273.615-1.289 0-2.333-.448-3.133-1.345-.8-.896-1.2-2.083-1.2-3.56v-.114zm1.635.194c0 1.054.245 1.9.734 2.54.49.638 1.144.958 1.964.958.826 0 1.483-.324 1.969-.972.486-.647.73-1.554.73-2.72 0-1.043-.248-1.888-.743-2.535-.495-.648-1.153-.972-1.973-.972-.803 0-1.45.32-1.943.958-.492.64-.738 1.553-.738 2.743zm10.6-4.86l.052 1.195c.727-.915 1.676-1.372 2.848-1.372 2.01 0 3.023 1.134 3.041 3.402V158h-1.626v-6.293c-.006-.686-.163-1.192-.47-1.52-.308-.329-.787-.493-1.437-.493-.528 0-.99.141-1.389.422-.398.281-.709.65-.932 1.108V158h-1.626v-9.51h1.539zM174.97 158h-1.626v-9.51h1.626V158zm-1.758-12.032a.97.97 0 0 1 .242-.668c.16-.182.4-.273.716-.273.316 0 .557.091.72.273a.96.96 0 0 1 .247.668.929.929 0 0 1-.246.659c-.164.176-.405.264-.721.264-.317 0-.555-.088-.716-.264a.938.938 0 0 1-.242-.66zm6.565.22v2.302h1.776v1.257h-1.776v5.898c0 .38.08.666.238.856.158.19.427.286.808.286.188 0 .446-.035.774-.105V158a4.714 4.714 0 0 1-1.248.176c-.727 0-1.275-.22-1.644-.66-.37-.439-.554-1.063-.554-1.871v-5.898h-1.731v-1.257h1.731v-2.303h1.626zM189.323 158c-.094-.188-.17-.521-.228-1.002-.756.785-1.658 1.178-2.707 1.178-.938 0-1.707-.265-2.307-.796-.601-.53-.901-1.202-.901-2.017 0-.99.376-1.759 1.13-2.307.752-.548 1.811-.822 3.176-.822h1.582v-.747c0-.568-.17-1.02-.51-1.358-.34-.337-.84-.505-1.502-.505-.58 0-1.067.147-1.46.44-.392.292-.588.647-.588 1.063h-1.635c0-.475.169-.933.505-1.376.337-.442.794-.792 1.372-1.05a4.613 4.613 0 0 1 1.902-.387c1.096 0 1.954.274 2.576.822.62.548.943 1.302.966 2.263v4.377c0 .873.112 1.568.334 2.083V158h-1.705zm-2.698-1.24c.51 0 .993-.131 1.45-.395.457-.263.788-.606.993-1.028v-1.951h-1.274c-1.992 0-2.988.583-2.988 1.749 0 .51.17.908.51 1.195.34.287.776.43 1.309.43zm12.49.3c-.634.744-1.562 1.116-2.787 1.116-1.014 0-1.786-.295-2.316-.884-.53-.588-.798-1.46-.804-2.614v-6.188h1.626v6.144c0 1.441.586 2.162 1.758 2.162 1.242 0 2.068-.463 2.478-1.389v-6.917h1.626V158h-1.547l-.035-.94zm8.648-7.11a4.872 4.872 0 0 0-.8-.062c-1.067 0-1.79.454-2.171 1.362V158h-1.626v-9.51h1.582l.026 1.099c.534-.85 1.29-1.275 2.268-1.275.316 0 .557.041.72.124v1.511zm5.273 8.226c-1.289 0-2.338-.424-3.146-1.27-.809-.847-1.213-1.98-1.213-3.397v-.299c0-.943.18-1.786.54-2.527.36-.741.865-1.321 1.512-1.74a3.8 3.8 0 0 1 2.105-.629c1.236 0 2.197.408 2.883 1.222.685.815 1.028 1.98 1.028 3.498v.677h-6.442c.023.937.297 1.695.822 2.272.524.577 1.19.866 1.999.866.574 0 1.06-.118 1.459-.352a3.666 3.666 0 0 0 1.046-.932l.993.774c-.797 1.224-1.992 1.837-3.586 1.837zm-.202-8.526c-.656 0-1.207.24-1.652.717-.446.477-.721 1.147-.827 2.008h4.764v-.123c-.047-.826-.27-1.466-.668-1.92-.398-.455-.937-.682-1.617-.682zm5.827 7.497c0-.28.084-.515.25-.703.168-.187.418-.28.752-.28s.587.093.76.28c.173.188.26.422.26.703 0 .27-.087.496-.26.677-.173.182-.426.273-.76.273s-.584-.091-.751-.273a.962.962 0 0 1-.25-.677zm6.469.853h-1.626v-9.51h1.626V158zm-1.758-12.032a.97.97 0 0 1 .242-.668c.16-.182.4-.273.716-.273.316 0 .557.091.72.273a.96.96 0 0 1 .247.668.929.929 0 0 1-.246.659c-.164.176-.405.264-.72.264-.317 0-.556-.088-.717-.264a.938.938 0 0 1-.242-.66zm3.929 7.19c0-.932.183-1.77.55-2.514.365-.745.875-1.319 1.528-1.723.654-.404 1.4-.607 2.237-.607 1.295 0 2.342.449 3.142 1.345.8.897 1.2 2.089 1.2 3.577v.115c0 .925-.177 1.756-.532 2.491a4.038 4.038 0 0 1-1.52 1.719c-.66.41-1.417.615-2.272.615-1.29 0-2.334-.448-3.134-1.345-.8-.896-1.2-2.083-1.2-3.56v-.114zm1.635.193c0 1.054.244 1.9.733 2.54.49.638 1.144.958 1.965.958.826 0 1.482-.324 1.969-.972.486-.647.729-1.554.729-2.72 0-1.043-.248-1.888-.743-2.535-.495-.648-1.152-.972-1.973-.972-.803 0-1.45.32-1.942.958-.492.64-.738 1.553-.738 2.743z" fill="#656565"/><path d="M119.916 153.176c.048-.384.084-.768.084-1.176 0-.408-.036-.792-.084-1.176l2.532-1.98a.605.605 0 0 0 .144-.768l-2.4-4.152a.603.603 0 0 0-.732-.264l-2.988 1.2a8.767 8.767 0 0 0-2.028-1.176l-.456-3.18a.585.585 0 0 0-.588-.504h-4.8c-.3 0-.552.216-.588.504l-.456 3.18a9.22 9.22 0 0 0-2.028 1.176l-2.988-1.2a.585.585 0 0 0-.732.264l-2.4 4.152a.592.592 0 0 0 .144.768l2.532 1.98c-.048.384-.084.78-.084 1.176 0 .396.036.792.084 1.176l-2.532 1.98a.605.605 0 0 0-.144.768l2.4 4.152c.144.264.468.36.732.264l2.988-1.2c.624.48 1.296.876 2.028 1.176l.456 3.18a.585.585 0 0 0 .588.504h4.8c.3 0 .552-.216.588-.504l.456-3.18a9.22 9.22 0 0 0 2.028-1.176l2.988 1.2c.276.108.588 0 .732-.264l2.4-4.152a.605.605 0 0 0-.144-.768l-2.532-1.98zM111 156.2a4.205 4.205 0 0 1-4.2-4.2c0-2.316 1.884-4.2 4.2-4.2 2.316 0 4.2 1.884 4.2 4.2 0 2.316-1.884 4.2-4.2 4.2z" fill="#737373"/><path d="M451.66 41h-8.386v-1.169l4.43-4.922c.656-.744 1.109-1.349 1.358-1.815a3.03 3.03 0 0 0 .374-1.446c0-.668-.203-1.215-.607-1.643-.404-.428-.943-.642-1.617-.642-.809 0-1.437.23-1.885.69-.449.46-.673 1.1-.673 1.92h-1.626c0-1.177.38-2.13 1.139-2.856.758-.726 1.773-1.09 3.045-1.09 1.19 0 2.13.312 2.821.936.692.624 1.037 1.455 1.037 2.492 0 1.26-.802 2.76-2.408 4.5l-3.428 3.718h6.425V41zm10.107 0h-8.385v-1.169l4.43-4.922c.656-.744 1.108-1.349 1.357-1.815a3.03 3.03 0 0 0 .374-1.446c0-.668-.202-1.215-.606-1.643-.405-.428-.944-.642-1.618-.642-.808 0-1.437.23-1.885.69-.448.46-.672 1.1-.672 1.92h-1.626c0-1.177.38-2.13 1.138-2.856.759-.726 1.774-1.09 3.045-1.09 1.19 0 2.13.312 2.822.936.691.624 1.037 1.455 1.037 2.492 0 1.26-.803 2.76-2.408 4.5l-3.428 3.718h6.425V41zm1.837-.853c0-.28.083-.515.25-.703.167-.187.417-.28.751-.28s.588.093.76.28c.174.188.26.422.26.703 0 .27-.086.496-.26.677-.172.182-.426.273-.76.273s-.584-.091-.751-.273a.962.962 0 0 1-.25-.677zm.008-7.76c0-.282.084-.516.25-.703.168-.188.418-.282.752-.282s.588.094.76.282c.173.187.26.421.26.703 0 .27-.087.495-.26.676-.172.182-.426.273-.76.273s-.584-.09-.751-.273a.962.962 0 0 1-.25-.676zm4.984 2.197l.65-6.38h6.557v1.502h-5.177l-.387 3.49c.627-.37 1.34-.554 2.136-.554 1.166 0 2.092.385 2.777 1.155.686.77 1.029 1.812 1.029 3.125 0 1.318-.356 2.357-1.068 3.116-.712.758-1.707 1.138-2.984 1.138-1.131 0-2.054-.314-2.769-.94-.714-.628-1.122-1.495-1.221-2.602h1.538c.1.732.36 1.284.782 1.657.422.372.978.558 1.67.558.756 0 1.349-.258 1.78-.774.43-.515.646-1.227.646-2.136 0-.855-.233-1.542-.699-2.06-.466-.52-1.085-.778-1.859-.778-.709 0-1.266.155-1.67.465l-.43.352-1.301-.334zm17.12-3.041c0 .639-.168 1.207-.505 1.705a3.439 3.439 0 0 1-1.366 1.169c.668.287 1.197.706 1.586 1.257.39.55.585 1.175.585 1.872 0 1.107-.374 1.99-1.121 2.645-.747.657-1.73.985-2.949.985-1.23 0-2.216-.33-2.957-.989-.741-.66-1.112-1.54-1.112-2.641 0-.692.189-1.316.567-1.872.378-.557.9-.979 1.569-1.266a3.354 3.354 0 0 1-1.345-1.169 3.014 3.014 0 0 1-.492-1.696c0-1.078.345-1.934 1.037-2.566.691-.633 1.602-.95 2.733-.95 1.125 0 2.035.317 2.73.95.694.632 1.04 1.488 1.04 2.566zm-1.326 5.968c0-.715-.227-1.298-.682-1.75-.454-.45-1.047-.676-1.78-.676-.732 0-1.32.223-1.761.668-.443.445-.664 1.031-.664 1.758 0 .726.215 1.298.646 1.714.43.416 1.03.624 1.797.624.762 0 1.36-.21 1.793-.629.434-.419.65-.989.65-1.71zm-2.444-8.148c-.638 0-1.155.198-1.551.594-.395.395-.593.933-.593 1.612 0 .65.195 1.177.584 1.578.39.401.91.602 1.56.602s1.17-.2 1.56-.602c.39-.401.585-.927.585-1.578 0-.65-.202-1.18-.607-1.59-.404-.41-.917-.616-1.538-.616z" fill="#656565"/><path d="M507.5 122.5H99.495" stroke="#C7C7C7" stroke-linecap="square"/></g></svg>