<?xml version="1.0" encoding="UTF-8" standalone="no"?>
<svg width="454px" height="255px" viewBox="0 0 454 255" version="1.1" xmlns="http://www.w3.org/2000/svg" xmlns:xlink="http://www.w3.org/1999/xlink">
    <!-- Generator: Sketch 40.1 (33804) - http://www.bohemiancoding.com/sketch -->
    <title>Group 15</title>
    <desc>Created with Sketch.</desc>
    <defs>
        <rect id="path-1" x="0" y="0" width="446" height="69" rx="3"></rect>
        <filter x="-50%" y="-50%" width="200%" height="200%" filterUnits="objectBoundingBox" id="filter-2">
            <feOffset dx="0" dy="2" in="SourceAlpha" result="shadowOffsetOuter1"></feOffset>
            <feGaussianBlur stdDeviation="2" in="shadowOffsetOuter1" result="shadowBlurOuter1"></feGaussianBlur>
            <feColorMatrix values="0 0 0 0 0   0 0 0 0 0   0 0 0 0 0  0 0 0 0.2 0" type="matrix" in="shadowBlurOuter1"></feColorMatrix>
        </filter>
        <rect id="path-3" x="0" y="178" width="408" height="69" rx="3"></rect>
        <filter x="-50%" y="-50%" width="200%" height="200%" filterUnits="objectBoundingBox" id="filter-4">
            <feOffset dx="0" dy="2" in="SourceAlpha" result="shadowOffsetOuter1"></feOffset>
            <feGaussianBlur stdDeviation="2" in="shadowOffsetOuter1" result="shadowBlurOuter1"></feGaussianBlur>
            <feColorMatrix values="0 0 0 0 0   0 0 0 0 0   0 0 0 0 0  0 0 0 0.2 0" type="matrix" in="shadowBlurOuter1"></feColorMatrix>
        </filter>
        <rect id="path-5" x="5.68434189e-14" y="89" width="373" height="69" rx="3"></rect>
        <filter x="-50%" y="-50%" width="200%" height="200%" filterUnits="objectBoundingBox" id="filter-6">
            <feOffset dx="0" dy="2" in="SourceAlpha" result="shadowOffsetOuter1"></feOffset>
            <feGaussianBlur stdDeviation="2" in="shadowOffsetOuter1" result="shadowBlurOuter1"></feGaussianBlur>
            <feColorMatrix values="0 0 0 0 0   0 0 0 0 0   0 0 0 0 0  0 0 0 0.2 0" type="matrix" in="shadowBlurOuter1"></feColorMatrix>
        </filter>
        <circle id="path-7" cx="15.5" cy="15.5" r="15.5"></circle>
        <mask id="mask-8" maskContentUnits="userSpaceOnUse" maskUnits="objectBoundingBox" x="-3" y="-3" width="37" height="37">
            <rect x="-3" y="-3" width="37" height="37" fill="white"></rect>
            <use xlink:href="#path-7" fill="black"></use>
        </mask>
        <circle id="path-9" cx="15.5" cy="15.5" r="15.5"></circle>
        <mask id="mask-10" maskContentUnits="userSpaceOnUse" maskUnits="objectBoundingBox" x="-3" y="-3" width="37" height="37">
            <rect x="-3" y="-3" width="37" height="37" fill="white"></rect>
            <use xlink:href="#path-9" fill="black"></use>
        </mask>
        <circle id="path-11" cx="15.5" cy="15.5" r="15.5"></circle>
        <mask id="mask-12" maskContentUnits="userSpaceOnUse" maskUnits="objectBoundingBox" x="-3" y="-3" width="37" height="37">
            <rect x="-3" y="-3" width="37" height="37" fill="white"></rect>
            <use xlink:href="#path-11" fill="black"></use>
        </mask>
    </defs>
    <g id="Page-1" stroke="none" stroke-width="1" fill="none" fill-rule="evenodd">
        <g id="Monitaure_desktop-Copy-2" transform="translate(-96.000000, -2814.000000)">
            <g id="Group-15" transform="translate(100.000000, 2816.000000)">
                <g id="Rectangle-10">
                    <use fill="black" fill-opacity="1" filter="url(#filter-2)" xlink:href="#path-1"></use>
                    <use fill="#FFFFFF" fill-rule="evenodd" xlink:href="#path-1"></use>
                </g>
                <g id="Rectangle-10-Copy-2">
                    <use fill="black" fill-opacity="1" filter="url(#filter-4)" xlink:href="#path-3"></use>
                    <use fill="#FFFFFF" fill-rule="evenodd" xlink:href="#path-3"></use>
                </g>
                <g id="Rectangle-10-Copy">
                    <use fill="black" fill-opacity="1" filter="url(#filter-6)" xlink:href="#path-5"></use>
                    <use fill="#FFFFFF" fill-rule="evenodd" xlink:href="#path-5"></use>
                </g>
                <g id="Page-1" transform="translate(24.000000, 20.000000)">
                    <g id="Oval-7">
                        <use fill="#FB4343" fill-rule="evenodd" xlink:href="#path-7"></use>
                        <use stroke-opacity="0.75" stroke="#FB4343" mask="url(#mask-8)" stroke-width="6" xlink:href="#path-7"></use>
                        <use stroke="#FFFFFF" stroke-width="2" xlink:href="#path-7"></use>
                    </g>
                    <polygon id="Fill-4" fill="#FFFFFF" points="13.5106087 17.719183 16.8437826 17.719183 16.8437826 6.42931064 13.5106087 6.42931064"></polygon>
                    <polygon id="Fill-6" fill="#FFFFFF" points="13.5106087 23.3457362 16.8437826 23.3457362 16.8437826 20.3499915 13.5106087 20.3499915"></polygon>
                </g>
                <g id="Page-1-Copy" transform="translate(24.000000, 108.000000)">
                    <g id="Oval-7">
                        <use fill="#FB4343" fill-rule="evenodd" xlink:href="#path-9"></use>
                        <use stroke-opacity="0.75" stroke="#FB4343" mask="url(#mask-10)" stroke-width="6" xlink:href="#path-9"></use>
                        <use stroke="#FFFFFF" stroke-width="2" xlink:href="#path-9"></use>
                    </g>
                    <polygon id="Fill-4" fill="#FFFFFF" points="13.5106087 17.719183 16.8437826 17.719183 16.8437826 6.42931064 13.5106087 6.42931064"></polygon>
                    <polygon id="Fill-6" fill="#FFFFFF" points="13.5106087 23.3457362 16.8437826 23.3457362 16.8437826 20.3499915 13.5106087 20.3499915"></polygon>
                </g>
                <path d="M98.578125,40 L96.6933594,40 L96.6933594,33.4277344 L89.5253906,33.4277344 L89.5253906,40 L87.6503906,40 L87.6503906,25.78125 L89.5253906,25.78125 L89.5253906,31.8945312 L96.6933594,31.8945312 L96.6933594,25.78125 L98.578125,25.78125 L98.578125,40 Z M111.449219,27.3242188 L106.878906,27.3242188 L106.878906,40 L105.013672,40 L105.013672,27.3242188 L100.453125,27.3242188 L100.453125,25.78125 L111.449219,25.78125 L111.449219,27.3242188 Z M123.539062,27.3242188 L118.96875,27.3242188 L118.96875,40 L117.103516,40 L117.103516,27.3242188 L112.542969,27.3242188 L112.542969,25.78125 L123.539062,25.78125 L123.539062,27.3242188 Z M127.523438,34.4335938 L127.523438,40 L125.648438,40 L125.648438,25.78125 L130.892578,25.78125 C132.448575,25.78125 133.667639,26.1783814 134.549805,26.9726562 C135.431971,27.7669311 135.873047,28.8183528 135.873047,30.1269531 C135.873047,31.5071684 135.441736,32.5699833 134.579102,33.3154297 C133.716467,34.0608761 132.481128,34.4335938 130.873047,34.4335938 L127.523438,34.4335938 Z M127.523438,32.9003906 L130.892578,32.9003906 C131.895187,32.9003906 132.663409,32.6643904 133.197266,32.1923828 C133.731122,31.7203752 133.998047,31.0384159 133.998047,30.1464844 C133.998047,29.300126 133.731122,28.6230494 133.197266,28.1152344 C132.663409,27.6074193 131.930994,27.3437501 131,27.3242188 L127.523438,27.3242188 L127.523438,32.9003906 Z M142.455078,33.6621094 C140.846997,33.1998675 139.676761,32.6318393 138.944336,31.9580078 C138.21191,31.2841763 137.845703,30.4524789 137.845703,29.4628906 C137.845703,28.3430934 138.29329,27.4169958 139.188477,26.6845703 C140.083663,25.9521448 141.247389,25.5859375 142.679688,25.5859375 C143.656255,25.5859375 144.527014,25.7747377 145.291992,26.1523438 C146.05697,26.5299498 146.649412,27.0507779 147.069336,27.7148438 C147.48926,28.3789096 147.699219,29.1048138 147.699219,29.8925781 L145.814453,29.8925781 C145.814453,29.0331988 145.541018,28.3577499 144.994141,27.8662109 C144.447263,27.374672 143.675786,27.1289062 142.679688,27.1289062 C141.755204,27.1289062 141.034182,27.3323547 140.516602,27.7392578 C139.999021,28.1461609 139.740234,28.7109339 139.740234,29.4335938 C139.740234,30.0130237 139.986,30.5029277 140.477539,30.9033203 C140.969078,31.3037129 141.805658,31.6699202 142.987305,32.0019531 C144.168951,32.333986 145.093421,32.7001933 145.760742,33.1005859 C146.428063,33.5009786 146.92285,33.9680963 147.245117,34.5019531 C147.567384,35.03581 147.728516,35.6640589 147.728516,36.3867188 C147.728516,37.5390683 147.279301,38.4619106 146.380859,39.1552734 C145.482417,39.8486363 144.281258,40.1953125 142.777344,40.1953125 C141.800776,40.1953125 140.889327,40.0081399 140.042969,39.6337891 C139.19661,39.2594382 138.543948,38.746748 138.084961,38.0957031 C137.625974,37.4446582 137.396484,36.7057333 137.396484,35.8789062 L139.28125,35.8789062 C139.28125,36.7382855 139.59863,37.4169897 140.233398,37.9150391 C140.868167,38.4130884 141.716141,38.6621094 142.777344,38.6621094 C143.766932,38.6621094 144.525388,38.4602885 145.052734,38.0566406 C145.580081,37.6529928 145.84375,37.1028681 145.84375,36.40625 C145.84375,35.7096319 145.599612,35.1709003 145.111328,34.7900391 C144.623044,34.4091778 143.737637,34.033205 142.455078,33.6621094 L142.455078,33.6621094 Z M170.404297,35.0976562 C170.326171,36.673185 169.93555,37.9166621 169.232422,38.828125 C168.529293,39.7395879 167.588548,40.1953125 166.410156,40.1953125 C165.192702,40.1953125 164.41146,39.648443 164.066406,38.5546875 C163.714842,39.1080757 163.312828,39.5198554 162.860352,39.7900391 C162.407875,40.0602227 161.940758,40.1953125 161.458984,40.1953125 C160.534501,40.1953125 159.834638,39.8177121 159.359375,39.0625 C158.884112,38.3072879 158.708333,37.2623765 158.832031,35.9277344 C158.929688,34.8535103 159.175454,33.894861 159.569336,33.0517578 C159.963218,32.2086546 160.471026,31.5462264 161.092773,31.0644531 C161.714521,30.5826799 162.367184,30.3417969 163.050781,30.3417969 C163.578128,30.3417969 164.050128,30.4117832 164.466797,30.5517578 C164.883466,30.6917325 165.352211,30.9667948 165.873047,31.3769531 L165.365234,36.7871094 C165.241536,38.2910231 165.658198,39.0429688 166.615234,39.0429688 C167.350915,39.0429688 167.946612,38.6783891 168.402344,37.9492188 C168.858075,37.2200484 169.105469,36.2695371 169.144531,35.0976562 C169.26823,32.5650915 168.797857,30.6347723 167.733398,29.3066406 C166.66894,27.978509 165.04949,27.3144531 162.875,27.3144531 C161.5664,27.3144531 160.404302,27.6383431 159.388672,28.2861328 C158.373042,28.9339225 157.572269,29.8697855 156.986328,31.09375 C156.400388,32.3177145 156.071615,33.7304607 156,35.3320312 C155.921875,36.9466227 156.117185,38.3479758 156.585938,39.5361328 C157.05469,40.7242898 157.769201,41.6324838 158.729492,42.2607422 C159.689783,42.8890005 160.850254,43.203125 162.210938,43.203125 C162.796878,43.203125 163.384437,43.1315111 163.973633,42.9882812 C164.562828,42.8450514 165.052732,42.6595063 165.443359,42.4316406 L165.804688,43.5546875 C165.40104,43.808595 164.865563,44.0169263 164.198242,44.1796875 C163.530921,44.3424487 162.855472,44.4238281 162.171875,44.4238281 C160.544263,44.4238281 159.144537,44.0576208 157.972656,43.3251953 C156.800775,42.5927698 155.923506,41.5380928 155.34082,40.1611328 C154.758135,38.7841728 154.505859,37.1744884 154.583984,35.3320312 C154.66211,33.5416577 155.062496,31.9319733 155.785156,30.5029297 C156.507816,29.0738861 157.487624,27.9703815 158.724609,27.1923828 C159.961595,26.4143841 161.358065,26.0253906 162.914062,26.0253906 C164.535164,26.0253906 165.925124,26.3899703 167.083984,27.1191406 C168.242844,27.8483109 169.105466,28.8997327 169.671875,30.2734375 C170.238284,31.6471423 170.482422,33.2551991 170.404297,35.0976562 L170.404297,35.0976562 Z M160.384766,35.9277344 C160.293619,36.8522182 160.379881,37.5618465 160.643555,38.0566406 C160.907228,38.5514348 161.325518,38.7988281 161.898438,38.7988281 C162.289064,38.7988281 162.665037,38.6328142 163.026367,38.3007812 C163.387697,37.9687483 163.685546,37.4934927 163.919922,36.875 L163.929688,36.7871094 L164.378906,31.875 C164.014321,31.686197 163.6237,31.5917969 163.207031,31.5917969 C162.445309,31.5917969 161.815432,31.9791628 161.317383,32.7539062 C160.819333,33.5286497 160.508464,34.5865818 160.384766,35.9277344 L160.384766,35.9277344 Z M181.605469,33.3886719 L179.867188,35.1953125 L179.867188,40 L177.992188,40 L177.992188,25.78125 L179.867188,25.78125 L179.867188,32.8125 L186.185547,25.78125 L188.451172,25.78125 L182.855469,32.0605469 L188.890625,40 L186.644531,40 L181.605469,33.3886719 Z M192.210938,40 L190.404297,40 L190.404297,29.4335938 L192.210938,29.4335938 L192.210938,40 Z M190.257812,26.6308594 C190.257812,26.3378892 190.34733,26.0904958 190.526367,25.8886719 C190.705405,25.6868479 190.970701,25.5859375 191.322266,25.5859375 C191.67383,25.5859375 191.940754,25.6868479 192.123047,25.8886719 C192.305339,26.0904958 192.396484,26.3378892 192.396484,26.6308594 C192.396484,26.9238296 192.305339,27.1679678 192.123047,27.3632812 C191.940754,27.5585947 191.67383,27.65625 191.322266,27.65625 C190.970701,27.65625 190.705405,27.5585947 190.526367,27.3632812 C190.34733,27.1679678 190.257812,26.9238296 190.257812,26.6308594 L190.257812,26.6308594 Z M196.810547,29.4335938 L196.869141,30.7617188 C197.676436,29.7460887 198.731113,29.2382812 200.033203,29.2382812 C202.266287,29.2382812 203.392578,30.4980343 203.412109,33.0175781 L203.412109,40 L201.605469,40 L201.605469,33.0078125 C201.598958,32.2460899 201.424806,31.6829445 201.083008,31.3183594 C200.741209,30.9537742 200.208988,30.7714844 199.486328,30.7714844 C198.900388,30.7714844 198.38607,30.9277328 197.943359,31.2402344 C197.500649,31.5527359 197.1556,31.9628881 196.908203,32.4707031 L196.908203,40 L195.101562,40 L195.101562,29.4335938 L196.810547,29.4335938 Z M212.289062,37.1972656 C212.289062,36.7089819 212.105145,36.329754 211.737305,36.0595703 C211.369464,35.7893867 210.728195,35.5566416 209.813477,35.3613281 C208.898758,35.1660146 208.172854,34.931642 207.635742,34.6582031 C207.09863,34.3847643 206.701499,34.0592467 206.444336,33.6816406 C206.187173,33.3040346 206.058594,32.8548203 206.058594,32.3339844 C206.058594,31.4680946 206.424801,30.7356801 207.157227,30.1367188 C207.889652,29.5377574 208.825515,29.2382812 209.964844,29.2382812 C211.162766,29.2382812 212.134436,29.5475229 212.879883,30.1660156 C213.625329,30.7845083 213.998047,31.575516 213.998047,32.5390625 L212.181641,32.5390625 C212.181641,32.0442684 211.971682,31.6178403 211.551758,31.2597656 C211.131834,30.9016909 210.602868,30.7226562 209.964844,30.7226562 C209.307288,30.7226562 208.792971,30.865884 208.421875,31.1523438 C208.050779,31.4388035 207.865234,31.8131487 207.865234,32.2753906 C207.865234,32.7115907 208.037759,33.0403635 208.382812,33.2617188 C208.727866,33.483074 209.351232,33.6946604 210.25293,33.8964844 C211.154627,34.0983083 211.885414,34.3391913 212.445312,34.6191406 C213.005211,34.8990899 213.420246,35.2360006 213.69043,35.6298828 C213.960613,36.023765 214.095703,36.5039034 214.095703,37.0703125 C214.095703,38.0143276 213.718103,38.771156 212.962891,39.3408203 C212.207679,39.9104846 211.227871,40.1953125 210.023438,40.1953125 C209.177079,40.1953125 208.428389,40.0455744 207.777344,39.7460938 C207.126299,39.4466131 206.616864,39.028323 206.249023,38.4912109 C205.881183,37.9540989 205.697266,37.37305 205.697266,36.7480469 L207.503906,36.7480469 C207.536458,37.3535187 207.778969,37.8336571 208.231445,38.1884766 C208.683922,38.543296 209.281246,38.7207031 210.023438,38.7207031 C210.707035,38.7207031 211.255532,38.5823582 211.668945,38.3056641 C212.082359,38.02897 212.289062,37.6595075 212.289062,37.1972656 L212.289062,37.1972656 Z M218.255859,30.7128906 C219.056645,29.7298128 220.098301,29.2382812 221.380859,29.2382812 C223.613943,29.2382812 224.740234,30.4980343 224.759766,33.0175781 L224.759766,40 L222.953125,40 L222.953125,33.0078125 C222.946615,32.2460899 222.772463,31.6829445 222.430664,31.3183594 C222.088865,30.9537742 221.556644,30.7714844 220.833984,30.7714844 C220.248044,30.7714844 219.733726,30.9277328 219.291016,31.2402344 C218.848305,31.5527359 218.503256,31.9628881 218.255859,32.4707031 L218.255859,40 L216.449219,40 L216.449219,25 L218.255859,25 L218.255859,30.7128906 Z M233.988281,40 C233.884114,39.7916656 233.799479,39.4205756 233.734375,38.8867188 C232.894527,39.7591189 231.891933,40.1953125 230.726562,40.1953125 C229.684891,40.1953125 228.830407,39.9007191 228.163086,39.3115234 C227.495765,38.7223278 227.162109,37.9752649 227.162109,37.0703125 C227.162109,35.9700466 227.580399,35.1155629 228.416992,34.5068359 C229.253585,33.8981089 230.430331,33.59375 231.947266,33.59375 L233.705078,33.59375 L233.705078,32.7636719 C233.705078,32.1321583 233.516278,31.6292336 233.138672,31.2548828 C232.761066,30.880532 232.204431,30.6933594 231.46875,30.6933594 C230.824216,30.6933594 230.283856,30.8561182 229.847656,31.1816406 C229.411456,31.5071631 229.193359,31.9010394 229.193359,32.3632812 L227.376953,32.3632812 C227.376953,31.8359349 227.564126,31.3264999 227.938477,30.8349609 C228.312827,30.343422 228.820635,29.9544285 229.461914,29.6679688 C230.103193,29.381509 230.807939,29.2382812 231.576172,29.2382812 C232.793626,29.2382812 233.747392,29.5426402 234.4375,30.1513672 C235.127608,30.7600942 235.485677,31.598302 235.511719,32.6660156 L235.511719,37.5292969 C235.511719,38.4993538 235.635415,39.2708305 235.882812,39.84375 L235.882812,40 L233.988281,40 Z M230.990234,38.6230469 C231.556643,38.6230469 232.093747,38.476564 232.601562,38.1835938 C233.109378,37.8906235 233.477212,37.509768 233.705078,37.0410156 L233.705078,34.8730469 L232.289062,34.8730469 C230.07551,34.8730469 228.96875,35.5208269 228.96875,36.8164062 C228.96875,37.3828153 229.15755,37.8255192 229.535156,38.1445312 C229.912762,38.4635433 230.397783,38.6230469 230.990234,38.6230469 L230.990234,38.6230469 Z M244.496094,37.1972656 C244.496094,36.7089819 244.312176,36.329754 243.944336,36.0595703 C243.576496,35.7893867 242.935226,35.5566416 242.020508,35.3613281 C241.10579,35.1660146 240.379885,34.931642 239.842773,34.6582031 C239.305661,34.3847643 238.90853,34.0592467 238.651367,33.6816406 C238.394204,33.3040346 238.265625,32.8548203 238.265625,32.3339844 C238.265625,31.4680946 238.631832,30.7356801 239.364258,30.1367188 C240.096683,29.5377574 241.032546,29.2382812 242.171875,29.2382812 C243.369798,29.2382812 244.341468,29.5475229 245.086914,30.1660156 C245.83236,30.7845083 246.205078,31.575516 246.205078,32.5390625 L244.388672,32.5390625 C244.388672,32.0442684 244.178713,31.6178403 243.758789,31.2597656 C243.338865,30.9016909 242.809899,30.7226562 242.171875,30.7226562 C241.51432,30.7226562 241.000002,30.865884 240.628906,31.1523438 C240.257811,31.4388035 240.072266,31.8131487 240.072266,32.2753906 C240.072266,32.7115907 240.24479,33.0403635 240.589844,33.2617188 C240.934898,33.483074 241.558264,33.6946604 242.459961,33.8964844 C243.361658,34.0983083 244.092445,34.3391913 244.652344,34.6191406 C245.212242,34.8990899 245.627277,35.2360006 245.897461,35.6298828 C246.167645,36.023765 246.302734,36.5039034 246.302734,37.0703125 C246.302734,38.0143276 245.925134,38.771156 245.169922,39.3408203 C244.41471,39.9104846 243.434902,40.1953125 242.230469,40.1953125 C241.38411,40.1953125 240.63542,40.0455744 239.984375,39.7460938 C239.33333,39.4466131 238.823895,39.028323 238.456055,38.4912109 C238.088214,37.9540989 237.904297,37.37305 237.904297,36.7480469 L239.710938,36.7480469 C239.74349,37.3535187 239.986,37.8336571 240.438477,38.1884766 C240.890953,38.543296 241.488278,38.7207031 242.230469,38.7207031 C242.914066,38.7207031 243.462563,38.5823582 243.875977,38.3056641 C244.28939,38.02897 244.496094,37.6595075 244.496094,37.1972656 L244.496094,37.1972656 Z M255.179688,40 C255.07552,39.7916656 254.990886,39.4205756 254.925781,38.8867188 C254.085933,39.7591189 253.083339,40.1953125 251.917969,40.1953125 C250.876297,40.1953125 250.021813,39.9007191 249.354492,39.3115234 C248.687171,38.7223278 248.353516,37.9752649 248.353516,37.0703125 C248.353516,35.9700466 248.771806,35.1155629 249.608398,34.5068359 C250.444991,33.8981089 251.621737,33.59375 253.138672,33.59375 L254.896484,33.59375 L254.896484,32.7636719 C254.896484,32.1321583 254.707684,31.6292336 254.330078,31.2548828 C253.952472,30.880532 253.395837,30.6933594 252.660156,30.6933594 C252.015622,30.6933594 251.475263,30.8561182 251.039062,31.1816406 C250.602862,31.5071631 250.384766,31.9010394 250.384766,32.3632812 L248.568359,32.3632812 C248.568359,31.8359349 248.755532,31.3264999 249.129883,30.8349609 C249.504234,30.343422 250.012041,29.9544285 250.65332,29.6679688 C251.2946,29.381509 251.999345,29.2382812 252.767578,29.2382812 C253.985032,29.2382812 254.938799,29.5426402 255.628906,30.1513672 C256.319014,30.7600942 256.677083,31.598302 256.703125,32.6660156 L256.703125,37.5292969 C256.703125,38.4993538 256.826822,39.2708305 257.074219,39.84375 L257.074219,40 L255.179688,40 Z M252.181641,38.6230469 C252.74805,38.6230469 253.285154,38.476564 253.792969,38.1835938 C254.300784,37.8906235 254.668619,37.509768 254.896484,37.0410156 L254.896484,34.8730469 L253.480469,34.8730469 C251.266916,34.8730469 250.160156,35.5208269 250.160156,36.8164062 C250.160156,37.3828153 250.348956,37.8255192 250.726562,38.1445312 C251.104169,38.4635433 251.58919,38.6230469 252.181641,38.6230469 L252.181641,38.6230469 Z M266.449219,40 L264.642578,40 L264.642578,29.4335938 L266.449219,29.4335938 L266.449219,40 Z M264.496094,26.6308594 C264.496094,26.3378892 264.585611,26.0904958 264.764648,25.8886719 C264.943686,25.6868479 265.208983,25.5859375 265.560547,25.5859375 C265.912111,25.5859375 266.179036,25.6868479 266.361328,25.8886719 C266.543621,26.0904958 266.634766,26.3378892 266.634766,26.6308594 C266.634766,26.9238296 266.543621,27.1679678 266.361328,27.3632812 C266.179036,27.5585947 265.912111,27.65625 265.560547,27.65625 C265.208983,27.65625 264.943686,27.5585947 264.764648,27.3632812 C264.585611,27.1679678 264.496094,26.9238296 264.496094,26.6308594 L264.496094,26.6308594 Z M275.492188,37.1972656 C275.492188,36.7089819 275.30827,36.329754 274.94043,36.0595703 C274.572589,35.7893867 273.93132,35.5566416 273.016602,35.3613281 C272.101883,35.1660146 271.375979,34.931642 270.838867,34.6582031 C270.301755,34.3847643 269.904624,34.0592467 269.647461,33.6816406 C269.390298,33.3040346 269.261719,32.8548203 269.261719,32.3339844 C269.261719,31.4680946 269.627926,30.7356801 270.360352,30.1367188 C271.092777,29.5377574 272.02864,29.2382812 273.167969,29.2382812 C274.365891,29.2382812 275.337561,29.5475229 276.083008,30.1660156 C276.828454,30.7845083 277.201172,31.575516 277.201172,32.5390625 L275.384766,32.5390625 C275.384766,32.0442684 275.174807,31.6178403 274.754883,31.2597656 C274.334959,30.9016909 273.805993,30.7226562 273.167969,30.7226562 C272.510413,30.7226562 271.996096,30.865884 271.625,31.1523438 C271.253904,31.4388035 271.068359,31.8131487 271.068359,32.2753906 C271.068359,32.7115907 271.240884,33.0403635 271.585938,33.2617188 C271.930991,33.483074 272.554357,33.6946604 273.456055,33.8964844 C274.357752,34.0983083 275.088539,34.3391913 275.648438,34.6191406 C276.208336,34.8990899 276.623371,35.2360006 276.893555,35.6298828 C277.163738,36.023765 277.298828,36.5039034 277.298828,37.0703125 C277.298828,38.0143276 276.921228,38.771156 276.166016,39.3408203 C275.410804,39.9104846 274.430996,40.1953125 273.226562,40.1953125 C272.380204,40.1953125 271.631514,40.0455744 270.980469,39.7460938 C270.329424,39.4466131 269.819989,39.028323 269.452148,38.4912109 C269.084308,37.9540989 268.900391,37.37305 268.900391,36.7480469 L270.707031,36.7480469 C270.739583,37.3535187 270.982094,37.8336571 271.43457,38.1884766 C271.887047,38.543296 272.484371,38.7207031 273.226562,38.7207031 C273.91016,38.7207031 274.458657,38.5823582 274.87207,38.3056641 C275.285484,38.02897 275.492188,37.6595075 275.492188,37.1972656 L275.492188,37.1972656 Z M284.164062,34.6289062 C284.164062,33.0078044 284.548173,31.7041065 285.316406,30.7177734 C286.084639,29.7314404 287.090489,29.2382812 288.333984,29.2382812 C289.57097,29.2382812 290.550778,29.6614541 291.273438,30.5078125 L291.273438,25 L293.080078,25 L293.080078,40 L291.419922,40 L291.332031,38.8671875 C290.609371,39.7526086 289.603522,40.1953125 288.314453,40.1953125 C287.090489,40.1953125 286.092777,39.6940154 285.321289,38.6914062 C284.549801,37.6887971 284.164062,36.3802164 284.164062,34.765625 L284.164062,34.6289062 Z M285.970703,34.8339844 C285.970703,36.031907 286.218096,36.9693977 286.712891,37.6464844 C287.207685,38.3235711 287.891272,38.6621094 288.763672,38.6621094 C289.909511,38.6621094 290.746091,38.1477916 291.273438,37.1191406 L291.273438,32.265625 C290.73307,31.2695263 289.903,30.7714844 288.783203,30.7714844 C287.897782,30.7714844 287.207685,31.1132778 286.712891,31.796875 C286.218096,32.4804722 285.970703,33.4928318 285.970703,34.8339844 L285.970703,34.8339844 Z M295.404297,34.6191406 C295.404297,33.5839792 295.607745,32.6529989 296.014648,31.8261719 C296.421552,30.9993448 296.987952,30.3613304 297.713867,29.9121094 C298.439782,29.4628884 299.268225,29.2382812 300.199219,29.2382812 C301.638028,29.2382812 302.801753,29.7363231 303.69043,30.7324219 C304.579106,31.7285206 305.023438,33.0533771 305.023438,34.7070312 L305.023438,34.8339844 C305.023438,35.8626354 304.826499,36.7854777 304.432617,37.6025391 C304.038735,38.4196004 303.47559,39.0559873 302.743164,39.5117188 C302.010739,39.9674502 301.169276,40.1953125 300.21875,40.1953125 C298.786451,40.1953125 297.625981,39.6972706 296.737305,38.7011719 C295.848628,37.7050731 295.404297,36.386727 295.404297,34.7460938 L295.404297,34.6191406 Z M297.220703,34.8339844 C297.220703,36.0058652 297.49251,36.946611 298.036133,37.65625 C298.579755,38.365889 299.307287,38.7207031 300.21875,38.7207031 C301.136723,38.7207031 301.865883,38.3610062 302.40625,37.6416016 C302.946617,36.9221969 303.216797,35.91472 303.216797,34.6191406 C303.216797,33.4602807 302.941735,32.5211625 302.391602,31.8017578 C301.841469,31.0823532 301.110682,30.7226562 300.199219,30.7226562 C299.307287,30.7226562 298.587893,31.0774704 298.041016,31.7871094 C297.494138,32.4967483 297.220703,33.5123632 297.220703,34.8339844 L297.220703,34.8339844 Z M316.644531,37.5097656 L318.675781,29.4335938 L320.482422,29.4335938 L317.40625,40 L315.941406,40 L313.373047,31.9921875 L310.873047,40 L309.408203,40 L306.341797,29.4335938 L308.138672,29.4335938 L310.21875,37.34375 L312.679688,29.4335938 L314.134766,29.4335938 L316.644531,37.5097656 Z M324.027344,29.4335938 L324.085938,30.7617188 C324.893233,29.7460887 325.94791,29.2382812 327.25,29.2382812 C329.483084,29.2382812 330.609375,30.4980343 330.628906,33.0175781 L330.628906,40 L328.822266,40 L328.822266,33.0078125 C328.815755,32.2460899 328.641603,31.6829445 328.299805,31.3183594 C327.958006,30.9537742 327.425785,30.7714844 326.703125,30.7714844 C326.117185,30.7714844 325.602867,30.9277328 325.160156,31.2402344 C324.717446,31.5527359 324.372397,31.9628881 324.125,32.4707031 L324.125,40 L322.318359,40 L322.318359,29.4335938 L324.027344,29.4335938 Z" id="HTTPS-@-Kinshasa-is" fill="#575757"></path>
                <path d="M379.578125,40 L377.693359,40 L377.693359,33.4277344 L370.525391,33.4277344 L370.525391,40 L368.650391,40 L368.650391,25.78125 L370.525391,25.78125 L370.525391,31.8945312 L377.693359,31.8945312 L377.693359,25.78125 L379.578125,25.78125 L379.578125,40 Z M390.945312,33.4277344 L384.783203,33.4277344 L384.783203,38.4667969 L391.941406,38.4667969 L391.941406,40 L382.908203,40 L382.908203,25.78125 L391.84375,25.78125 L391.84375,27.3242188 L384.783203,27.3242188 L384.783203,31.8945312 L390.945312,31.8945312 L390.945312,33.4277344 Z M396.160156,38.4667969 L402.898438,38.4667969 L402.898438,40 L394.275391,40 L394.275391,25.78125 L396.160156,25.78125 L396.160156,38.4667969 Z M406.912109,34.4335938 L406.912109,40 L405.037109,40 L405.037109,25.78125 L410.28125,25.78125 C411.837247,25.78125 413.056311,26.1783814 413.938477,26.9726562 C414.820642,27.7669311 415.261719,28.8183528 415.261719,30.1269531 C415.261719,31.5071684 414.830408,32.5699833 413.967773,33.3154297 C413.105139,34.0608761 411.8698,34.4335938 410.261719,34.4335938 L406.912109,34.4335938 Z M406.912109,32.9003906 L410.28125,32.9003906 C411.283859,32.9003906 412.052081,32.6643904 412.585938,32.1923828 C413.119794,31.7203752 413.386719,31.0384159 413.386719,30.1464844 C413.386719,29.300126 413.119794,28.6230494 412.585938,28.1152344 C412.052081,27.6074193 411.319666,27.3437501 410.388672,27.3242188 L406.912109,27.3242188 L406.912109,32.9003906 Z" id="HELP" fill="#FB4343"></path>
                <path d="M306.578125,131 L304.693359,131 L304.693359,124.427734 L297.525391,124.427734 L297.525391,131 L295.650391,131 L295.650391,116.78125 L297.525391,116.78125 L297.525391,122.894531 L304.693359,122.894531 L304.693359,116.78125 L306.578125,116.78125 L306.578125,131 Z M317.945312,124.427734 L311.783203,124.427734 L311.783203,129.466797 L318.941406,129.466797 L318.941406,131 L309.908203,131 L309.908203,116.78125 L318.84375,116.78125 L318.84375,118.324219 L311.783203,118.324219 L311.783203,122.894531 L317.945312,122.894531 L317.945312,124.427734 Z M323.160156,129.466797 L329.898438,129.466797 L329.898438,131 L321.275391,131 L321.275391,116.78125 L323.160156,116.78125 L323.160156,129.466797 Z M333.912109,125.433594 L333.912109,131 L332.037109,131 L332.037109,116.78125 L337.28125,116.78125 C338.837247,116.78125 340.056311,117.178381 340.938477,117.972656 C341.820642,118.766931 342.261719,119.818353 342.261719,121.126953 C342.261719,122.507168 341.830408,123.569983 340.967773,124.31543 C340.105139,125.060876 338.8698,125.433594 337.261719,125.433594 L333.912109,125.433594 Z M333.912109,123.900391 L337.28125,123.900391 C338.283859,123.900391 339.052081,123.66439 339.585938,123.192383 C340.119794,122.720375 340.386719,122.038416 340.386719,121.146484 C340.386719,120.300126 340.119794,119.623049 339.585938,119.115234 C339.052081,118.607419 338.319666,118.34375 337.388672,118.324219 L333.912109,118.324219 L333.912109,123.900391 Z" id="HELP" fill="#FB4343"></path>
                <path d="M364.587891,212.349609 C364.587891,213.742846 364.353518,214.958654 363.884766,215.99707 C363.416013,217.035487 362.751957,217.828122 361.892578,218.375 C361.033199,218.921878 360.030605,219.195312 358.884766,219.195312 C357.764968,219.195312 356.77214,218.92025 355.90625,218.370117 C355.04036,217.819984 354.368166,217.035487 353.889648,216.016602 C353.41113,214.997716 353.165365,213.817715 353.152344,212.476562 L353.152344,211.451172 C353.152344,210.083978 353.389972,208.876307 353.865234,207.828125 C354.340497,206.779943 355.012691,205.977542 355.881836,205.420898 C356.750981,204.864255 357.745437,204.585938 358.865234,204.585938 C360.004563,204.585938 361.008785,204.861 361.87793,205.411133 C362.747075,205.961266 363.416013,206.758784 363.884766,207.803711 C364.353518,208.848638 364.587891,210.064446 364.587891,211.451172 L364.587891,212.349609 Z M362.722656,211.431641 C362.722656,209.745434 362.384118,208.451502 361.707031,207.549805 C361.029945,206.648107 360.082688,206.197266 358.865234,206.197266 C357.680333,206.197266 356.747725,206.648107 356.067383,207.549805 C355.387041,208.451502 355.037109,209.703117 355.017578,211.304688 L355.017578,212.349609 C355.017578,213.983732 355.360999,215.267899 356.047852,216.202148 C356.734704,217.136398 357.680333,217.603516 358.884766,217.603516 C360.095709,217.603516 361.0332,217.162439 361.697266,216.280273 C362.361331,215.398108 362.703125,214.133472 362.722656,212.486328 L362.722656,211.431641 Z M371.013672,212.388672 L369.275391,214.195312 L369.275391,219 L367.400391,219 L367.400391,204.78125 L369.275391,204.78125 L369.275391,211.8125 L375.59375,204.78125 L377.859375,204.78125 L372.263672,211.060547 L378.298828,219 L376.052734,219 L371.013672,212.388672 Z" id="OK-Copy" fill="#25DC32"></path>
                <path d="M91.8398438,122.662109 C90.2317628,122.199867 89.0615271,121.631839 88.3291016,120.958008 C87.596676,120.284176 87.2304688,119.452479 87.2304688,118.462891 C87.2304688,117.343093 87.6780554,116.416996 88.5732422,115.68457 C89.468429,114.952145 90.6321543,114.585938 92.0644531,114.585938 C93.0410205,114.585938 93.91178,114.774738 94.6767578,115.152344 C95.4417356,115.52995 96.0341776,116.050778 96.4541016,116.714844 C96.8740255,117.37891 97.0839844,118.104814 97.0839844,118.892578 L95.1992188,118.892578 C95.1992188,118.033199 94.925784,117.35775 94.3789062,116.866211 C93.8320285,116.374672 93.0605519,116.128906 92.0644531,116.128906 C91.1399693,116.128906 90.4189479,116.332355 89.9013672,116.739258 C89.3837865,117.146161 89.125,117.710934 89.125,118.433594 C89.125,119.013024 89.3707658,119.502928 89.8623047,119.90332 C90.3538436,120.303713 91.1904238,120.66992 92.3720703,121.001953 C93.5537168,121.333986 94.4781868,121.700193 95.1455078,122.100586 C95.8128289,122.500979 96.3076156,122.968096 96.6298828,123.501953 C96.95215,124.03581 97.1132812,124.664059 97.1132812,125.386719 C97.1132812,126.539068 96.664067,127.461911 95.765625,128.155273 C94.867183,128.848636 93.6660231,129.195312 92.1621094,129.195312 C91.185542,129.195312 90.2740928,129.00814 89.4277344,128.633789 C88.581376,128.259438 87.9287132,127.746748 87.4697266,127.095703 C87.0107399,126.444658 86.78125,125.705733 86.78125,124.878906 L88.6660156,124.878906 C88.6660156,125.738286 88.9833953,126.41699 89.6181641,126.915039 C90.2529329,127.413088 91.1009062,127.662109 92.1621094,127.662109 C93.1516977,127.662109 93.9101536,127.460288 94.4375,127.056641 C94.9648464,126.652993 95.2285156,126.102868 95.2285156,125.40625 C95.2285156,124.709632 94.9843774,124.1709 94.4960938,123.790039 C94.0078101,123.409178 93.1224022,123.033205 91.8398438,122.662109 L91.8398438,122.662109 Z M103.705078,122.662109 C102.096997,122.199867 100.926761,121.631839 100.194336,120.958008 C99.4619104,120.284176 99.0957031,119.452479 99.0957031,118.462891 C99.0957031,117.343093 99.5432898,116.416996 100.438477,115.68457 C101.333663,114.952145 102.497389,114.585938 103.929688,114.585938 C104.906255,114.585938 105.777014,114.774738 106.541992,115.152344 C107.30697,115.52995 107.899412,116.050778 108.319336,116.714844 C108.73926,117.37891 108.949219,118.104814 108.949219,118.892578 L107.064453,118.892578 C107.064453,118.033199 106.791018,117.35775 106.244141,116.866211 C105.697263,116.374672 104.925786,116.128906 103.929688,116.128906 C103.005204,116.128906 102.284182,116.332355 101.766602,116.739258 C101.249021,117.146161 100.990234,117.710934 100.990234,118.433594 C100.990234,119.013024 101.236,119.502928 101.727539,119.90332 C102.219078,120.303713 103.055658,120.66992 104.237305,121.001953 C105.418951,121.333986 106.343421,121.700193 107.010742,122.100586 C107.678063,122.500979 108.17285,122.968096 108.495117,123.501953 C108.817384,124.03581 108.978516,124.664059 108.978516,125.386719 C108.978516,126.539068 108.529301,127.461911 107.630859,128.155273 C106.732417,128.848636 105.531258,129.195312 104.027344,129.195312 C103.050776,129.195312 102.139327,129.00814 101.292969,128.633789 C100.44661,128.259438 99.7939476,127.746748 99.3349609,127.095703 C98.8759743,126.444658 98.6464844,125.705733 98.6464844,124.878906 L100.53125,124.878906 C100.53125,125.738286 100.84863,126.41699 101.483398,126.915039 C102.118167,127.413088 102.966141,127.662109 104.027344,127.662109 C105.016932,127.662109 105.775388,127.460288 106.302734,127.056641 C106.830081,126.652993 107.09375,126.102868 107.09375,125.40625 C107.09375,124.709632 106.849612,124.1709 106.361328,123.790039 C105.873044,123.409178 104.987637,123.033205 103.705078,122.662109 L103.705078,122.662109 Z M122.308594,129 L120.423828,129 L120.423828,122.427734 L113.255859,122.427734 L113.255859,129 L111.380859,129 L111.380859,114.78125 L113.255859,114.78125 L113.255859,120.894531 L120.423828,120.894531 L120.423828,114.78125 L122.308594,114.78125 L122.308594,129 Z M145.912109,124.097656 C145.833984,125.673185 145.443363,126.916662 144.740234,127.828125 C144.037106,128.739588 143.09636,129.195312 141.917969,129.195312 C140.700515,129.195312 139.919273,128.648443 139.574219,127.554688 C139.222654,128.108076 138.82064,128.519855 138.368164,128.790039 C137.915688,129.060223 137.44857,129.195312 136.966797,129.195312 C136.042313,129.195312 135.34245,128.817712 134.867188,128.0625 C134.391925,127.307288 134.216145,126.262376 134.339844,124.927734 C134.4375,123.85351 134.683266,122.894861 135.077148,122.051758 C135.471031,121.208655 135.978838,120.546226 136.600586,120.064453 C137.222334,119.58268 137.874997,119.341797 138.558594,119.341797 C139.08594,119.341797 139.557941,119.411783 139.974609,119.551758 C140.391278,119.691732 140.860023,119.966795 141.380859,120.376953 L140.873047,125.787109 C140.749348,127.291023 141.166011,128.042969 142.123047,128.042969 C142.858728,128.042969 143.454425,127.678389 143.910156,126.949219 C144.365888,126.220048 144.613281,125.269537 144.652344,124.097656 C144.776042,121.565092 144.305669,119.634772 143.241211,118.306641 C142.176752,116.978509 140.557303,116.314453 138.382812,116.314453 C137.074212,116.314453 135.912114,116.638343 134.896484,117.286133 C133.880854,117.933923 133.080081,118.869786 132.494141,120.09375 C131.9082,121.317714 131.579427,122.730461 131.507812,124.332031 C131.429687,125.946623 131.624998,127.347976 132.09375,128.536133 C132.562502,129.72429 133.277013,130.632484 134.237305,131.260742 C135.197596,131.889001 136.358066,132.203125 137.71875,132.203125 C138.30469,132.203125 138.89225,132.131511 139.481445,131.988281 C140.070641,131.845051 140.560545,131.659506 140.951172,131.431641 L141.3125,132.554688 C140.908852,132.808595 140.373376,133.016926 139.706055,133.179688 C139.038734,133.342449 138.363285,133.423828 137.679688,133.423828 C136.052075,133.423828 134.65235,133.057621 133.480469,132.325195 C132.308588,131.59277 131.431318,130.538093 130.848633,129.161133 C130.265948,127.784173 130.013671,126.174488 130.091797,124.332031 C130.169922,122.541658 130.570309,120.931973 131.292969,119.50293 C132.015629,118.073886 132.995437,116.970381 134.232422,116.192383 C135.469407,115.414384 136.865878,115.025391 138.421875,115.025391 C140.042977,115.025391 141.432937,115.38997 142.591797,116.119141 C143.750657,116.848311 144.613278,117.899733 145.179688,119.273438 C145.746097,120.647142 145.990235,122.255199 145.912109,124.097656 L145.912109,124.097656 Z M135.892578,124.927734 C135.801432,125.852218 135.887694,126.561846 136.151367,127.056641 C136.41504,127.551435 136.83333,127.798828 137.40625,127.798828 C137.796877,127.798828 138.17285,127.632814 138.53418,127.300781 C138.89551,126.968748 139.193358,126.493493 139.427734,125.875 L139.4375,125.787109 L139.886719,120.875 C139.522134,120.686197 139.131512,120.591797 138.714844,120.591797 C137.953121,120.591797 137.323245,120.979163 136.825195,121.753906 C136.327146,122.52865 136.016277,123.586582 135.892578,124.927734 L135.892578,124.927734 Z M155.375,123.433594 L155.375,129 L153.5,129 L153.5,114.78125 L158.744141,114.78125 C160.300138,114.78125 161.519201,115.178381 162.401367,115.972656 C163.283533,116.766931 163.724609,117.818353 163.724609,119.126953 C163.724609,120.507168 163.293299,121.569983 162.430664,122.31543 C161.56803,123.060876 160.33269,123.433594 158.724609,123.433594 L155.375,123.433594 Z M155.375,121.900391 L158.744141,121.900391 C159.74675,121.900391 160.514971,121.66439 161.048828,121.192383 C161.582685,120.720375 161.849609,120.038416 161.849609,119.146484 C161.849609,118.300126 161.582685,117.623049 161.048828,117.115234 C160.514971,116.607419 159.782557,116.34375 158.851562,116.324219 L155.375,116.324219 L155.375,121.900391 Z M170.941406,120.054688 C170.667967,120.009114 170.371746,119.986328 170.052734,119.986328 C168.867833,119.986328 168.063804,120.49088 167.640625,121.5 L167.640625,129 L165.833984,129 L165.833984,118.433594 L167.591797,118.433594 L167.621094,119.654297 C168.213545,118.710282 169.05338,118.238281 170.140625,118.238281 C170.492189,118.238281 170.759114,118.283854 170.941406,118.375 L170.941406,120.054688 Z M171.927734,123.619141 C171.927734,122.583979 172.131183,121.652999 172.538086,120.826172 C172.944989,119.999345 173.51139,119.36133 174.237305,118.912109 C174.96322,118.462888 175.791662,118.238281 176.722656,118.238281 C178.161466,118.238281 179.325191,118.736323 180.213867,119.732422 C181.102544,120.728521 181.546875,122.053377 181.546875,123.707031 L181.546875,123.833984 C181.546875,124.862635 181.349937,125.785478 180.956055,126.602539 C180.562173,127.4196 179.999027,128.055987 179.266602,128.511719 C178.534176,128.96745 177.692713,129.195312 176.742188,129.195312 C175.309889,129.195312 174.149419,128.697271 173.260742,127.701172 C172.372066,126.705073 171.927734,125.386727 171.927734,123.746094 L171.927734,123.619141 Z M173.744141,123.833984 C173.744141,125.005865 174.015948,125.946611 174.55957,126.65625 C175.103193,127.365889 175.830725,127.720703 176.742188,127.720703 C177.660161,127.720703 178.38932,127.361006 178.929688,126.641602 C179.470055,125.922197 179.740234,124.91472 179.740234,123.619141 C179.740234,122.460281 179.465172,121.521162 178.915039,120.801758 C178.364906,120.082353 177.634119,119.722656 176.722656,119.722656 C175.830725,119.722656 175.111331,120.07747 174.564453,120.787109 C174.017575,121.496748 173.744141,122.512363 173.744141,123.833984 L173.744141,123.833984 Z M183.373047,123.628906 C183.373047,122.007804 183.757158,120.704106 184.525391,119.717773 C185.293624,118.73144 186.299473,118.238281 187.542969,118.238281 C188.779954,118.238281 189.759762,118.661454 190.482422,119.507812 L190.482422,114 L192.289062,114 L192.289062,129 L190.628906,129 L190.541016,127.867188 C189.818356,128.752609 188.812506,129.195312 187.523438,129.195312 C186.299473,129.195312 185.301762,128.694015 184.530273,127.691406 C183.758785,126.688797 183.373047,125.380216 183.373047,123.765625 L183.373047,123.628906 Z M185.179688,123.833984 C185.179688,125.031907 185.427081,125.969398 185.921875,126.646484 C186.416669,127.323571 187.100256,127.662109 187.972656,127.662109 C189.118495,127.662109 189.955075,127.147792 190.482422,126.119141 L190.482422,121.265625 C189.942055,120.269526 189.111985,119.771484 187.992188,119.771484 C187.106766,119.771484 186.416669,120.113278 185.921875,120.796875 C185.427081,121.480472 185.179688,122.492832 185.179688,123.833984 L185.179688,123.833984 Z M202.005859,129 L200.199219,129 L200.199219,118.433594 L202.005859,118.433594 L202.005859,129 Z M200.052734,115.630859 C200.052734,115.337889 200.142252,115.090496 200.321289,114.888672 C200.500326,114.686848 200.765623,114.585938 201.117188,114.585938 C201.468752,114.585938 201.735676,114.686848 201.917969,114.888672 C202.100261,115.090496 202.191406,115.337889 202.191406,115.630859 C202.191406,115.92383 202.100261,116.167968 201.917969,116.363281 C201.735676,116.558595 201.468752,116.65625 201.117188,116.65625 C200.765623,116.65625 200.500326,116.558595 200.321289,116.363281 C200.142252,116.167968 200.052734,115.92383 200.052734,115.630859 L200.052734,115.630859 Z M211.048828,126.197266 C211.048828,125.708982 210.864911,125.329754 210.49707,125.05957 C210.12923,124.789387 209.48796,124.556642 208.573242,124.361328 C207.658524,124.166015 206.93262,123.931642 206.395508,123.658203 C205.858396,123.384764 205.461264,123.059247 205.204102,122.681641 C204.946939,122.304035 204.818359,121.85482 204.818359,121.333984 C204.818359,120.468095 205.184567,119.73568 205.916992,119.136719 C206.649418,118.537757 207.585281,118.238281 208.724609,118.238281 C209.922532,118.238281 210.894202,118.547523 211.639648,119.166016 C212.385095,119.784508 212.757812,120.575516 212.757812,121.539062 L210.941406,121.539062 C210.941406,121.044268 210.731447,120.61784 210.311523,120.259766 C209.891599,119.901691 209.362633,119.722656 208.724609,119.722656 C208.067054,119.722656 207.552736,119.865884 207.181641,120.152344 C206.810545,120.438804 206.625,120.813149 206.625,121.275391 C206.625,121.711591 206.797524,122.040363 207.142578,122.261719 C207.487632,122.483074 208.110998,122.69466 209.012695,122.896484 C209.914393,123.098308 210.645179,123.339191 211.205078,123.619141 C211.764977,123.89909 212.180012,124.236001 212.450195,124.629883 C212.720379,125.023765 212.855469,125.503903 212.855469,126.070312 C212.855469,127.014328 212.477868,127.771156 211.722656,128.34082 C210.967444,128.910485 209.987636,129.195312 208.783203,129.195312 C207.936845,129.195312 207.188154,129.045574 206.537109,128.746094 C205.886064,128.446613 205.376629,128.028323 205.008789,127.491211 C204.640949,126.954099 204.457031,126.37305 204.457031,125.748047 L206.263672,125.748047 C206.296224,126.353519 206.538735,126.833657 206.991211,127.188477 C207.443687,127.543296 208.041012,127.720703 208.783203,127.720703 C209.4668,127.720703 210.015297,127.582358 210.428711,127.305664 C210.842124,127.02897 211.048828,126.659508 211.048828,126.197266 L211.048828,126.197266 Z M219.720703,123.628906 C219.720703,122.007804 220.104814,120.704106 220.873047,119.717773 C221.64128,118.73144 222.647129,118.238281 223.890625,118.238281 C225.12761,118.238281 226.107418,118.661454 226.830078,119.507812 L226.830078,114 L228.636719,114 L228.636719,129 L226.976562,129 L226.888672,127.867188 C226.166012,128.752609 225.160163,129.195312 223.871094,129.195312 C222.647129,129.195312 221.649418,128.694015 220.87793,127.691406 C220.106441,126.688797 219.720703,125.380216 219.720703,123.765625 L219.720703,123.628906 Z M221.527344,123.833984 C221.527344,125.031907 221.774737,125.969398 222.269531,126.646484 C222.764325,127.323571 223.447912,127.662109 224.320312,127.662109 C225.466152,127.662109 226.302732,127.147792 226.830078,126.119141 L226.830078,121.265625 C226.289711,120.269526 225.459641,119.771484 224.339844,119.771484 C223.454423,119.771484 222.764325,120.113278 222.269531,120.796875 C221.774737,121.480472 221.527344,122.492832 221.527344,123.833984 L221.527344,123.833984 Z M230.960938,123.619141 C230.960938,122.583979 231.164386,121.652999 231.571289,120.826172 C231.978192,119.999345 232.544593,119.36133 233.270508,118.912109 C233.996423,118.462888 234.824865,118.238281 235.755859,118.238281 C237.194669,118.238281 238.358394,118.736323 239.24707,119.732422 C240.135747,120.728521 240.580078,122.053377 240.580078,123.707031 L240.580078,123.833984 C240.580078,124.862635 240.38314,125.785478 239.989258,126.602539 C239.595376,127.4196 239.03223,128.055987 238.299805,128.511719 C237.567379,128.96745 236.725916,129.195312 235.775391,129.195312 C234.343092,129.195312 233.182622,128.697271 232.293945,127.701172 C231.405269,126.705073 230.960938,125.386727 230.960938,123.746094 L230.960938,123.619141 Z M232.777344,123.833984 C232.777344,125.005865 233.049151,125.946611 233.592773,126.65625 C234.136396,127.365889 234.863928,127.720703 235.775391,127.720703 C236.693364,127.720703 237.422523,127.361006 237.962891,126.641602 C238.503258,125.922197 238.773438,124.91472 238.773438,123.619141 C238.773438,122.460281 238.498375,121.521162 237.948242,120.801758 C237.398109,120.082353 236.667322,119.722656 235.755859,119.722656 C234.863928,119.722656 234.144534,120.07747 233.597656,120.787109 C233.050779,121.496748 232.777344,122.512363 232.777344,123.833984 L232.777344,123.833984 Z M252.201172,126.509766 L254.232422,118.433594 L256.039062,118.433594 L252.962891,129 L251.498047,129 L248.929688,120.992188 L246.429688,129 L244.964844,129 L241.898438,118.433594 L243.695312,118.433594 L245.775391,126.34375 L248.236328,118.433594 L249.691406,118.433594 L252.201172,126.509766 Z M259.583984,118.433594 L259.642578,119.761719 C260.449874,118.746089 261.504551,118.238281 262.806641,118.238281 C265.039725,118.238281 266.166016,119.498034 266.185547,122.017578 L266.185547,129 L264.378906,129 L264.378906,122.007812 C264.372396,121.24609 264.198244,120.682945 263.856445,120.318359 C263.514647,119.953774 262.982425,119.771484 262.259766,119.771484 C261.673825,119.771484 261.159507,119.927733 260.716797,120.240234 C260.274086,120.552736 259.929038,120.962888 259.681641,121.470703 L259.681641,129 L257.875,129 L257.875,118.433594 L259.583984,118.433594 Z" id="SSH-@-Prod-is-down" fill="#575757"></path>
                <path d="M98.578125,218 L96.6933594,218 L96.6933594,211.427734 L89.5253906,211.427734 L89.5253906,218 L87.6503906,218 L87.6503906,203.78125 L89.5253906,203.78125 L89.5253906,209.894531 L96.6933594,209.894531 L96.6933594,203.78125 L98.578125,203.78125 L98.578125,218 Z M111.449219,205.324219 L106.878906,205.324219 L106.878906,218 L105.013672,218 L105.013672,205.324219 L100.453125,205.324219 L100.453125,203.78125 L111.449219,203.78125 L111.449219,205.324219 Z M123.539062,205.324219 L118.96875,205.324219 L118.96875,218 L117.103516,218 L117.103516,205.324219 L112.542969,205.324219 L112.542969,203.78125 L123.539062,203.78125 L123.539062,205.324219 Z M127.523438,212.433594 L127.523438,218 L125.648438,218 L125.648438,203.78125 L130.892578,203.78125 C132.448575,203.78125 133.667639,204.178381 134.549805,204.972656 C135.431971,205.766931 135.873047,206.818353 135.873047,208.126953 C135.873047,209.507168 135.441736,210.569983 134.579102,211.31543 C133.716467,212.060876 132.481128,212.433594 130.873047,212.433594 L127.523438,212.433594 Z M127.523438,210.900391 L130.892578,210.900391 C131.895187,210.900391 132.663409,210.66439 133.197266,210.192383 C133.731122,209.720375 133.998047,209.038416 133.998047,208.146484 C133.998047,207.300126 133.731122,206.623049 133.197266,206.115234 C132.663409,205.607419 131.930994,205.34375 131,205.324219 L127.523438,205.324219 L127.523438,210.900391 Z M158.539062,213.097656 C158.460937,214.673185 158.070316,215.916662 157.367188,216.828125 C156.664059,217.739588 155.723313,218.195312 154.544922,218.195312 C153.327468,218.195312 152.546226,217.648443 152.201172,216.554688 C151.849608,217.108076 151.447593,217.519855 150.995117,217.790039 C150.542641,218.060223 150.075523,218.195312 149.59375,218.195312 C148.669266,218.195312 147.969403,217.817712 147.494141,217.0625 C147.018878,216.307288 146.843098,215.262376 146.966797,213.927734 C147.064454,212.85351 147.310219,211.894861 147.704102,211.051758 C148.097984,210.208655 148.605791,209.546226 149.227539,209.064453 C149.849287,208.58268 150.50195,208.341797 151.185547,208.341797 C151.712893,208.341797 152.184894,208.411783 152.601562,208.551758 C153.018231,208.691732 153.486977,208.966795 154.007812,209.376953 L153.5,214.787109 C153.376301,216.291023 153.792964,217.042969 154.75,217.042969 C155.485681,217.042969 156.081378,216.678389 156.537109,215.949219 C156.992841,215.220048 157.240234,214.269537 157.279297,213.097656 C157.402995,210.565092 156.932623,208.634772 155.868164,207.306641 C154.803706,205.978509 153.184256,205.314453 151.009766,205.314453 C149.701165,205.314453 148.539068,205.638343 147.523438,206.286133 C146.507807,206.933923 145.707034,207.869786 145.121094,209.09375 C144.535153,210.317714 144.206381,211.730461 144.134766,213.332031 C144.05664,214.946623 144.251951,216.347976 144.720703,217.536133 C145.189455,218.72429 145.903967,219.632484 146.864258,220.260742 C147.824549,220.889001 148.985019,221.203125 150.345703,221.203125 C150.931644,221.203125 151.519203,221.131511 152.108398,220.988281 C152.697594,220.845051 153.187498,220.659506 153.578125,220.431641 L153.939453,221.554688 C153.535805,221.808595 153.000329,222.016926 152.333008,222.179688 C151.665687,222.342449 150.990238,222.423828 150.306641,222.423828 C148.679028,222.423828 147.279303,222.057621 146.107422,221.325195 C144.935541,220.59277 144.058271,219.538093 143.475586,218.161133 C142.892901,216.784173 142.640625,215.174488 142.71875,213.332031 C142.796875,211.541658 143.197262,209.931973 143.919922,208.50293 C144.642582,207.073886 145.62239,205.970381 146.859375,205.192383 C148.09636,204.414384 149.492831,204.025391 151.048828,204.025391 C152.66993,204.025391 154.05989,204.38997 155.21875,205.119141 C156.37761,205.848311 157.240232,206.899733 157.806641,208.273438 C158.37305,209.647142 158.617188,211.255199 158.539062,213.097656 L158.539062,213.097656 Z M148.519531,213.927734 C148.428385,214.852218 148.514647,215.561846 148.77832,216.056641 C149.041994,216.551435 149.460284,216.798828 150.033203,216.798828 C150.42383,216.798828 150.799803,216.632814 151.161133,216.300781 C151.522463,215.968748 151.820311,215.493493 152.054688,214.875 L152.064453,214.787109 L152.513672,209.875 C152.149087,209.686197 151.758466,209.591797 151.341797,209.591797 C150.580074,209.591797 149.950198,209.979163 149.452148,210.753906 C148.954099,211.52865 148.64323,212.586582 148.519531,213.927734 L148.519531,213.927734 Z M177.054688,218 L175.169922,218 L175.169922,211.427734 L168.001953,211.427734 L168.001953,218 L166.126953,218 L166.126953,203.78125 L168.001953,203.78125 L168.001953,209.894531 L175.169922,209.894531 L175.169922,203.78125 L177.054688,203.78125 L177.054688,218 Z M186.625,218 C186.520833,217.791666 186.436198,217.420576 186.371094,216.886719 C185.531246,217.759119 184.528652,218.195312 183.363281,218.195312 C182.321609,218.195312 181.467126,217.900719 180.799805,217.311523 C180.132484,216.722328 179.798828,215.975265 179.798828,215.070312 C179.798828,213.970047 180.217118,213.115563 181.053711,212.506836 C181.890304,211.898109 183.06705,211.59375 184.583984,211.59375 L186.341797,211.59375 L186.341797,210.763672 C186.341797,210.132158 186.152997,209.629234 185.775391,209.254883 C185.397785,208.880532 184.84115,208.693359 184.105469,208.693359 C183.460934,208.693359 182.920575,208.856118 182.484375,209.181641 C182.048175,209.507163 181.830078,209.901039 181.830078,210.363281 L180.013672,210.363281 C180.013672,209.835935 180.200844,209.3265 180.575195,208.834961 C180.949546,208.343422 181.457354,207.954429 182.098633,207.667969 C182.739912,207.381509 183.444658,207.238281 184.212891,207.238281 C185.430345,207.238281 186.384111,207.54264 187.074219,208.151367 C187.764326,208.760094 188.122396,209.598302 188.148438,210.666016 L188.148438,215.529297 C188.148438,216.499354 188.272134,217.27083 188.519531,217.84375 L188.519531,218 L186.625,218 Z M183.626953,216.623047 C184.193362,216.623047 184.730466,216.476564 185.238281,216.183594 C185.746096,215.890624 186.113931,215.509768 186.341797,215.041016 L186.341797,212.873047 L184.925781,212.873047 C182.712229,212.873047 181.605469,213.520827 181.605469,214.816406 C181.605469,215.382815 181.794269,215.825519 182.171875,216.144531 C182.549481,216.463543 183.034502,216.623047 183.626953,216.623047 L183.626953,216.623047 Z M192.689453,207.433594 L192.748047,208.761719 C193.555343,207.746089 194.61002,207.238281 195.912109,207.238281 C198.145193,207.238281 199.271484,208.498034 199.291016,211.017578 L199.291016,218 L197.484375,218 L197.484375,211.007812 C197.477865,210.24609 197.303713,209.682945 196.961914,209.318359 C196.620115,208.953774 196.087894,208.771484 195.365234,208.771484 C194.779294,208.771484 194.264976,208.927733 193.822266,209.240234 C193.379555,209.552736 193.034506,209.962888 192.787109,210.470703 L192.787109,218 L190.980469,218 L190.980469,207.433594 L192.689453,207.433594 Z M201.537109,212.619141 C201.537109,211.583979 201.740558,210.652999 202.147461,209.826172 C202.554364,208.999345 203.120765,208.36133 203.84668,207.912109 C204.572595,207.462888 205.401037,207.238281 206.332031,207.238281 C207.770841,207.238281 208.934566,207.736323 209.823242,208.732422 C210.711919,209.728521 211.15625,211.053377 211.15625,212.707031 L211.15625,212.833984 C211.15625,213.862635 210.959312,214.785478 210.56543,215.602539 C210.171548,216.4196 209.608402,217.055987 208.875977,217.511719 C208.143551,217.96745 207.302088,218.195312 206.351562,218.195312 C204.919264,218.195312 203.758794,217.697271 202.870117,216.701172 C201.981441,215.705073 201.537109,214.386727 201.537109,212.746094 L201.537109,212.619141 Z M203.353516,212.833984 C203.353516,214.005865 203.625323,214.946611 204.168945,215.65625 C204.712568,216.365889 205.4401,216.720703 206.351562,216.720703 C207.269536,216.720703 207.998695,216.361006 208.539062,215.641602 C209.07943,214.922197 209.349609,213.91472 209.349609,212.619141 C209.349609,211.460281 209.074547,210.521162 208.524414,209.801758 C207.974281,209.082353 207.243494,208.722656 206.332031,208.722656 C205.4401,208.722656 204.720706,209.07747 204.173828,209.787109 C203.62695,210.496748 203.353516,211.512363 203.353516,212.833984 L203.353516,212.833984 Z M215.384766,218 L213.568359,218 L213.568359,207.433594 L215.384766,207.433594 L215.384766,218 Z M211.390625,204.621094 C211.390625,204.328124 211.480142,204.082358 211.65918,203.883789 C211.838217,203.68522 212.103514,203.585938 212.455078,203.585938 C212.806642,203.585938 213.073567,203.68522 213.255859,203.883789 C213.438152,204.082358 213.529297,204.328124 213.529297,204.621094 C213.529297,204.914064 213.438152,205.158202 213.255859,205.353516 C213.073567,205.548829 212.806642,205.646484 212.455078,205.646484 C212.103514,205.646484 211.838217,205.548829 211.65918,205.353516 C211.480142,205.158202 211.390625,204.914064 211.390625,204.621094 L211.390625,204.621094 Z M215.589844,204.640625 C215.589844,204.347655 215.679361,204.100261 215.858398,203.898438 C216.037436,203.696614 216.302733,203.595703 216.654297,203.595703 C217.005861,203.595703 217.272786,203.696614 217.455078,203.898438 C217.637371,204.100261 217.728516,204.347655 217.728516,204.640625 C217.728516,204.933595 217.637371,205.177733 217.455078,205.373047 C217.272786,205.56836 217.005861,205.666016 216.654297,205.666016 C216.302733,205.666016 216.037436,205.56836 215.858398,205.373047 C215.679361,205.177733 215.589844,204.933595 215.589844,204.640625 L215.589844,204.640625 Z M225.277344,218 L223.470703,218 L223.470703,207.433594 L225.277344,207.433594 L225.277344,218 Z M223.324219,204.630859 C223.324219,204.337889 223.413736,204.090496 223.592773,203.888672 C223.771811,203.686848 224.037108,203.585938 224.388672,203.585938 C224.740236,203.585938 225.007161,203.686848 225.189453,203.888672 C225.371746,204.090496 225.462891,204.337889 225.462891,204.630859 C225.462891,204.92383 225.371746,205.167968 225.189453,205.363281 C225.007161,205.558595 224.740236,205.65625 224.388672,205.65625 C224.037108,205.65625 223.771811,205.558595 223.592773,205.363281 C223.413736,205.167968 223.324219,204.92383 223.324219,204.630859 L223.324219,204.630859 Z M234.320312,215.197266 C234.320312,214.708982 234.136395,214.329754 233.768555,214.05957 C233.400714,213.789387 232.759445,213.556642 231.844727,213.361328 C230.930008,213.166015 230.204104,212.931642 229.666992,212.658203 C229.12988,212.384764 228.732749,212.059247 228.475586,211.681641 C228.218423,211.304035 228.089844,210.85482 228.089844,210.333984 C228.089844,209.468095 228.456051,208.73568 229.188477,208.136719 C229.920902,207.537757 230.856765,207.238281 231.996094,207.238281 C233.194016,207.238281 234.165686,207.547523 234.911133,208.166016 C235.656579,208.784508 236.029297,209.575516 236.029297,210.539062 L234.212891,210.539062 C234.212891,210.044268 234.002932,209.61784 233.583008,209.259766 C233.163084,208.901691 232.634118,208.722656 231.996094,208.722656 C231.338538,208.722656 230.824221,208.865884 230.453125,209.152344 C230.082029,209.438804 229.896484,209.813149 229.896484,210.275391 C229.896484,210.711591 230.069009,211.040363 230.414062,211.261719 C230.759116,211.483074 231.382482,211.69466 232.28418,211.896484 C233.185877,212.098308 233.916664,212.339191 234.476562,212.619141 C235.036461,212.89909 235.451496,213.236001 235.72168,213.629883 C235.991863,214.023765 236.126953,214.503903 236.126953,215.070312 C236.126953,216.014328 235.749353,216.771156 234.994141,217.34082 C234.238929,217.910485 233.259121,218.195312 232.054688,218.195312 C231.208329,218.195312 230.459639,218.045574 229.808594,217.746094 C229.157549,217.446613 228.648114,217.028323 228.280273,216.491211 C227.912433,215.954099 227.728516,215.37305 227.728516,214.748047 L229.535156,214.748047 C229.567708,215.353519 229.810219,215.833657 230.262695,216.188477 C230.715172,216.543296 231.312496,216.720703 232.054688,216.720703 C232.738285,216.720703 233.286782,216.582358 233.700195,216.305664 C234.113609,216.02897 234.320312,215.659508 234.320312,215.197266 L234.320312,215.197266 Z M252.376953,212.833984 C252.376953,214.448576 252.005863,215.745763 251.263672,216.725586 C250.521481,217.705409 249.525397,218.195312 248.275391,218.195312 C246.940749,218.195312 245.908858,217.723312 245.179688,216.779297 L245.091797,218 L243.431641,218 L243.431641,203 L245.238281,203 L245.238281,208.595703 C245.967452,207.690751 246.973301,207.238281 248.255859,207.238281 C249.538418,207.238281 250.545895,207.723302 251.27832,208.693359 C252.010746,209.663416 252.376953,210.991528 252.376953,212.677734 L252.376953,212.833984 Z M250.570312,212.628906 C250.570312,211.398431 250.332685,210.44792 249.857422,209.777344 C249.382159,209.106767 248.698572,208.771484 247.806641,208.771484 C246.615228,208.771484 245.759117,209.324864 245.238281,210.431641 L245.238281,215.001953 C245.791669,216.108729 246.654291,216.662109 247.826172,216.662109 C248.692062,216.662109 249.365883,216.326826 249.847656,215.65625 C250.329429,214.985674 250.570312,213.976569 250.570312,212.628906 L250.570312,212.628906 Z M261.175781,218 C261.071614,217.791666 260.986979,217.420576 260.921875,216.886719 C260.082027,217.759119 259.079433,218.195312 257.914062,218.195312 C256.872391,218.195312 256.017907,217.900719 255.350586,217.311523 C254.683265,216.722328 254.349609,215.975265 254.349609,215.070312 C254.349609,213.970047 254.767899,213.115563 255.604492,212.506836 C256.441085,211.898109 257.617831,211.59375 259.134766,211.59375 L260.892578,211.59375 L260.892578,210.763672 C260.892578,210.132158 260.703778,209.629234 260.326172,209.254883 C259.948566,208.880532 259.391931,208.693359 258.65625,208.693359 C258.011716,208.693359 257.471356,208.856118 257.035156,209.181641 C256.598956,209.507163 256.380859,209.901039 256.380859,210.363281 L254.564453,210.363281 C254.564453,209.835935 254.751626,209.3265 255.125977,208.834961 C255.500327,208.343422 256.008135,207.954429 256.649414,207.667969 C257.290693,207.381509 257.995439,207.238281 258.763672,207.238281 C259.981126,207.238281 260.934892,207.54264 261.625,208.151367 C262.315108,208.760094 262.673177,209.598302 262.699219,210.666016 L262.699219,215.529297 C262.699219,216.499354 262.822915,217.27083 263.070312,217.84375 L263.070312,218 L261.175781,218 Z M258.177734,216.623047 C258.744143,216.623047 259.281247,216.476564 259.789062,216.183594 C260.296878,215.890624 260.664712,215.509768 260.892578,215.041016 L260.892578,212.873047 L259.476562,212.873047 C257.26301,212.873047 256.15625,213.520827 256.15625,214.816406 C256.15625,215.382815 256.34505,215.825519 256.722656,216.144531 C257.100262,216.463543 257.585283,216.623047 258.177734,216.623047 L258.177734,216.623047 Z M269.769531,216.720703 C270.414066,216.720703 270.977211,216.525393 271.458984,216.134766 C271.940758,215.744139 272.207682,215.255862 272.259766,214.669922 L273.96875,214.669922 C273.936198,215.275394 273.727867,215.85156 273.34375,216.398438 C272.959633,216.945315 272.446943,217.381509 271.805664,217.707031 C271.164385,218.032554 270.485681,218.195312 269.769531,218.195312 C268.330722,218.195312 267.186528,217.715174 266.336914,216.754883 C265.4873,215.794592 265.0625,214.481128 265.0625,212.814453 L265.0625,212.511719 C265.0625,211.483068 265.2513,210.568363 265.628906,209.767578 C266.006512,208.966793 266.548499,208.345054 267.254883,207.902344 C267.961267,207.459633 268.796219,207.238281 269.759766,207.238281 C270.944667,207.238281 271.929358,207.593095 272.713867,208.302734 C273.498376,209.012373 273.916666,209.933588 273.96875,211.066406 L272.259766,211.066406 C272.207682,210.382809 271.948896,209.821291 271.483398,209.381836 C271.017901,208.942381 270.443363,208.722656 269.759766,208.722656 C268.841792,208.722656 268.130536,209.053057 267.625977,209.713867 C267.121417,210.374678 266.869141,211.330072 266.869141,212.580078 L266.869141,212.921875 C266.869141,214.139329 267.119789,215.07682 267.621094,215.734375 C268.122398,216.39193 268.838537,216.720703 269.769531,216.720703 L269.769531,216.720703 Z M278.949219,213.107422 L277.816406,214.289062 L277.816406,218 L276.009766,218 L276.009766,203 L277.816406,203 L277.816406,212.072266 L278.783203,210.910156 L282.074219,207.433594 L284.271484,207.433594 L280.160156,211.847656 L284.75,218 L282.630859,218 L278.949219,213.107422 Z M297.611328,216.955078 C296.9082,217.781905 295.876309,218.195312 294.515625,218.195312 C293.389317,218.195312 292.531578,217.868167 291.942383,217.213867 C291.353187,216.559567 291.055339,215.591152 291.048828,214.308594 L291.048828,207.433594 L292.855469,207.433594 L292.855469,214.259766 C292.855469,215.861336 293.506504,216.662109 294.808594,216.662109 C296.188809,216.662109 297.106769,216.147792 297.5625,215.119141 L297.5625,207.433594 L299.369141,207.433594 L299.369141,218 L297.650391,218 L297.611328,216.955078 Z M311.039062,212.833984 C311.039062,214.442065 310.671228,215.737625 309.935547,216.720703 C309.199866,217.703781 308.203782,218.195312 306.947266,218.195312 C305.664707,218.195312 304.655603,217.788416 303.919922,216.974609 L303.919922,222.0625 L302.113281,222.0625 L302.113281,207.433594 L303.763672,207.433594 L303.851562,208.605469 C304.587243,207.694006 305.609368,207.238281 306.917969,207.238281 C308.187506,207.238281 309.191728,207.716792 309.930664,208.673828 C310.6696,209.630864 311.039062,210.962231 311.039062,212.667969 L311.039062,212.833984 Z M309.232422,212.628906 C309.232422,211.437494 308.978518,210.496748 308.470703,209.806641 C307.962888,209.116533 307.26628,208.771484 306.380859,208.771484 C305.287104,208.771484 304.4668,209.256506 303.919922,210.226562 L303.919922,215.275391 C304.460289,216.238937 305.287104,216.720703 306.400391,216.720703 C307.26628,216.720703 307.95475,216.377282 308.46582,215.69043 C308.976891,215.003577 309.232422,213.98308 309.232422,212.628906 L309.232422,212.628906 Z M315.355469,213.986328 L313.724609,213.986328 L313.597656,203.78125 L315.492188,203.78125 L315.355469,213.986328 Z M313.529297,217.091797 C313.529297,216.798827 313.618814,216.553061 313.797852,216.354492 C313.976889,216.155923 314.242186,216.056641 314.59375,216.056641 C314.945314,216.056641 315.212239,216.155923 315.394531,216.354492 C315.576824,216.553061 315.667969,216.798827 315.667969,217.091797 C315.667969,217.384767 315.576824,217.627278 315.394531,217.819336 C315.212239,218.011394 314.945314,218.107422 314.59375,218.107422 C314.242186,218.107422 313.976889,218.011394 313.797852,217.819336 C313.618814,217.627278 313.529297,217.384767 313.529297,217.091797 L313.529297,217.091797 Z" id="HTTP-@-Hano-is-back" fill="#575757"></path>
                <g id="Page-1" transform="translate(25.000000, 197.000000)">
                    <g id="Oval-7">
                        <use fill="#25DC32" fill-rule="evenodd" xlink:href="#path-11"></use>
                        <use stroke-opacity="0.75" stroke="#25DC32" mask="url(#mask-12)" stroke-width="6" xlink:href="#path-11"></use>
                        <use stroke="#FFFFFF" stroke-width="2" xlink:href="#path-11"></use>
                    </g>
                    <polygon id="Fill-4" fill="#FFFFFF" points="12.9301304 18.1777404 8.75230435 13.9525064 6.99273913 15.7313787 12.9301304 21.7361447 23.2651304 11.2838681 21.5062174 9.50433617"></polygon>
                </g>
            </g>
        </g>
    </g>
</svg>