<svg width="454" height="255" viewBox="0 0 454 255" xmlns="http://www.w3.org/2000/svg" xmlns:xlink="http://www.w3.org/1999/xlink"><title>Group 15</title><defs><rect id="e" width="446" height="69" rx="3"/><filter x="-50%" y="-50%" width="200%" height="200%" filterUnits="objectBoundingBox" id="d"><feOffset dy="2" in="SourceAlpha" result="shadowOffsetOuter1"/><feGaussianBlur stdDeviation="2" in="shadowOffsetOuter1" result="shadowBlurOuter1"/><feColorMatrix values="0 0 0 0 0 0 0 0 0 0 0 0 0 0 0 0 0 0 0.2 0" in="shadowBlurOuter1"/></filter><rect id="g" y="178" width="408" height="69" rx="3"/><filter x="-50%" y="-50%" width="200%" height="200%" filterUnits="objectBoundingBox" id="f"><feOffset dy="2" in="SourceAlpha" result="shadowOffsetOuter1"/><feGaussianBlur stdDeviation="2" in="shadowOffsetOuter1" result="shadowBlurOuter1"/><feColorMatrix values="0 0 0 0 0 0 0 0 0 0 0 0 0 0 0 0 0 0 0.2 0" in="shadowBlurOuter1"/></filter><rect id="i" y="89" width="373" height="69" rx="3"/><filter x="-50%" y="-50%" width="200%" height="200%" filterUnits="objectBoundingBox" id="h"><feOffset dy="2" in="SourceAlpha" result="shadowOffsetOuter1"/><feGaussianBlur stdDeviation="2" in="shadowOffsetOuter1" result="shadowBlurOuter1"/><feColorMatrix values="0 0 0 0 0 0 0 0 0 0 0 0 0 0 0 0 0 0 0.2 0" in="shadowBlurOuter1"/></filter><circle id="a" cx="15.5" cy="15.5" r="15.5"/><mask id="j" x="-3" y="-3" width="37" height="37"><path fill="#fff" d="M-3-3h37v37H-3z"/><use xlink:href="#a"/></mask><circle id="b" cx="15.5" cy="15.5" r="15.5"/><mask id="k" x="-3" y="-3" width="37" height="37"><path fill="#fff" d="M-3-3h37v37H-3z"/><use xlink:href="#b"/></mask><circle id="c" cx="15.5" cy="15.5" r="15.5"/><mask id="l" x="-3" y="-3" width="37" height="37"><path fill="#fff" d="M-3-3h37v37H-3z"/><use xlink:href="#c"/></mask></defs><g fill="none" fill-rule="evenodd"><g transform="translate(4 2)"><use fill="#000" filter="url(#d)" xlink:href="#e"/><use fill="#FFF" xlink:href="#e"/></g><g transform="translate(4 2)"><use fill="#000" filter="url(#f)" xlink:href="#g"/><use fill="#FFF" xlink:href="#g"/></g><g transform="translate(4 2)"><use fill="#000" filter="url(#h)" xlink:href="#i"/><use fill="#FFF" xlink:href="#i"/></g><g transform="translate(28 22)"><use fill="#FB4343" xlink:href="#a"/><use stroke-opacity=".75" stroke="#FB4343" mask="url(#j)" stroke-width="6" xlink:href="#a"/><use stroke="#FFF" stroke-width="2" xlink:href="#a"/></g><path fill="#FFF" d="M41.51 39.72h3.334V28.43H41.51zM41.51 45.346h3.334V42.35H41.51z"/><g transform="translate(28 110)"><use fill="#FB4343" xlink:href="#b"/><use stroke-opacity=".75" stroke="#FB4343" mask="url(#k)" stroke-width="6" xlink:href="#b"/><use stroke="#FFF" stroke-width="2" xlink:href="#b"/></g><path fill="#FFF" d="M41.51 127.72h3.334v-11.29H41.51zM41.51 133.346h3.334v-2.996H41.51z"/><path d="M102.578 42h-1.885v-6.572h-7.168V42H91.65V27.781h1.875v6.114h7.168V27.78h1.885V42zm12.871-12.676h-4.57V42h-1.865V29.324h-4.56v-1.543h10.995v1.543zm12.09 0h-4.57V42h-1.865V29.324h-4.561v-1.543h10.996v1.543zm3.984 7.11V42h-1.875V27.781h5.245c1.556 0 2.775.397 3.657 1.192.882.794 1.323 1.845 1.323 3.154 0 1.38-.431 2.443-1.294 3.188-.863.746-2.098 1.119-3.706 1.119h-3.35zm0-1.534h3.37c1.002 0 1.77-.236 2.304-.708.534-.472.801-1.154.801-2.046 0-.846-.267-1.523-.8-2.03-.535-.509-1.267-.772-2.198-.792h-3.477V34.9zm14.932.762c-1.608-.462-2.778-1.03-3.51-1.704-.733-.674-1.1-1.506-1.1-2.495 0-1.12.448-2.046 1.343-2.778.896-.733 2.06-1.1 3.492-1.1.976 0 1.847.19 2.612.567.765.378 1.357.899 1.777 1.563.42.664.63 1.39.63 2.178h-1.885c0-.86-.273-1.535-.82-2.027-.547-.491-1.318-.737-2.314-.737-.925 0-1.646.203-2.163.61-.518.407-.777.972-.777 1.695 0 .579.246 1.069.738 1.47.491.4 1.328.766 2.51 1.098 1.181.332 2.105.698 2.773 1.099.667.4 1.162.867 1.484 1.401.322.534.484 1.162.484 1.885 0 1.152-.45 2.075-1.348 2.768-.899.694-2.1 1.04-3.604 1.04a6.683 6.683 0 0 1-2.734-.561c-.846-.375-1.5-.887-1.958-1.538a3.754 3.754 0 0 1-.689-2.217h1.885c0 .86.318 1.538.952 2.036.635.498 1.483.747 2.544.747.99 0 1.748-.202 2.276-.605.527-.404.79-.954.79-1.65 0-.697-.243-1.236-.732-1.617-.488-.38-1.373-.757-2.656-1.128zm27.95 1.436c-.079 1.575-.47 2.819-1.173 3.73-.703.912-1.643 1.367-2.822 1.367-1.217 0-1.999-.547-2.344-1.64-.351.553-.753.965-1.206 1.235-.452.27-.92.405-1.401.405-.924 0-1.624-.377-2.1-1.133-.475-.755-.65-1.8-.527-3.134.098-1.074.343-2.033.737-2.876.394-.843.902-1.506 1.524-1.988.622-.481 1.274-.722 1.958-.722.527 0 1 .07 1.416.21.416.14.885.415 1.406.825l-.508 5.41c-.123 1.504.293 2.256 1.25 2.256.736 0 1.332-.365 1.787-1.094.456-.729.703-1.68.743-2.851.123-2.533-.347-4.463-1.412-5.791-1.064-1.328-2.684-1.993-4.858-1.993-1.309 0-2.47.324-3.486.972-1.016.648-1.817 1.584-2.403 2.808-.586 1.224-.914 2.636-.986 4.238-.078 1.615.117 3.016.586 4.204.469 1.188 1.183 2.096 2.143 2.725.96.628 2.121.942 3.482.942a7.44 7.44 0 0 0 1.763-.215c.589-.143 1.079-.328 1.47-.556l.36 1.123c-.403.254-.938.462-1.606.625a8.522 8.522 0 0 1-2.026.244c-1.628 0-3.027-.366-4.2-1.099-1.171-.732-2.048-1.787-2.631-3.164-.583-1.377-.835-2.987-.757-4.829.078-1.79.478-3.4 1.201-4.83.723-1.428 1.703-2.532 2.94-3.31 1.237-.778 2.633-1.167 4.19-1.167 1.62 0 3.01.365 4.169 1.094 1.159.73 2.021 1.78 2.588 3.154.566 1.374.81 2.982.732 4.825zm-10.02.83c-.091.924-.005 1.634.259 2.129.263.494.682.742 1.254.742.391 0 .767-.166 1.128-.498.362-.332.66-.808.894-1.426l.01-.088.449-4.912a2.512 2.512 0 0 0-1.172-.283c-.762 0-1.392.387-1.89 1.162-.498.775-.809 1.833-.932 3.174zm21.22-2.54l-1.738 1.807V42h-1.875V27.781h1.875v7.032l6.319-7.032h2.265l-5.596 6.28L192.891 42h-2.246l-5.04-6.611zM196.211 42h-1.807V31.434h1.807V42zm-1.953-13.37c0-.292.09-.54.268-.741.18-.202.445-.303.796-.303.352 0 .619.1.801.303.182.201.273.449.273.742s-.09.537-.273.732c-.182.196-.45.293-.8.293-.352 0-.618-.097-.797-.293a1.043 1.043 0 0 1-.268-.732zm6.553 2.804l.058 1.328c.807-1.016 1.862-1.524 3.164-1.524 2.233 0 3.36 1.26 3.38 3.78V42h-1.808v-6.992c-.006-.762-.18-1.325-.522-1.69-.342-.364-.874-.547-1.597-.547-.586 0-1.1.157-1.543.47a3.183 3.183 0 0 0-1.035 1.23V42h-1.806V31.434h1.709zm15.478 7.763c0-.488-.184-.867-.552-1.137-.368-.27-1.009-.503-1.924-.699-.914-.195-1.64-.43-2.177-.703-.537-.273-.935-.599-1.192-.976-.257-.378-.385-.827-.385-1.348 0-.866.366-1.598 1.098-2.197.733-.6 1.669-.899 2.808-.899 1.198 0 2.17.31 2.915.928.745.619 1.118 1.41 1.118 2.373h-1.816c0-.495-.21-.921-.63-1.28-.42-.357-.95-.536-1.587-.536-.658 0-1.172.143-1.543.43-.371.286-.557.66-.557 1.122 0 .437.173.765.518.987.345.221.968.433 1.87.634.902.202 1.632.443 2.192.723.56.28.975.617 1.245 1.01.27.395.406.875.406 1.441 0 .944-.378 1.701-1.133 2.27-.755.57-1.735.855-2.94.855-.846 0-1.595-.15-2.246-.449-.65-.3-1.16-.718-1.528-1.255a3.025 3.025 0 0 1-.552-1.743h1.807c.032.606.275 1.086.727 1.44.453.355 1.05.533 1.792.533.684 0 1.233-.139 1.646-.415.413-.277.62-.646.62-1.109zm5.967-6.484c.8-.983 1.842-1.475 3.125-1.475 2.233 0 3.36 1.26 3.379 3.78V42h-1.807v-6.992c-.006-.762-.18-1.325-.522-1.69-.342-.364-.874-.547-1.597-.547-.586 0-1.1.157-1.543.47a3.183 3.183 0 0 0-1.035 1.23V42h-1.807V27h1.807v5.713zM237.988 42c-.104-.208-.189-.58-.254-1.113-.84.872-1.842 1.308-3.007 1.308-1.042 0-1.897-.294-2.564-.883-.667-.59-1-1.337-1-2.242 0-1.1.417-1.954 1.254-2.563.837-.609 2.013-.913 3.53-.913h1.758v-.83c0-.632-.189-1.135-.566-1.51-.378-.373-.935-.56-1.67-.56-.645 0-1.185.162-1.621.488-.437.325-.655.719-.655 1.181h-1.816c0-.527.187-1.037.561-1.528.375-.492.883-.88 1.524-1.167a5.125 5.125 0 0 1 2.114-.43c1.218 0 2.171.305 2.862.913.69.61 1.048 1.447 1.074 2.515v4.863c0 .97.123 1.742.37 2.315V42h-1.894zm-2.998-1.377c.567 0 1.104-.146 1.612-.44.507-.292.875-.673 1.103-1.142v-2.168h-1.416c-2.213 0-3.32.648-3.32 1.943 0 .567.189 1.01.566 1.329.378.319.863.478 1.455.478zm13.506-1.426c0-.488-.184-.867-.552-1.137-.368-.27-1.009-.503-1.923-.699-.915-.195-1.641-.43-2.178-.703-.537-.273-.934-.599-1.192-.976-.257-.378-.385-.827-.385-1.348 0-.866.366-1.598 1.098-2.197.733-.6 1.669-.899 2.808-.899 1.198 0 2.17.31 2.915.928.745.619 1.118 1.41 1.118 2.373h-1.816c0-.495-.21-.921-.63-1.28-.42-.357-.95-.536-1.587-.536-.658 0-1.172.143-1.543.43-.371.286-.557.66-.557 1.122 0 .437.173.765.518.987.345.221.968.433 1.87.634.902.202 1.632.443 2.192.723.56.28.975.617 1.245 1.01.27.395.406.875.406 1.441 0 .944-.378 1.701-1.133 2.27-.755.57-1.735.855-2.94.855-.846 0-1.595-.15-2.246-.449-.65-.3-1.16-.718-1.528-1.255a3.025 3.025 0 0 1-.552-1.743h1.807c.032.606.275 1.086.727 1.44.453.355 1.05.533 1.792.533.684 0 1.233-.139 1.646-.415.413-.277.62-.646.62-1.109zM259.18 42c-.104-.208-.19-.58-.254-1.113-.84.872-1.843 1.308-3.008 1.308-1.042 0-1.896-.294-2.564-.883-.667-.59-1-1.337-1-2.242 0-1.1.418-1.954 1.254-2.563.837-.609 2.014-.913 3.53-.913h1.758v-.83c0-.632-.188-1.135-.566-1.51-.378-.373-.934-.56-1.67-.56-.644 0-1.185.162-1.62.488-.437.325-.655.719-.655 1.181h-1.817c0-.527.188-1.037.562-1.528.374-.492.882-.88 1.523-1.167a5.125 5.125 0 0 1 2.115-.43c1.217 0 2.17.305 2.86.913.691.61 1.05 1.447 1.075 2.515v4.863c0 .97.124 1.742.371 2.315V42h-1.894zm-2.998-1.377c.566 0 1.103-.146 1.611-.44.508-.292.876-.673 1.103-1.142v-2.168h-1.416c-2.213 0-3.32.648-3.32 1.943 0 .567.189 1.01.567 1.329.377.319.862.478 1.455.478zM270.449 42h-1.806V31.434h1.806V42zm-1.953-13.37c0-.292.09-.54.269-.741.179-.202.444-.303.796-.303.351 0 .618.1.8.303.183.201.274.449.274.742s-.091.537-.274.732c-.182.196-.449.293-.8.293-.352 0-.617-.097-.796-.293a1.043 1.043 0 0 1-.269-.732zm10.996 10.567c0-.488-.184-.867-.552-1.137-.367-.27-1.009-.503-1.923-.699-.915-.195-1.641-.43-2.178-.703-.537-.273-.934-.599-1.192-.976-.257-.378-.385-.827-.385-1.348 0-.866.366-1.598 1.098-2.197.733-.6 1.669-.899 2.808-.899 1.198 0 2.17.31 2.915.928.745.619 1.118 1.41 1.118 2.373h-1.816c0-.495-.21-.921-.63-1.28-.42-.357-.949-.536-1.587-.536-.658 0-1.172.143-1.543.43-.371.286-.557.66-.557 1.122 0 .437.173.765.518.987.345.221.968.433 1.87.634.902.202 1.633.443 2.192.723.56.28.975.617 1.246 1.01.27.395.405.875.405 1.441 0 .944-.378 1.701-1.133 2.27-.755.57-1.735.855-2.94.855-.846 0-1.594-.15-2.246-.449-.65-.3-1.16-.718-1.528-1.255a3.025 3.025 0 0 1-.552-1.743h1.807c.033.606.275 1.086.728 1.44.452.355 1.05.533 1.792.533.683 0 1.232-.139 1.645-.415.413-.277.62-.646.62-1.109zm8.672-2.568c0-1.621.384-2.925 1.152-3.911.769-.987 1.774-1.48 3.018-1.48 1.237 0 2.217.423 2.94 1.27V27h1.806v15h-1.66l-.088-1.133c-.723.886-1.728 1.328-3.018 1.328-1.224 0-2.221-.501-2.993-1.504-.771-1.002-1.157-2.31-1.157-3.925v-.137zm1.807.205c0 1.198.247 2.135.742 2.812.495.678 1.178 1.016 2.05 1.016 1.147 0 1.983-.514 2.51-1.543v-4.853c-.54-.996-1.37-1.495-2.49-1.495-.885 0-1.575.342-2.07 1.026-.495.683-.742 1.696-.742 3.037zm9.433-.215c0-1.035.204-1.966.61-2.793.408-.827.974-1.465 1.7-1.914.726-.45 1.554-.674 2.485-.674 1.439 0 2.603.498 3.491 1.494.89.997 1.333 2.321 1.333 3.975v.127c0 1.029-.197 1.951-.59 2.769-.394.817-.957 1.453-1.69 1.909-.732.455-1.574.683-2.524.683-1.433 0-2.593-.498-3.482-1.494-.888-.996-1.333-2.314-1.333-3.955v-.127zm1.817.215c0 1.172.272 2.113.815 2.822.544.71 1.271 1.065 2.183 1.065.918 0 1.647-.36 2.187-1.08.54-.719.81-1.726.81-3.022 0-1.159-.274-2.098-.824-2.817-.55-.72-1.281-1.08-2.193-1.08-.892 0-1.611.355-2.158 1.065-.547.71-.82 1.725-.82 3.047zm19.424 2.676l2.03-8.076h1.807L321.406 42h-1.465l-2.568-8.008-2.5 8.008h-1.465l-3.066-10.566h1.797l2.08 7.91 2.46-7.91h1.456l2.51 8.076zm7.382-8.076l.059 1.328c.807-1.016 1.862-1.524 3.164-1.524 2.233 0 3.36 1.26 3.379 3.78V42h-1.807v-6.992c-.006-.762-.18-1.325-.522-1.69-.342-.364-.874-.547-1.597-.547-.586 0-1.1.157-1.543.47a3.183 3.183 0 0 0-1.035 1.23V42h-1.807V31.434h1.71z" fill="#575757"/><path d="M383.578 42h-1.885v-6.572h-7.168V42h-1.875V27.781h1.875v6.114h7.168V27.78h1.885V42zm11.367-6.572h-6.162v5.039h7.158V42h-9.033V27.781h8.936v1.543h-7.06v4.57h6.161v1.534zm5.215 5.039h6.738V42h-8.623V27.781h1.885v12.686zm10.752-4.033V42h-1.875V27.781h5.244c1.556 0 2.775.397 3.657 1.192.883.794 1.324 1.845 1.324 3.154 0 1.38-.432 2.443-1.294 3.188-.863.746-2.098 1.119-3.706 1.119h-3.35zm0-1.534h3.37c1.002 0 1.77-.236 2.304-.708.534-.472.8-1.154.8-2.046 0-.846-.266-1.523-.8-2.03-.534-.509-1.266-.772-2.197-.792h-3.477V34.9zM310.578 133h-1.885v-6.572h-7.168V133h-1.875v-14.219h1.875v6.114h7.168v-6.114h1.885V133zm11.367-6.572h-6.162v5.039h7.158V133h-9.033v-14.219h8.936v1.543h-7.06v4.57h6.161v1.534zm5.215 5.039h6.738V133h-8.623v-14.219h1.885v12.686zm10.752-4.033V133h-1.875v-14.219h5.244c1.556 0 2.775.397 3.657 1.192.883.794 1.324 1.845 1.324 3.154 0 1.38-.432 2.443-1.294 3.188-.863.746-2.098 1.119-3.706 1.119h-3.35zm0-1.534h3.37c1.002 0 1.77-.236 2.304-.708.534-.472.8-1.154.8-2.046 0-.846-.266-1.523-.8-2.03-.534-.509-1.266-.772-2.197-.792h-3.477v5.576z" fill="#FB4343"/><path d="M368.588 214.35c0 1.393-.234 2.609-.703 3.647-.469 1.038-1.133 1.831-1.992 2.378-.86.547-1.862.82-3.008.82-1.12 0-2.113-.275-2.979-.825-.866-.55-1.538-1.335-2.016-2.353-.479-1.02-.725-2.2-.738-3.54v-1.026c0-1.367.238-2.575.713-3.623s1.148-1.85 2.017-2.407c.869-.557 1.863-.835 2.983-.835 1.14 0 2.144.275 3.013.825.87.55 1.538 1.348 2.007 2.393.469 1.045.703 2.26.703 3.647v.899zm-1.865-.918c0-1.687-.339-2.98-1.016-3.882-.677-.902-1.624-1.353-2.842-1.353-1.185 0-2.117.451-2.798 1.353-.68.902-1.03 2.153-1.05 3.755v1.045c0 1.634.344 2.918 1.03 3.852.688.934 1.633 1.402 2.838 1.402 1.21 0 2.148-.442 2.812-1.324.664-.882 1.006-2.147 1.026-3.794v-1.054zm8.29.957l-1.738 1.806V221H371.4v-14.219h1.875v7.031l6.319-7.03h2.265l-5.595 6.279 6.035 7.939h-2.246l-5.04-6.611z" fill="#25DC32"/><path d="M95.84 124.662c-1.608-.462-2.778-1.03-3.51-1.704-.733-.674-1.1-1.506-1.1-2.495 0-1.12.448-2.046 1.343-2.778.895-.733 2.06-1.1 3.491-1.1.977 0 1.848.19 2.613.567.765.378 1.357.899 1.777 1.563.42.664.63 1.39.63 2.178h-1.885c0-.86-.273-1.535-.82-2.027-.547-.491-1.318-.737-2.315-.737-.924 0-1.645.203-2.163.61-.517.407-.776.972-.776 1.695 0 .579.246 1.069.737 1.47.492.4 1.328.766 2.51 1.098 1.182.332 2.106.698 2.774 1.099.667.4 1.162.867 1.484 1.401.322.534.483 1.162.483 1.885 0 1.152-.449 2.075-1.347 2.768-.899.694-2.1 1.04-3.604 1.04a6.683 6.683 0 0 1-2.734-.561c-.847-.375-1.5-.887-1.958-1.538a3.754 3.754 0 0 1-.689-2.217h1.885c0 .86.317 1.538.952 2.036s1.483.747 2.544.747c.99 0 1.748-.202 2.275-.605.528-.404.792-.954.792-1.65 0-.697-.245-1.236-.733-1.617-.488-.38-1.374-.757-2.656-1.128zm11.865 0c-1.608-.462-2.778-1.03-3.51-1.704-.733-.674-1.1-1.506-1.1-2.495 0-1.12.448-2.046 1.343-2.778.896-.733 2.06-1.1 3.492-1.1.976 0 1.847.19 2.612.567.765.378 1.357.899 1.777 1.563.42.664.63 1.39.63 2.178h-1.885c0-.86-.273-1.535-.82-2.027-.547-.491-1.318-.737-2.314-.737-.925 0-1.646.203-2.163.61-.518.407-.777.972-.777 1.695 0 .579.246 1.069.738 1.47.491.4 1.328.766 2.51 1.098 1.181.332 2.105.698 2.773 1.099.667.4 1.162.867 1.484 1.401.322.534.484 1.162.484 1.885 0 1.152-.45 2.075-1.348 2.768-.899.694-2.1 1.04-3.604 1.04a6.683 6.683 0 0 1-2.734-.561c-.846-.375-1.5-.887-1.958-1.538a3.754 3.754 0 0 1-.689-2.217h1.885c0 .86.318 1.538.952 2.036.635.498 1.483.747 2.544.747.99 0 1.748-.202 2.276-.605.527-.404.79-.954.79-1.65 0-.697-.243-1.236-.732-1.617-.488-.38-1.373-.757-2.656-1.128zM126.31 131h-1.885v-6.572h-7.168V131h-1.875v-14.219h1.875v6.114h7.168v-6.114h1.885V131zm23.603-4.902c-.078 1.575-.469 2.819-1.172 3.73-.703.912-1.644 1.367-2.822 1.367-1.217 0-1.999-.547-2.344-1.64-.351.553-.753.965-1.206 1.235-.452.27-.92.405-1.401.405-.925 0-1.625-.377-2.1-1.132-.475-.756-.65-1.8-.527-3.135.097-1.074.343-2.033.737-2.876.394-.843.902-1.506 1.524-1.988.621-.481 1.274-.722 1.958-.722.527 0 .999.07 1.416.21.416.14.885.415 1.406.825l-.508 5.41c-.124 1.504.293 2.256 1.25 2.256.736 0 1.331-.365 1.787-1.094.456-.729.703-1.68.742-2.851.124-2.533-.346-4.463-1.41-5.791-1.065-1.328-2.685-1.993-4.86-1.993-1.308 0-2.47.324-3.486.972-1.015.648-1.816 1.584-2.402 2.808-.586 1.224-.915 2.636-.986 4.238-.078 1.615.117 3.016.586 4.204.469 1.188 1.183 2.096 2.143 2.725.96.628 2.121.942 3.482.942a7.44 7.44 0 0 0 1.762-.215c.59-.143 1.08-.328 1.47-.556l.362 1.123c-.404.254-.94.462-1.607.625a8.522 8.522 0 0 1-2.026.244c-1.628 0-3.028-.366-4.2-1.099-1.171-.732-2.049-1.787-2.631-3.164-.583-1.377-.835-2.987-.757-4.829.078-1.79.478-3.4 1.201-4.83.723-1.428 1.702-2.532 2.94-3.31 1.236-.778 2.633-1.167 4.189-1.167 1.621 0 3.01.365 4.17 1.094 1.159.73 2.021 1.78 2.588 3.154.566 1.374.81 2.982.732 4.825zm-10.02.83c-.09.924-.004 1.634.26 2.129.263.494.681.742 1.254.742.39 0 .767-.166 1.128-.498.362-.332.66-.808.894-1.426l.01-.088.449-4.912a2.512 2.512 0 0 0-1.172-.283c-.762 0-1.392.387-1.89 1.162-.498.775-.809 1.833-.932 3.174zm19.483-1.494V131H157.5v-14.219h5.244c1.556 0 2.775.397 3.657 1.192.883.794 1.324 1.845 1.324 3.154 0 1.38-.432 2.443-1.294 3.188-.863.746-2.098 1.119-3.706 1.119h-3.35zm0-1.534h3.37c1.002 0 1.77-.236 2.304-.708.534-.472.8-1.154.8-2.046 0-.846-.266-1.523-.8-2.03-.534-.509-1.266-.772-2.197-.792h-3.477v5.576zm15.566-1.845a5.414 5.414 0 0 0-.888-.069c-1.185 0-1.99.505-2.412 1.514v7.5h-1.807v-10.566h1.758l.03 1.22c.592-.944 1.431-1.416 2.519-1.416.351 0 .618.046.8.137v1.68zm.987 3.564c0-1.035.203-1.966.61-2.793.407-.827.973-1.465 1.7-1.914.725-.45 1.554-.674 2.485-.674 1.438 0 2.602.498 3.49 1.494.89.997 1.334 2.321 1.334 3.975v.127c0 1.029-.197 1.951-.59 2.769-.395.817-.958 1.453-1.69 1.909-.733.455-1.574.683-2.525.683-1.432 0-2.593-.498-3.481-1.494-.889-.996-1.333-2.314-1.333-3.955v-.127zm1.816.215c0 1.172.272 2.113.816 2.822.543.71 1.27 1.065 2.182 1.065.918 0 1.647-.36 2.188-1.08.54-.719.81-1.726.81-3.022 0-1.159-.275-2.098-.825-2.817-.55-.72-1.28-1.08-2.192-1.08-.892 0-1.612.355-2.159 1.065-.546.71-.82 1.725-.82 3.047zm9.629-.205c0-1.621.384-2.925 1.152-3.911.769-.987 1.774-1.48 3.018-1.48 1.237 0 2.217.423 2.94 1.27V116h1.806v15h-1.66l-.088-1.133c-.723.886-1.728 1.328-3.018 1.328-1.224 0-2.221-.501-2.993-1.504-.771-1.002-1.157-2.31-1.157-3.925v-.137zm1.807.205c0 1.198.247 2.135.742 2.812.495.678 1.178 1.016 2.05 1.016 1.146 0 1.983-.514 2.51-1.543v-4.853c-.54-.996-1.37-1.495-2.49-1.495-.885 0-1.575.342-2.07 1.026-.495.683-.742 1.696-.742 3.037zM206.006 131h-1.807v-10.566h1.807V131zm-1.953-13.37c0-.292.09-.54.268-.741.18-.202.445-.303.796-.303.352 0 .619.1.801.303.182.201.273.449.273.742s-.09.537-.273.732c-.182.196-.45.293-.8.293-.352 0-.618-.097-.797-.293a1.043 1.043 0 0 1-.268-.732zm10.996 10.567c0-.488-.184-.867-.552-1.137-.368-.27-1.009-.503-1.924-.699-.914-.195-1.64-.43-2.177-.703-.538-.273-.935-.599-1.192-.976-.257-.378-.386-.827-.386-1.348 0-.866.367-1.598 1.099-2.197.732-.6 1.668-.899 2.808-.899 1.198 0 2.17.31 2.915.928.745.619 1.118 1.41 1.118 2.373h-1.817c0-.495-.21-.921-.63-1.28-.42-.357-.948-.536-1.586-.536-.658 0-1.172.143-1.543.43-.371.286-.557.66-.557 1.122 0 .437.173.765.518.987.345.221.968.433 1.87.634.901.202 1.632.443 2.192.723.56.28.975.617 1.245 1.01.27.395.405.875.405 1.441 0 .944-.377 1.701-1.132 2.27-.756.57-1.735.855-2.94.855-.846 0-1.595-.15-2.246-.449-.65-.3-1.16-.718-1.528-1.255a3.025 3.025 0 0 1-.552-1.743h1.807c.032.606.275 1.086.727 1.44.453.355 1.05.533 1.792.533.684 0 1.232-.139 1.646-.415.413-.277.62-.646.62-1.109zm8.672-2.568c0-1.621.384-2.925 1.152-3.911.768-.987 1.774-1.48 3.018-1.48 1.237 0 2.216.423 2.94 1.27V116h1.806v15h-1.66l-.088-1.133c-.723.886-1.729 1.328-3.018 1.328-1.224 0-2.222-.501-2.993-1.504-.772-1.002-1.157-2.31-1.157-3.925v-.137zm1.806.205c0 1.198.248 2.135.743 2.812.494.678 1.178 1.016 2.05 1.016 1.146 0 1.983-.514 2.51-1.543v-4.853c-.54-.996-1.37-1.495-2.49-1.495-.886 0-1.576.342-2.07 1.026-.495.683-.743 1.696-.743 3.037zm9.434-.215c0-1.035.203-1.966.61-2.793.407-.827.974-1.465 1.7-1.914.725-.45 1.554-.674 2.485-.674 1.439 0 2.602.498 3.491 1.494.889.997 1.333 2.321 1.333 3.975v.127c0 1.029-.197 1.951-.59 2.769-.395.817-.958 1.453-1.69 1.909-.733.455-1.574.683-2.525.683-1.432 0-2.592-.498-3.481-1.494-.889-.996-1.333-2.314-1.333-3.955v-.127zm1.816.215c0 1.172.272 2.113.816 2.822.543.71 1.27 1.065 2.182 1.065.918 0 1.648-.36 2.188-1.08.54-.719.81-1.726.81-3.022 0-1.159-.275-2.098-.825-2.817-.55-.72-1.28-1.08-2.192-1.08-.892 0-1.611.355-2.158 1.065-.547.71-.82 1.725-.82 3.047zm19.424 2.676l2.031-8.076h1.807L256.963 131h-1.465l-2.568-8.008-2.5 8.008h-1.465l-3.067-10.566h1.797l2.08 7.91 2.461-7.91h1.455l2.51 8.076zm7.383-8.076l.059 1.328c.807-1.016 1.862-1.524 3.164-1.524 2.233 0 3.359 1.26 3.379 3.78V131h-1.807v-6.992c-.007-.762-.18-1.325-.523-1.69-.341-.364-.874-.547-1.596-.547-.586 0-1.1.157-1.543.47a3.183 3.183 0 0 0-1.035 1.23V131h-1.807v-10.566h1.709zM102.578 220h-1.885v-6.572h-7.168V220H91.65v-14.219h1.875v6.114h7.168v-6.114h1.885V220zm12.871-12.676h-4.57V220h-1.865v-12.676h-4.56v-1.543h10.995v1.543zm12.09 0h-4.57V220h-1.865v-12.676h-4.561v-1.543h10.996v1.543zm3.984 7.11V220h-1.875v-14.219h5.245c1.556 0 2.775.397 3.657 1.192.882.794 1.323 1.845 1.323 3.154 0 1.38-.431 2.443-1.294 3.188-.863.746-2.098 1.119-3.706 1.119h-3.35zm0-1.534h3.37c1.002 0 1.77-.236 2.304-.708.534-.472.801-1.154.801-2.046 0-.846-.267-1.523-.8-2.03-.535-.509-1.267-.772-2.198-.792h-3.477v5.576zm31.016 2.198c-.078 1.575-.469 2.819-1.172 3.73-.703.912-1.644 1.367-2.822 1.367-1.218 0-1.999-.547-2.344-1.64-.351.553-.753.965-1.206 1.235-.452.27-.92.405-1.401.405-.925 0-1.625-.377-2.1-1.132-.475-.756-.65-1.8-.527-3.135.097-1.074.343-2.033.737-2.876.394-.843.902-1.506 1.524-1.988.621-.481 1.274-.722 1.958-.722.527 0 .999.07 1.416.21.416.14.885.415 1.406.825l-.508 5.41c-.124 1.504.293 2.256 1.25 2.256.736 0 1.331-.365 1.787-1.094.456-.729.703-1.68.742-2.851.124-2.533-.346-4.463-1.41-5.791-1.065-1.328-2.685-1.993-4.86-1.993-1.308 0-2.47.324-3.486.972-1.015.648-1.816 1.584-2.402 2.808-.586 1.224-.915 2.636-.986 4.238-.078 1.615.117 3.016.586 4.204.468 1.188 1.183 2.096 2.143 2.725.96.628 2.121.942 3.482.942a7.44 7.44 0 0 0 1.762-.215c.59-.143 1.08-.328 1.47-.556l.361 1.123c-.403.254-.939.462-1.606.625a8.522 8.522 0 0 1-2.026.244c-1.628 0-3.028-.366-4.2-1.099-1.171-.732-2.049-1.787-2.631-3.164-.583-1.377-.835-2.987-.757-4.829.078-1.79.478-3.4 1.2-4.83.724-1.428 1.703-2.532 2.94-3.31 1.237-.778 2.634-1.167 4.19-1.167 1.62 0 3.01.365 4.17 1.094 1.159.73 2.021 1.78 2.588 3.154.566 1.374.81 2.982.732 4.825zm-10.02.83c-.09.924-.004 1.634.26 2.129.263.494.681.742 1.254.742.39 0 .767-.166 1.128-.498.361-.332.66-.808.894-1.426l.01-.088.449-4.912a2.512 2.512 0 0 0-1.172-.283c-.762 0-1.392.387-1.89 1.162-.498.775-.809 1.833-.932 3.174zM181.056 220h-1.885v-6.572h-7.168V220h-1.875v-14.219h1.875v6.114h7.168v-6.114h1.885V220zm9.57 0c-.104-.208-.189-.58-.254-1.113-.84.872-1.842 1.308-3.008 1.308-1.041 0-1.896-.294-2.563-.883-.668-.59-1.001-1.337-1.001-2.242 0-1.1.418-1.954 1.255-2.563.836-.609 2.013-.913 3.53-.913h1.758v-.83c0-.632-.189-1.135-.567-1.51-.377-.373-.934-.56-1.67-.56-.644 0-1.184.162-1.62.488-.437.325-.655.719-.655 1.181h-1.816c0-.527.187-1.036.561-1.528.375-.492.882-.88 1.524-1.167a5.125 5.125 0 0 1 2.114-.43c1.217 0 2.171.305 2.861.913.69.61 1.048 1.447 1.074 2.515v4.863c0 .97.124 1.742.372 2.315V220h-1.895zm-2.998-1.377c.566 0 1.103-.146 1.611-.44.508-.292.876-.673 1.104-1.142v-2.168h-1.416c-2.214 0-3.32.648-3.32 1.943 0 .567.188 1.01.566 1.329.377.319.863.478 1.455.478zm9.062-9.19l.059 1.329c.807-1.016 1.862-1.524 3.164-1.524 2.233 0 3.36 1.26 3.379 3.78V220h-1.807v-6.992c-.006-.762-.18-1.325-.522-1.69-.342-.364-.874-.547-1.597-.547-.586 0-1.1.157-1.543.47a3.183 3.183 0 0 0-1.035 1.23V220h-1.807v-10.566h1.71zm8.848 5.186c0-1.035.204-1.966.61-2.793.407-.827.974-1.465 1.7-1.914.726-.45 1.554-.674 2.485-.674 1.439 0 2.603.498 3.491 1.494.889.997 1.333 2.321 1.333 3.975v.127c0 1.029-.197 1.951-.59 2.769-.394.817-.958 1.453-1.69 1.909-.732.455-1.574.683-2.524.683-1.433 0-2.593-.498-3.482-1.494-.889-.996-1.333-2.314-1.333-3.955v-.127zm1.817.215c0 1.172.271 2.113.815 2.822.544.71 1.271 1.065 2.183 1.065.918 0 1.647-.36 2.187-1.08.54-.719.81-1.726.81-3.022 0-1.159-.274-2.098-.825-2.817-.55-.72-1.28-1.08-2.192-1.08-.892 0-1.611.355-2.158 1.065-.547.71-.82 1.725-.82 3.047zm12.03 5.166h-1.816v-10.566h1.817V220zm-3.993-13.379c0-.293.09-.539.268-.737.18-.199.445-.298.796-.298.352 0 .619.1.8.298.183.198.274.444.274.737s-.09.537-.273.733c-.182.195-.45.292-.8.292-.352 0-.618-.097-.797-.292a1.043 1.043 0 0 1-.268-.733zm4.199.02c0-.293.09-.54.268-.743.18-.201.445-.302.796-.302.352 0 .619.1.801.302.182.202.274.45.274.743s-.092.537-.274.732c-.182.195-.45.293-.8.293-.352 0-.618-.098-.797-.293a1.043 1.043 0 0 1-.268-.732zM229.277 220h-1.806v-10.566h1.806V220zm-1.953-13.37c0-.292.09-.54.269-.741.179-.202.444-.303.796-.303.351 0 .618.1.8.303.183.201.274.449.274.742s-.091.537-.274.732c-.182.196-.449.293-.8.293-.352 0-.617-.097-.796-.293a1.043 1.043 0 0 1-.269-.732zm10.996 10.567c0-.488-.184-.867-.551-1.137-.368-.27-1.01-.503-1.924-.699-.915-.195-1.64-.43-2.178-.703-.537-.273-.934-.599-1.191-.976-.258-.378-.386-.827-.386-1.348 0-.866.366-1.598 1.098-2.197.733-.6 1.669-.899 2.808-.899 1.198 0 2.17.31 2.915.928.746.619 1.118 1.41 1.118 2.373h-1.816c0-.495-.21-.921-.63-1.28-.42-.357-.949-.536-1.587-.536-.657 0-1.172.143-1.543.43-.371.286-.557.66-.557 1.122 0 .437.173.765.518.987.345.221.968.433 1.87.634.902.202 1.633.443 2.193.723.56.28.974.617 1.245 1.01.27.395.405.875.405 1.441 0 .944-.378 1.701-1.133 2.27-.755.57-1.735.855-2.94.855-.846 0-1.594-.15-2.245-.449-.651-.3-1.16-.718-1.529-1.255a3.025 3.025 0 0 1-.551-1.743h1.806c.033.606.275 1.086.728 1.44.452.355 1.05.533 1.792.533.683 0 1.232-.139 1.645-.415.414-.277.62-.646.62-1.109zm18.057-2.363c0 1.615-.371 2.912-1.113 3.892-.743.98-1.739 1.47-2.989 1.47-1.334 0-2.366-.473-3.095-1.417l-.088 1.221h-1.66v-15h1.806v5.596c.73-.905 1.735-1.358 3.018-1.358 1.282 0 2.29.485 3.022 1.455.733.97 1.099 2.299 1.099 3.985v.156zm-1.807-.205c0-1.23-.237-2.181-.713-2.852-.475-.67-1.158-1.006-2.05-1.006-1.192 0-2.048.554-2.569 1.66v4.571c.554 1.107 1.416 1.66 2.588 1.66.866 0 1.54-.335 2.022-1.006.481-.67.722-1.68.722-3.027zM265.176 220c-.104-.208-.189-.58-.254-1.113-.84.872-1.843 1.308-3.008 1.308-1.042 0-1.896-.294-2.563-.883-.668-.59-1.001-1.337-1.001-2.242 0-1.1.418-1.954 1.254-2.563.837-.609 2.014-.913 3.53-.913h1.759v-.83c0-.632-.19-1.135-.567-1.51-.377-.373-.934-.56-1.67-.56-.644 0-1.185.162-1.62.488-.437.325-.655.719-.655 1.181h-1.817c0-.527.188-1.036.562-1.528.374-.492.882-.88 1.523-1.167a5.125 5.125 0 0 1 2.115-.43c1.217 0 2.17.305 2.861.913.69.61 1.048 1.447 1.074 2.515v4.863c0 .97.124 1.742.371 2.315V220h-1.894zm-2.998-1.377c.566 0 1.103-.146 1.611-.44.508-.292.876-.673 1.104-1.142v-2.168h-1.416c-2.214 0-3.32.648-3.32 1.943 0 .567.188 1.01.566 1.329.377.319.862.478 1.455.478zm11.592.098c.644 0 1.207-.196 1.689-.586.482-.39.749-.88.8-1.465h1.71c-.033.605-.241 1.182-.625 1.728a4.116 4.116 0 0 1-1.538 1.309 4.438 4.438 0 0 1-2.036.488c-1.44 0-2.583-.48-3.433-1.44-.85-.96-1.275-2.274-1.275-3.94v-.303c0-1.029.19-1.944.567-2.744.378-.801.92-1.423 1.626-1.866.706-.442 1.541-.664 2.505-.664 1.185 0 2.17.355 2.954 1.065.784.71 1.203 1.63 1.255 2.763h-1.71c-.051-.683-.31-1.245-.776-1.684-.465-.44-1.04-.66-1.723-.66-.918 0-1.63.331-2.134.992-.505.66-.757 1.616-.757 2.866v.342c0 1.217.25 2.155.752 2.812.501.658 1.218.987 2.149.987zm9.18-3.614l-1.134 1.182V220h-1.806v-15h1.806v9.072l.967-1.162 3.291-3.476h2.197l-4.11 4.414L288.75 220h-2.12l-3.68-4.893zm18.661 3.848c-.703.827-1.735 1.24-3.095 1.24-1.127 0-1.984-.327-2.574-.981-.589-.654-.887-1.623-.893-2.905v-6.875h1.806v6.826c0 1.601.652 2.402 1.954 2.402 1.38 0 2.298-.514 2.753-1.543v-7.685h1.807V220h-1.719l-.039-1.045zm13.428-4.121c0 1.608-.368 2.904-1.103 3.887-.736.983-1.732 1.474-2.989 1.474-1.282 0-2.291-.407-3.027-1.22v5.088h-1.807v-14.63h1.65l.089 1.172c.735-.911 1.757-1.367 3.066-1.367 1.27 0 2.274.479 3.013 1.436.739.957 1.108 2.288 1.108 3.994v.166zm-1.807-.205c0-1.192-.253-2.132-.761-2.822s-1.205-1.036-2.09-1.036c-1.094 0-1.914.486-2.461 1.456v5.048c.54.964 1.367 1.446 2.48 1.446.866 0 1.555-.344 2.066-1.03.51-.687.766-1.708.766-3.062zm6.123 1.357h-1.63l-.127-10.205h1.894l-.137 10.205zm-1.826 3.106c0-.293.09-.539.269-.738.179-.198.444-.297.796-.297.351 0 .618.099.8.297.183.2.274.445.274.738s-.091.535-.273.727c-.183.192-.45.288-.801.288-.352 0-.617-.096-.796-.288a1.025 1.025 0 0 1-.269-.727z" fill="#575757"/><g><g transform="translate(29 199)"><use fill="#25DC32" xlink:href="#c"/><use stroke-opacity=".75" stroke="#25DC32" mask="url(#l)" stroke-width="6" xlink:href="#c"/><use stroke="#FFF" stroke-width="2" xlink:href="#c"/></g><path fill="#FFF" d="M41.93 217.178l-4.178-4.225-1.76 1.778 5.938 6.005 10.335-10.452-1.759-1.78z"/></g></g></svg>