<svg width="454" height="255" viewBox="0 0 454 255" xmlns="http://www.w3.org/2000/svg" xmlns:xlink="http://www.w3.org/1999/xlink"><title>Group 16</title><defs><rect id="e" width="446" height="69" rx="3"/><filter x="-50%" y="-50%" width="200%" height="200%" filterUnits="objectBoundingBox" id="d"><feOffset dy="2" in="SourceAlpha" result="shadowOffsetOuter1"/><feGaussianBlur stdDeviation="2" in="shadowOffsetOuter1" result="shadowBlurOuter1"/><feColorMatrix values="0 0 0 0 0 0 0 0 0 0 0 0 0 0 0 0 0 0 0.2 0" in="shadowBlurOuter1"/></filter><rect id="g" y="178" width="446" height="69" rx="3"/><filter x="-50%" y="-50%" width="200%" height="200%" filterUnits="objectBoundingBox" id="f"><feOffset dy="2" in="SourceAlpha" result="shadowOffsetOuter1"/><feGaussianBlur stdDeviation="2" in="shadowOffsetOuter1" result="shadowBlurOuter1"/><feColorMatrix values="0 0 0 0 0 0 0 0 0 0 0 0 0 0 0 0 0 0 0.2 0" in="shadowBlurOuter1"/></filter><rect id="i" y="89" width="373" height="69" rx="3"/><filter x="-50%" y="-50%" width="200%" height="200%" filterUnits="objectBoundingBox" id="h"><feOffset dy="2" in="SourceAlpha" result="shadowOffsetOuter1"/><feGaussianBlur stdDeviation="2" in="shadowOffsetOuter1" result="shadowBlurOuter1"/><feColorMatrix values="0 0 0 0 0 0 0 0 0 0 0 0 0 0 0 0 0 0 0.2 0" in="shadowBlurOuter1"/></filter><circle id="a" cx="15.5" cy="15.5" r="15.5"/><mask id="j" x="-3" y="-3" width="37" height="37"><path fill="#fff" d="M-3-3h37v37H-3z"/><use xlink:href="#a"/></mask><circle id="b" cx="15.5" cy="15.5" r="15.5"/><mask id="k" x="-3" y="-3" width="37" height="37"><path fill="#fff" d="M-3-3h37v37H-3z"/><use xlink:href="#b"/></mask><circle id="c" cx="15.5" cy="15.5" r="15.5"/><mask id="l" x="-3" y="-3" width="37" height="37"><path fill="#fff" d="M-3-3h37v37H-3z"/><use xlink:href="#c"/></mask></defs><g fill="none" fill-rule="evenodd"><g transform="translate(4 2)"><use fill="#000" filter="url(#d)" xlink:href="#e"/><use fill="#FFF" xlink:href="#e"/></g><g transform="translate(4 2)"><use fill="#000" filter="url(#f)" xlink:href="#g"/><use fill="#FFF" xlink:href="#g"/></g><g transform="translate(4 2)"><use fill="#000" filter="url(#h)" xlink:href="#i"/><use fill="#FFF" xlink:href="#i"/></g><g transform="translate(28 22)"><use fill="#FB4343" xlink:href="#a"/><use stroke-opacity=".75" stroke="#FB4343" mask="url(#j)" stroke-width="6" xlink:href="#a"/><use stroke="#FFF" stroke-width="2" xlink:href="#a"/></g><path fill="#FFF" d="M41.51 39.72h3.334V28.43H41.51zM41.51 45.346h3.334V42.35H41.51z"/><g transform="translate(28 110)"><use fill="#FB4343" xlink:href="#b"/><use stroke-opacity=".75" stroke="#FB4343" mask="url(#k)" stroke-width="6" xlink:href="#b"/><use stroke="#FFF" stroke-width="2" xlink:href="#b"/></g><path fill="#FFF" d="M41.51 127.72h3.334v-11.29H41.51zM41.51 133.346h3.334v-2.996H41.51z"/><text font-family="Roboto-Regular, Roboto" font-size="20" fill="#575757" transform="translate(4 2)"><tspan x="86" y="40">HTTP@SYS is currently slow</tspan></text><text font-family="Roboto-Regular, Roboto" font-size="20" fill="#FB4343" transform="translate(4 2)"><tspan x="367" y="40">HELP</tspan></text><text font-family="Roboto-Regular, Roboto" font-size="20" fill="#FB4343" transform="translate(4 2)"><tspan x="294" y="131">HELP</tspan></text><text font-family="Roboto-Regular, Roboto" font-size="20" fill="#25DC32" transform="translate(4 2)"><tspan x="390" y="219">OK</tspan></text><text font-family="Roboto-Regular, Roboto" font-size="20" fill="#575757" transform="translate(4 2)"><tspan x="86" y="129">HTTP@SYS is down</tspan></text><text font-family="Roboto-Regular, Roboto" font-size="20" fill="#575757" transform="translate(4 2)"><tspan x="86" y="218">HTTP@SYS is back up</tspan></text><g><g transform="translate(29 199)"><use fill="#25DC32" xlink:href="#c"/><use stroke-opacity=".75" stroke="#25DC32" mask="url(#l)" stroke-width="6" xlink:href="#c"/><use stroke="#FFF" stroke-width="2" xlink:href="#c"/></g><path fill="#FFF" d="M41.93 217.178l-4.178-4.225-1.76 1.778 5.938 6.005 10.335-10.452-1.759-1.78z"/></g></g></svg>