<svg version="1" xmlns="http://www.w3.org/2000/svg" width="682.667" height="682.667" viewBox="0 0 512.000000 512.000000"><path d="M0 74.9c0 1.9 5 14.4 8.2 20.6 8.1 15.7 23.5 34.3 38.1 46.1 3.9 3.3 7.4 6.1 7.7 6.5.3.3 4.4 3.1 9.2 6.2 11.4 7.6 28.6 16.4 42.4 21.7l11.2 4.3-3.7 6.1c-3.1 5.2-7.4 13.7-11.2 22.1-1.8 4.1-7 20.9-8 25.9-1.9 9.9-2.1 11.1-2.9 16.6-.9 5.9-.6 36.9.4 43.5 9 57 42.7 102.8 93.8 127.3 29.5 14.2 62.3 19.2 95.8 14.7 10-1.4 24.7-5.1 32.5-8.2 2.2-.8 4.9-1.9 6-2.2 1.1-.4 6.1-2.7 11-5.1 43.3-21 75.7-60.7 88-107.5 4.2-16.1 5.4-27.1 5-46-.3-9.4-.6-18.1-.9-19.5-.6-3.3-1.5-7.9-2.1-11-.3-1.4-.8-3.8-1-5.3-2-10.6-14.4-40.2-20.6-48.8-1.2-1.7-2-3.1-1.8-3.3.2-.1 4.9-1.9 10.4-4.1 49.5-19.2 87.2-53.7 102.1-93.3 2.9-7.5 3-8.7.7-7.7C502 78 467 90.6 463 91.5c-.8.2-7 1.9-13.7 3.9-22 6.3-52.6 12.5-74.3 15-2.5.3-7.4.9-11 1.3-3.6.4-17.1.7-30 .7-22.5.1-24-.1-34.2-2.7-15.8-4.1-28.1-5.5-46.3-5.2-8.8.2-17.1.6-18.5.9-1.3.3-4.2.8-6.5 1.1-2.2.4-7.6 1.5-12 2.6-4.4 1.2-10.2 2.4-13 2.7-10.9 1.4-56.1.5-65.6-1.3-1.2-.3-4.5-.7-7.3-1-7.2-.7-12.6-1.5-25.1-3.9-31.4-5.9-72-18.1-103.7-31.1-1.1-.4-1.8-.3-1.8.4zm269.5 95.5c12.9 1.5 26.6 6.2 38.8 13.2 8.7 5.1 10.4 6.3 19.5 14.9 37.1 34.9 41.9 93.1 11.1 134.6-27.8 37.5-78.1 51.3-121.2 33.3-21.9-9.1-41.6-27.5-52.6-49.1-3.2-6.3-7.8-21.1-9.1-29.2-1.2-7.4-1.5-25.5-.5-30.1.3-1.4.8-4.1 1.1-6 1-6.1 6.4-21.3 10-28 15.1-28.7 46.8-50.4 78-53.5 3.8-.4 7-.8 7.1-.9.4-.3 12.5.2 17.8.8z"/></svg>