<svg width="1440" height="155" viewBox="0 0 1440 155" xmlns="http://www.w3.org/2000/svg" xmlns:xlink="http://www.w3.org/1999/xlink"><title>Group</title><defs><linearGradient x1="100%" y1="100%" x2="0%" y2="0%" id="c"><stop stop-color="#6CF388" offset="0%"/><stop stop-color="#3FD99F" offset="100%"/></linearGradient><path d="M0 109.125C171.653 109.125 270.324 19 478.633 19c208.31 0 291.95 112.784 481.014 112.784 189.064 0 314.511-65.274 483.927-65.274" id="b"/><filter x="-50%" y="-50%" width="200%" height="200%" filterUnits="objectBoundingBox" id="a"><feMorphology radius="3.5" operator="dilate" in="SourceAlpha" result="shadowSpreadOuter1"/><feOffset dy="3" in="shadowSpreadOuter1" result="shadowOffsetOuter1"/><feMorphology radius="3.5" in="SourceAlpha" result="shadowInner"/><feOffset dy="3" in="shadowInner" result="shadowInner"/><feComposite in="shadowOffsetOuter1" in2="shadowInner" operator="out" result="shadowOffsetOuter1"/><feGaussianBlur stdDeviation="2" in="shadowOffsetOuter1" result="shadowBlurOuter1"/><feColorMatrix values="0 0 0 0 0 0 0 0 0 0 0 0 0 0 0 0 0 0 0.1 0" in="shadowBlurOuter1"/></filter></defs><g fill="none" fill-rule="evenodd"><path d="M1440 129.711C1233.355 129.711 1169.676 3.5 961.367 3.5c-208.31 0-291.95 147.784-481.014 147.784C291.289 151.284 169.416 45.973 0 45.973" stroke="#F6F6F6" stroke-width="7"/><path d="M1440 95.979C1268.347 95.979 1169.676 42 961.367 42c-208.31 0-291.95 82.784-481.014 82.784C291.289 124.784 169.416 95.98 0 95.98" stroke="#F6F6F6" stroke-width="7"/><g transform="translate(0 3)"><use fill="#000" filter="url(#a)" xlink:href="#b"/><use stroke="url(#c)" stroke-width="7" xlink:href="#b"/></g></g></svg>