<svg width="1440" height="155" viewBox="0 0 1440 155" xmlns="http://www.w3.org/2000/svg"><title>Group</title><defs><linearGradient x1="100%" y1="100%" x2="0%" y2="0%" id="a"><stop stop-color="#6CF388" offset="0%"/><stop stop-color="#3FD99F" offset="100%"/></linearGradient></defs><g stroke-width="7" fill="none" fill-rule="evenodd"><path d="M1440 129.711C1233.355 129.711 1169.676 3.5 961.367 3.5c-208.31 0-291.95 147.784-481.014 147.784C291.289 151.284 169.416 45.973 0 45.973" stroke="#F6F6F6"/><path d="M1440 95.979C1268.347 95.979 1169.676 42 961.367 42c-208.31 0-291.95 82.784-481.014 82.784C291.289 124.784 169.416 95.98 0 95.98" stroke="#F6F6F6"/><path d="M0 109.125C171.653 109.125 270.324 19 478.633 19c208.31 0 291.95 112.784 481.014 112.784 189.064 0 314.511-65.274 483.927-65.274" stroke="url(#a)" transform="translate(0 3)"/></g></svg>