<?xml version="1.0" encoding="UTF-8" standalone="no"?>
<svg width="1440px" height="155px" viewBox="0 0 1440 155" version="1.1" xmlns="http://www.w3.org/2000/svg" xmlns:xlink="http://www.w3.org/1999/xlink">
    <!-- Generator: Sketch 40.1 (33804) - http://www.bohemiancoding.com/sketch -->
    <title>Group</title>
    <desc>Created with Sketch.</desc>
    <defs>
        <linearGradient x1="100%" y1="100%" x2="0%" y2="0%" id="linearGradient-1">
            <stop stop-color="#6CF388" offset="0%"></stop>
            <stop stop-color="#3FD99F" offset="100%"></stop>
        </linearGradient>
    </defs>
    <g id="Page-1" stroke="none" stroke-width="1" fill="none" fill-rule="evenodd">
        <g id="Monitaure_desktop" transform="translate(0.000000, -3825.000000)" stroke-width="7">
            <g id="Group" transform="translate(0.000000, 3828.000000)">
                <path d="M0,126.711243 C206.644775,126.711243 270.324012,0.5 478.633307,0.5 C686.942603,0.5 770.58312,148.284474 959.647305,148.284475 C1148.71149,148.284476 1270.58437,42.9728394 1440,42.9728432" id="Path-2" stroke="#F6F6F6" transform="translate(720.000000, 74.392238) scale(-1, 1) translate(-720.000000, -74.392238) "></path>
                <path d="M0,92.978981 C171.653118,92.978981 270.324012,39 478.633307,39 C686.942603,39 770.58312,121.784474 959.647305,121.784475 C1148.71149,121.784476 1270.58437,92.9789789 1440,92.978981" id="Path-2" stroke="#F6F6F6" transform="translate(720.000000, 80.392238) scale(-1, 1) translate(-720.000000, -80.392238) "></path>
                <path d="M0,109.125378 C171.653118,109.125378 270.324012,19 478.633307,19 C686.942603,19 770.58312,131.784474 959.647305,131.784475 C1148.71149,131.784476 1274.15837,66.5099104 1443.574,66.5099134" id="Path-2" stroke="url(#linearGradient-1)"></path>
            </g>
        </g>
    </g>
</svg>