<svg xmlns="http://www.w3.org/2000/svg" viewBox="0 0 48 48"><g fill="#C5C5C5"><path d="M24.3 7.4c-9.2 0-16.7 7.5-16.7 16.7s7.5 16.7 16.7 16.7S41 33.3 41 24.1 33.6 7.4 24.3 7.4zm0 26.7c-5.5 0-9.9-4.5-9.9-9.9s4.5-9.9 9.9-9.9c5.5 0 9.9 4.5 9.9 9.9s-4.4 9.9-9.9 9.9z"/><path d="M29.1 12h-8.8c-.6 0-1.1-.5-1.1-1.1v-7c0-.6.5-1.1 1.1-1.1h8.8c.6 0 1.1.5 1.1 1.1v6.9c0 .7-.5 1.2-1.1 1.2zm-12.7 2.2L12 21.8c-.3.5-1 .7-1.6.4l-6-3.5c-.5-.3-.7-1-.4-1.6l4.4-7.6c.3-.5 1-.7 1.6-.4l6 3.5c.6.3.8 1 .4 1.6zm-4.4 12l4.4 7.6c.3.5.1 1.2-.4 1.6l-6 3.5c-.5.3-1.2.1-1.6-.4L4 30.9c-.3-.5-.1-1.2.4-1.6l6-3.5c.6-.3 1.3-.1 1.6.4zm8.3 9.8h8.8c.6 0 1.1.5 1.1 1.1V44c0 .6-.5 1.1-1.1 1.1h-8.8c-.6 0-1.1-.5-1.1-1.1v-6.9c-.1-.6.4-1.1 1.1-1.1zm12.6-2.2l4.4-7.6c.3-.5 1-.7 1.6-.4l6 3.5c.5.3.7 1 .4 1.6l-4.4 7.6c-.3.5-1 .7-1.6.4l-6-3.5c-.5-.3-.7-1-.4-1.6zm4.4-12l-4.4-7.6c-.3-.5-.1-1.2.4-1.6l6-3.5c.5-.3 1.2-.1 1.6.4l4.4 7.6c.3.5.1 1.2-.4 1.6l-6 3.5c-.6.3-1.3.1-1.6-.4z"/></g></svg>