<svg width="35" height="29" viewBox="0 0 35 29" xmlns="http://www.w3.org/2000/svg"><title>Fill 1</title><path d="M35 3.43c-1.283.58-2.671.982-4.123 1.158a7.354 7.354 0 0 0 3.16-4.055 14.11 14.11 0 0 1-4.57 1.776A7.103 7.103 0 0 0 24.232 0c-3.962 0-7.177 3.28-7.177 7.321 0 .577.065 1.132.183 1.668-5.972-.307-11.257-3.216-14.803-7.65a7.38 7.38 0 0 0-.974 3.684 7.35 7.35 0 0 0 3.194 6.088 6.963 6.963 0 0 1-3.245-.914v.089c0 3.55 2.477 6.512 5.755 7.19a7.263 7.263 0 0 1-3.245.12c.918 2.909 3.565 5.02 6.707 5.087a14.25 14.25 0 0 1-8.92 3.126c-.576 0-1.142-.033-1.708-.097A20.03 20.03 0 0 0 11.01 29c13.2 0 20.422-11.156 20.422-20.828l-.022-.948A14.626 14.626 0 0 0 35 3.43" fill="#979797" fill-rule="evenodd"/></svg>