<svg width="29" height="29" viewBox="0 0 29 29" xmlns="http://www.w3.org/2000/svg"><title>Page 1</title><path d="M26.697 14.33a18.124 18.124 0 0 0-.473-.085c-.187-.03-.417-.07-.689-.113-.27-.044-.572-.085-.906-.122a31.244 31.244 0 0 0-3.578-.208c-.44 0-.903.013-1.387.038s-.953.069-1.407.132a2.35 2.35 0 0 1-.141-.312 7.077 7.077 0 0 1-.122-.33 119.32 119.32 0 0 0-.832-1.794 19.432 19.432 0 0 0 2.484-1.218c.786-.459 1.415-.869 1.887-1.227.472-.359.919-.74 1.341-1.142.422-.403.695-.684.822-.84.125-.158.245-.312.358-.463l.02-.019c1.837 2.241 2.775 4.82 2.812 7.741l-.189-.038zm-1.774 6.863a12.4 12.4 0 0 1-3.493 3.578c-.517-2.895-1.322-5.846-2.417-8.855 2.504-.39 5.078-.208 7.722.548a12.222 12.222 0 0 1-1.812 4.73zm-10.422 5.692c-2.946 0-5.576-.944-7.893-2.831l.283.207c.441-.97 1.089-1.9 1.945-2.794.857-.893 1.68-1.614 2.474-2.162a24.171 24.171 0 0 1 2.586-1.548c.932-.485 1.566-.793 1.907-.925.34-.133.611-.237.812-.312l.038-.019h.037c1.233 3.235 2.115 6.37 2.643 9.403-1.56.654-3.171.981-4.832.981zm-11.556-7.92a12.16 12.16 0 0 1-.83-4.464c0-.177.007-.31.019-.398 4.557 0 8.792-.585 12.706-1.756.403.781.737 1.48 1.002 2.097a1.599 1.599 0 0 1-.246.085c-.114.03-.196.053-.247.065l-.698.246c-.478.176-1.104.477-1.878.906a31.67 31.67 0 0 0-2.465 1.529c-.868.592-1.765 1.376-2.69 2.351a15.795 15.795 0 0 0-2.331 3.144 12.386 12.386 0 0 1-2.342-3.804zm1.852-12.15a12.205 12.205 0 0 1 4.417-3.51c1.56 2.076 3.096 4.455 4.607 7.136-3.827 1.007-7.64 1.51-11.441 1.51a12.234 12.234 0 0 1 2.417-5.136zm9.704-4.7c3.12 0 5.846 1.032 8.174 3.096l-.236.33c-.095.132-.33.387-.708.765-.377.377-.79.737-1.237 1.076-.447.34-1.053.727-1.821 1.161a17.47 17.47 0 0 1-2.455 1.143c-1.447-2.67-2.995-5.073-4.645-7.213a12.45 12.45 0 0 1 2.928-.358zM27.056 7.22a14.437 14.437 0 0 0-5.277-5.276C19.558.65 17.132 0 14.5 0c-2.63 0-5.056.649-7.277 1.945a14.427 14.427 0 0 0-5.278 5.276C.648 9.444 0 11.87 0 14.501c0 2.63.648 5.055 1.945 7.278a14.432 14.432 0 0 0 5.277 5.276C9.444 28.35 11.87 29 14.5 29s5.057-.649 7.278-1.945a14.435 14.435 0 0 0 5.277-5.276C28.352 19.556 29 17.13 29 14.5c0-2.631-.648-5.058-1.944-7.28z" fill="#979797" fill-rule="evenodd"/></svg>