<svg width="29" height="29" viewBox="0 0 29 29" xmlns="http://www.w3.org/2000/svg"><title>Fill 1</title><path d="M25.834 20.131c-.367-.639-.83-1.53-1.039-2.29-.3-1.103-1.023-.037-1.083.683-.06.722-.542 1.262-1.504.182-.965-1.083-1.145-.842-1.447-.842-.3 0-.842.722-.721 4.085.084 2.402 1.035 2.782 1.656 2.956a12.357 12.357 0 0 1-3.964 1.79c-5.678 1.438-11.476-1.174-14.185-6.362C1.025 15.5 2.254 10.028 4.819 7.016c.068.542.136 1.03.192 1.518.154 1.333.039 2.648-.235 3.96-.058.28-.037.598.037.872.043.15.268.328.426.341.123.013.338-.182.387-.329.09-.262.094-.556.122-.837.02-.2.021-.4.034-.711.204.165.352.264.476.389.316.316.633.63.92.97.128.15.258.362.255.543-.01.389.162.653.372.959.231.338.335.766.485 1.158.062.166.076.35.15.509.159.34.398.572.811.596.436.028.598.197.66.641-.111.012-.222.026-.332.037-.53.049-.793.294-.772.827.042 1.06.425 1.983 1.212 2.719.217.204.448.392.66.6.48.475.648 1.033.417 1.688-.11.313-.263.62-.312.943-.05.329-.05.684.026 1.007.08.334.045 1.064.39 1.005.614-.108.965.014 1.013-.671.009-.13 0-.146-.035-.267-.182-.641.644-2.464 1.14-2.797.424-.283.848-.574 1.232-.908.554-.479.803-1.1.57-1.821-.219-.68.037-1.18.513-1.618.485-.445.804-.959.771-1.645-.033-.687-.483-1.183-1.07-1.112-.287.035-.562.172-.842.265-.41.138-.81.331-1.23.407-.59.104-.954-.28-1.217-.746-.211-.375-.28-.405-.649-.171-.308.197-.619.398-.94.575-.333.187-.515.118-.77-.16-.154-.163-.364-.28-.56-.397-.141-.086-.33-.11-.443-.218-.151-.145-.361-.361-.34-.52.024-.185.24-.417.429-.494.322-.13.691-.152 1.037-.227.185-.039.374-.081.549-.15.237-.095.228-.252.045-.4a1.296 1.296 0 0 0-.31-.167c-.53-.213-1.062-.415-1.591-.628a2.138 2.138 0 0 1-.38-.195c-.331-.218-.372-.458-.07-.724 1.19-1.048 2.582-1.354 3.815.037.381.431.64.97 1 1.423.284.357.61.691.972.967.149.113.482.132.65.04.246-.133.255-.442.13-.7a3.636 3.636 0 0 0-.386-.637c-.7-.9-.651-2.655.72-3.387.458-.245.922-.502 1.14-1.16-.262.07-.453.116-.64.174-1.04.32-.316-.454.163-.59.29-.082-.261-.304-.261-.304.014-.023.366-.123.76-.29.27-.115.546-.243.77-.426.145-.12.202-.347.297-.526-.025-.027-.048-.055-.072-.083-.276.037-.55.077-.826.11-.468.05-.577-.041-.62-.511-.03-.32-.359-.497-.666-.331-.206.111-.386.275-.585.403-.461.297-.805.177-.987-.334-.107-.307-.257-.365-.537-.192-.143.084-.261.211-.405.29a4.866 4.866 0 0 1-.73.354c-.247.088-.545.151-.712-.12-.182-.29-.023-.573.204-.757.282-.227.609-.4.928-.58.454-.254.935-.467 1.372-.745.322-.204.462-.538.359-.93-.088-.333-.311-.446-.62-.293-.254.125-.478.322-.739.425-.192.073-.43.073-.635.038-.076-.014-.157-.224-.159-.345-.001-.07.142-.192.232-.207.633-.1 1.27-.182 1.907-.254a.347.347 0 0 1 .262.11c.42.529 1.007.786 1.625.969.519.155.593.081.665-.461.665-.157 1.342-.465 2.012-.044a6.25 6.25 0 0 1 1.027.84c.078.077.03.312-.007.465-.05.206-.164.396-.217.6-.1.4.157.71.568.705.13-.004.261-.03.391-.037.382-.018.516.128.48.51-.047.544.043.609.593.517.157-.026.34.045.501.1.095.036.171.127.256.191.511.387.901.241 1.051-.391.016-.069.014-.142.028-.21.06-.284.22-.358.413-.156.406.43.787.882 1.2 1.35-.443.406-.459.9-.36 1.381.109.537-.034 1.005-.246 1.477-.202.454-.426.905-.562 1.38-.203.71.026 1.036.751 1.193.692.151.805.29.831.964.035.92.508 1.554 1.318 1.96.18.088.37.157.554.233-.092 1.418-.498 2.895-1.191 4.294m3.06-7.42c-.267-2.433-1.166-4.658-2.617-6.64-2.34-3.19-5.468-5.14-9.375-5.82-.78-.135-1.576-.17-2.364-.251h-.157c-.736.081-1.477.134-2.209.246C4.662 1.396-.77 8.491.09 16.041c.41 3.604 1.923 6.677 4.608 9.128 3.195 2.915 6.987 4.164 11.287 3.756 3.3-.313 6.181-1.642 8.555-3.96 3.449-3.366 4.88-7.484 4.355-12.254" fill="#979797" fill-rule="evenodd"/></svg>