<svg width="29" height="28" viewBox="0 0 29 28" xmlns="http://www.w3.org/2000/svg"><title>Fill 1</title><path d="M26.818 7.123a14.28 14.28 0 0 0-5.23-5.204C19.384.639 16.98 0 14.372 0 11.765 0 9.36.64 7.157 1.919a14.277 14.277 0 0 0-5.23 5.204C.643 9.315 0 11.707 0 14.303c0 3.116.914 5.918 2.741 8.407 1.828 2.489 4.19 4.212 7.084 5.167.337.063.587.02.748-.13a.727.727 0 0 0 .244-.558l-.01-1.006c-.006-.633-.01-1.185-.01-1.657l-.43.074c-.274.05-.62.072-1.038.065a7.889 7.889 0 0 1-1.3-.13 2.904 2.904 0 0 1-1.254-.558 2.358 2.358 0 0 1-.824-1.146l-.187-.428a4.644 4.644 0 0 0-.59-.95c-.268-.347-.54-.584-.813-.708l-.132-.092a1.395 1.395 0 0 1-.243-.224.987.987 0 0 1-.168-.26c-.037-.088-.007-.159.093-.215.1-.057.282-.083.543-.083l.374.055c.25.05.56.199.927.447.368.249.67.571.907.968.287.51.633.897 1.039 1.164.406.267.814.4 1.226.4.411 0 .767-.031 1.067-.092.299-.063.58-.156.842-.28.112-.832.418-1.472.916-1.918a12.819 12.819 0 0 1-1.918-.336 7.586 7.586 0 0 1-1.759-.727 5.036 5.036 0 0 1-1.507-1.246c-.398-.497-.727-1.15-.981-1.956-.256-.808-.384-1.739-.384-2.793 0-1.502.492-2.781 1.478-3.837-.462-1.13-.418-2.395.132-3.798.36-.113.898-.028 1.61.25.71.28 1.23.52 1.561.717.331.199.596.368.796.504a13.36 13.36 0 0 1 3.593-.484c1.235 0 2.433.161 3.594.484l.711-.448a10.08 10.08 0 0 1 1.722-.819c.66-.248 1.166-.316 1.516-.204.56 1.403.611 2.668.15 3.799.985 1.055 1.477 2.334 1.477 3.836 0 1.054-.127 1.989-.383 2.802-.256.814-.586 1.466-.992 1.956s-.91.903-1.516 1.238a7.64 7.64 0 0 1-1.759.726c-.567.15-1.206.261-1.918.336.649.559.973 1.44.973 2.644v3.93c0 .223.078.41.234.558.156.148.402.193.74.13 2.894-.956 5.255-2.678 7.082-5.168 1.829-2.49 2.742-5.292 2.742-8.408 0-2.594-.643-4.986-1.928-7.178" fill="#979797" fill-rule="evenodd"/></svg>