<?xml version="1.0" encoding="UTF-8" standalone="no"?>
<svg width="153px" height="233px" viewBox="0 0 153 233" version="1.1" xmlns="http://www.w3.org/2000/svg" xmlns:xlink="http://www.w3.org/1999/xlink">
    <!-- Generator: Sketch 40.1 (33804) - http://www.bohemiancoding.com/sketch -->
    <title>Group 28</title>
    <desc>Created with Sketch.</desc>
    <defs></defs>
    <g id="Page-1" stroke="none" stroke-width="1" fill="none" fill-rule="evenodd">
        <g id="Monitaure_desktop_tour" transform="translate(-1043.000000, -1004.000000)">
            <g id="Group-28" transform="translate(1043.000000, 1004.000000)">
                <path d="M102.3143,30.5654748 C97.7252192,29.1259437 92.8435611,28.3485047 87.7822101,28.3485047 L87.7822101,28.3485047 C82.8844257,28.3485047 78.1571192,29.0821119 73.6970484,30.4339792 L73.6970484,30.4339792 C70.5478145,30.8999812 47.4365385,33.6452408 13,19.5452185 L13,19.5452185 C13,19.5452185 17.0108385,40.1715764 47.0633301,50.4766811 L47.0633301,50.4766811 C42.096433,58.1080414 39.2006123,67.2112299 39.2006123,76.9972729 L39.2006123,76.9972729 C39.2006123,103.866213 60.9526725,125.648348 87.7822101,125.648348 L87.7822101,125.648348 C114.614051,125.648348 136.363808,103.866213 136.363808,76.9972729 L136.363808,76.9972729 C136.363808,67.1420217 133.428823,57.9765457 128.399725,50.3128883 L128.399725,50.3128883 C158.023718,39.954724 162,19.5452185 162,19.5452185 L162,19.5452185 C130.081466,32.6140383 107.8963,31.2114183 102.3143,30.5654748 M57.9531827,77.2625711 C57.9531827,60.7656372 71.3080539,47.3923012 87.7822101,47.3923012 L87.7822101,47.3923012 C104.256366,47.3923012 117.613541,60.7656372 117.613541,77.2625711 L117.613541,77.2625711 C117.613541,93.7595049 104.256366,107.135148 87.7822101,107.135148 L87.7822101,107.135148 C71.3080539,107.135148 57.9531827,93.7595049 57.9531827,77.2625711" id="Fill-13" fill="#35C891" transform="translate(87.500000, 72.596783) rotate(-17.000000) translate(-87.500000, -72.596783) "></path>
                <path d="M90,146.5 L90,230.5" id="Line" stroke="#35C891" stroke-width="4" stroke-linecap="round"></path>
                <path d="M58,133.5 L58,190" id="Line-Copy-4" stroke="#E0E0E0" stroke-width="4" stroke-linecap="round"></path>
                <path d="M151,84.5 L151,141" id="Line-Copy-5" stroke="#E0E0E0" stroke-width="4" stroke-linecap="round"></path>
                <path d="M120,128.5 L120,187" id="Line-Copy" stroke="#35C891" stroke-width="4" stroke-linecap="round"></path>
                <path d="M28,87.5 L28,137" id="Line-Copy-2" stroke="#35C891" stroke-width="4" stroke-linecap="round"></path>
                <path d="M28,157.5 L28,175" id="Line-Copy-3" stroke="#35C891" stroke-width="4" stroke-linecap="round"></path>
            </g>
        </g>
    </g>
</svg>