<?xml version="1.0" encoding="utf-8"?>
<!-- Generator: Adobe Illustrator 18.1.1, SVG Export Plug-In . SVG Version: 6.00 Build 0)  -->
<svg version="1.1" xmlns="http://www.w3.org/2000/svg" xmlns:xlink="http://www.w3.org/1999/xlink" x="0px" y="0px"
	 viewBox="0 0 1920 1080" enable-background="new 0 0 1920 1080" xml:space="preserve">
<g id="Calque_3">
	<rect fill="#212121" width="1920" height="1080"/>
</g>
<g id="Photo">
</g>
<g id="Calque_9" display="none">
</g>
<g id="Calque_11">
	<path opacity="0.1" fill="#FFFFFF" d="M1693.5,765.1c86.9,0,166.3-32.5,226.5-86.1V169c-60.2-53.5-139.6-86.1-226.5-86.1
		c-188.4,0-341.1,152.7-341.1,341.1S1505.1,765.1,1693.5,765.1z"/>
	<circle opacity="0.2" fill="#FFFFFF" cx="1693.5" cy="424" r="159"/>
	<circle opacity="0.5" fill="#FFFFFF" cx="1693.5" cy="424" r="81.2"/>
	<circle fill="#FFFFFF" cx="1693.5" cy="424" r="43.5"/>
	<path opacity="2.000000e-02" fill="#FFFFFF" d="M1433.9,0c-142.5,87.4-237.5,244.6-237.5,424c0,274.5,222.6,497.1,497.1,497.1
		c81.6,0,158.6-19.7,226.5-54.5V0H1433.9z"/>
</g>
<g id="Calque_5">
	<path opacity="0.8" fill="#68ED83" d="M0,1080h1920V423.6c-211.7,38.6-252.8,270.6-568.9,270.6c-293.1,0-379.6-230.9-731.5-230.9
		C327.2,463.3,76.4,616.9,0,668.9V1080z"/>
</g>
<g id="Rocher">
	<path fill="#37474F" d="M1767.1,576.1l-21,24l6-54.6l-12.1-30.9l-10,20.4v-27.9l-18.9,14.9c0,0,0.3,13.6-1,23.6
		c-1,8-19.6,54.1-27,72L1673,597h-20l-16,18.1V650c-24.4,0-54.7,0-66.4,0c-3.9,0-7.1,1.3-9.6,3.4c44.8,11.1,90.4,24.9,135.6,38.6
		c25.6-28,50.4-57.4,76.6-83L1767.1,576.1z"/>
</g>
<g id="Phare">
	<g>
		<path fill="#37474F" d="M1696,399.1V391h-5v8.1c-8,1-15,6.6-15,13.3v3.7h35v-3.7C1711,405.7,1705,400.1,1696,399.1z"/>
		<rect x="1676" y="414.3" fill="#FFFFFF" width="35.1" height="28"/>
		<polygon fill="#CFD8DC" points="1721,667.3 1666.3,667.3 1673.3,469.3 1714,469.3 		"/>
		<polygon fill="#78909C" points="1709,470 1716,668 1721,668 1714,470 		"/>
		<polygon fill="#ECEFF1" points="1678,470 1671,667.3 1666,667.5 1673,470 		"/>
		<polygon fill="#90A4AE" points="1704,470 1711,668 1716,668 1709,470 		"/>
		<polygon fill="#B0BEC5" points="1699,470 1706,668 1711,668 1704,470 		"/>
		<rect x="1666.3" y="465.3" fill="#37474F" width="54.7" height="8"/>
		<rect x="1706.1" y="556.7" fill="#37474F" width="2.8" height="26"/>
		<rect x="1668.3" y="455.9" fill="#37474F" width="2.4" height="10.5"/>
		<rect x="1716.6" y="455.9" fill="#37474F" width="2.4" height="10.5"/>
		<rect x="1670.8" y="434" fill="#37474F" width="5.5" height="8.3"/>
		<rect x="1690.9" y="434" fill="#37474F" width="5.5" height="8.3"/>
		<rect x="1676" y="413.3" fill="#37474F" width="1.4" height="28"/>
		<rect x="1692.9" y="413.3" fill="#37474F" width="1.4" height="28"/>
		<rect x="1704.5" y="414.3" fill="#E1F5FE" width="4" height="28"/>
		<rect x="1707.1" y="414.3" fill="#B3E5FC" width="3" height="28"/>
		<rect x="1672.3" y="437.3" fill="#37474F" width="42.7" height="29"/>
		<rect x="1680.2" y="443.4" fill="#90A4AE" width="27" height="18.7"/>
		<rect x="1710.5" y="443.4" fill="#78909C" width="4.5" height="18.7"/>
		<rect x="1672.3" y="443.4" fill="#B0BEC5" width="4.5" height="18.7"/>
		<rect x="1710.8" y="434" fill="#37474F" width="5.7" height="8.3"/>
		<rect x="1709.7" y="413.3" fill="#37474F" width="1.4" height="28"/>
		<polygon fill="#37474F" points="1720.5,653 1666.3,653 1666.8,646.7 1720.3,646.7 		"/>
	</g>
</g>
<g id="Rocher_2">
</g>
<g id="Calque_4">
	<path opacity="0.8" fill="#68ED83" d="M0,1080h1920V536.1c-170.6,0.6-233.6,265.5-410.4,265.5c-177,0-223-112-383.5-112
		c-160.5,0-200,121-372.5,121s-281-275.5-612.5-275.5C84.9,535.1,38.8,542,0,553.4V1080z"/>
	<path fill="#37474F" d="M1722.5,662l2.5-21h-4.2l5.3-32.8l-12,4.5V641h-4l-7.3,11l-21,6.1l-11.2,12.6l39.7,5.1
		C1714.3,671.2,1718.4,666.6,1722.5,662z"/>
</g>
<g id="Calque_8">
	<path opacity="0.8" fill="#68ED83" d="M0,1080h1920V745.9c-162.7-18.6-358.2-116.3-521.7-116.3c-180.7,0-376,130.7-483.3,130.7
		S599,636.7,425,636.7c-148.1,0-270.2,89.6-425,116.3V1080z"/>
</g>
<g id="Stars">
	<circle fill="#FFFFFF" cx="58" cy="90" r="5"/>
	<circle fill="#FFFFFF" cx="1229" cy="299" r="5"/>
	<circle fill="#FFFFFF" cx="836" cy="157" r="3"/>
	<circle fill="#FFFFFF" cx="1294" cy="162" r="3"/>
	<circle fill="#FFFFFF" cx="718" cy="433" r="3"/>
	<circle fill="#FFFFFF" cx="1577" cy="127" r="2"/>
	<circle fill="#FFFFFF" cx="1680" cy="237" r="3"/>
	<circle fill="#FFFFFF" cx="1840" cy="90" r="3"/>
	<circle fill="#FFFFFF" cx="1456" cy="51" r="5"/>
	<circle fill="#FFFFFF" cx="1763" cy="344" r="5"/>
	<circle fill="#FFFFFF" cx="1446" cy="530" r="3"/>
	<circle fill="#FFFFFF" cx="1016" cy="100" r="5"/>
	<circle fill="#FFFFFF" cx="581" cy="61" r="5"/>
	<circle fill="#FFFFFF" cx="514" cy="205" r="3"/>
	<circle fill="#FFFFFF" cx="911" cy="384" r="3"/>
	<circle fill="#FFFFFF" cx="305" cy="95" r="2"/>
	<circle fill="#FFFFFF" cx="53" cy="299" r="2"/>
	<circle fill="#FFFFFF" cx="1076" cy="559" r="2"/>
	<circle fill="#FFFFFF" cx="127" cy="162" r="3"/>
	<circle fill="#FFFFFF" cx="358" cy="436" r="2"/>
</g>
</svg>
