<?xml version="1.0" encoding="utf-8"?>
<!-- Generator: Adobe Illustrator 18.1.1, SVG Export Plug-In . SVG Version: 6.00 Build 0)  -->
<svg version="1.1" xmlns="http://www.w3.org/2000/svg" xmlns:xlink="http://www.w3.org/1999/xlink" x="0px" y="0px"
	 viewBox="0 0 461.7 68" enable-background="new 0 0 461.7 68" xml:space="preserve">
<g id="Calque_2">
</g>
<g id="Calque_1">
	<g>
		<g>
			<path fill="#FFFFFF" d="M173,10.3v34.6l-26-34.6h-1.5c-1.8,3-4.5,7.1-10.5,10.4v42.6h13V30.5l25.2,32.8H186v-53H173z"/>
		</g>
		<g>
			<path fill="#FFFFFF" d="M54.7,10.3h-7.4L33.5,39.6L19.7,10.3H4v53h12v-33l13.9,29H37l16-29v33h12V21C61,17.6,56.5,13.3,54.7,10.3
				z"/>
		</g>
		<path fill="#FFFFFF" d="M195.7,10.6h11.9v53.3h-11.9V10.6z"/>
		<path fill="#FFFFFF" d="M240.9,20.9v43H229v-43h-15.1V10.6H256v10.3H240.9z"/>
		<path fill="#FFFFFF" d="M325.4,50.1c2,2.5,4.7,3.7,8,3.7c3.4,0,6-1.2,8-3.7c2-2.5,2.9-5.8,2.9-10.1V10.6h11.9v29.8
			c0,7.7-2.1,13.7-6.4,17.8c-4.3,4.1-9.7,6.2-16.4,6.2c-6.7,0-12.1-2.1-16.4-6.3c-4.3-4.2-6.4-10.1-6.4-17.8V10.6h11.9V40
			C322.5,44.3,323.5,47.7,325.4,50.1z"/>
		<path fill="#FFFFFF" d="M409.4,28.3c0,8.5-3.4,14.1-10.1,16.5l13.5,19.1h-14.6l-11.8-17h-8.2v17h-11.9V10.6h20.2
			c8.3,0,14.2,1.4,17.7,4.2S409.4,22.1,409.4,28.3z M395.1,34.6c1.5-1.3,2.2-3.4,2.2-6.3c0-2.9-0.8-4.8-2.3-5.9
			c-1.5-1.1-4.2-1.6-8-1.6h-8.9v15.8h8.7C390.8,36.6,393.6,35.9,395.1,34.6z"/>
		<path fill="#FFFFFF" d="M457.6,10.6v10.6h-26.5v11h23.9v10.1h-23.9v11.1h27.4v10.5h-39.3V10.6H457.6z"/>
		<path fill="#FFFFFF" d="M286,10.3h-11.5l-23,53h13.7c2.7-1,12.1-9.1,26.7-10.4l4.5,10.4H309L286,10.3z M271.1,47.7l9.2-21.2
			l7.1,16.5C281,44,275.5,45.7,271.1,47.7z"/>
		<linearGradient id="SVGID_1_" gradientUnits="userSpaceOnUse" x1="56.8541" y1="34.3333" x2="143.3366" y2="34.3333">
			<stop  offset="0" style="stop-color:#25DC32"/>
			<stop  offset="1" style="stop-color:#6CF388"/>
		</linearGradient>
		<path fill="url(#SVGID_1_)" d="M143.3,3.6c-18.5,7.6-31.4,6.8-34.6,6.4c-2.7-0.8-5.5-1.3-8.4-1.3c-2.8,0-5.6,0.4-8.2,1.2
			c-1.8,0.3-15.2,1.9-35.2-6.3c0,0,2.3,12,19.8,17.9c-2.9,4.4-4.6,9.7-4.6,15.4c0,15.6,12.6,28.2,28.2,28.2s28.2-12.6,28.2-28.2
			c0-5.7-1.7-11-4.6-15.5C141,15.4,143.3,3.6,143.3,3.6z M100.3,54.4c-9.6,0-17.3-7.8-17.3-17.3c0-9.6,7.8-17.3,17.3-17.3
			s17.3,7.8,17.3,17.3C117.6,46.6,109.8,54.4,100.3,54.4z"/>
	</g>
</g>
<g id="Calque_3">
</g>
</svg>
