<?xml version="1.0" standalone="no"?>
<!DOCTYPE svg PUBLIC "-//W3C//DTD SVG 20010904//EN"
 "http://www.w3.org/TR/2001/REC-SVG-20010904/DTD/svg10.dtd">
<svg version="1.0" xmlns="http://www.w3.org/2000/svg"
 width="512.000000pt" height="512.000000pt" viewBox="0 0 512.000000 512.000000"
 preserveAspectRatio="xMidYMid meet">
<metadata>
Created by potrace 1.11, written by Peter Selinger 2001-2013
</metadata>
<g transform="translate(0.000000,512.000000) scale(0.100000,-0.100000)"
fill="#000000" stroke="none">
<path d="M0 4371 c0 -19 50 -144 82 -206 81 -157 235 -343 381 -461 39 -33 74
-61 77 -65 3 -3 44 -31 92 -62 114 -76 286 -164 424 -217 l112 -43 -37 -61
c-31 -52 -74 -137 -112 -221 -18 -41 -70 -209 -80 -259 -19 -99 -21 -111 -29
-166 -9 -59 -6 -369 4 -435 90 -570 427 -1028 938 -1273 295 -142 623 -192
958 -147 100 14 247 51 325 82 22 8 49 19 60 22 11 4 61 27 110 51 433 210
757 607 880 1075 42 161 54 271 50 460 -3 94 -6 181 -9 195 -6 33 -15 79 -21
110 -3 14 -8 38 -10 53 -20 106 -144 402 -206 488 -12 17 -20 31 -18 33 2 1
49 19 104 41 495 192 872 537 1021 933 29 75 30 87 7 77 -83 -35 -433 -161
-473 -170 -8 -2 -70 -19 -137 -39 -220 -63 -526 -125 -743 -150 -25 -3 -74 -9
-110 -13 -36 -4 -171 -7 -300 -7 -225 -1 -240 1 -342 27 -158 41 -281 55 -463
52 -88 -2 -171 -6 -185 -9 -13 -3 -42 -8 -65 -11 -22 -4 -76 -15 -120 -26 -44
-12 -102 -24 -130 -27 -109 -14 -561 -5 -656 13 -12 3 -45 7 -73 10 -72 7
-126 15 -251 39 -314 59 -720 181 -1037 311 -11 4 -18 3 -18 -4z m2695 -955
c129 -15 266 -62 388 -132 87 -51 104 -63 195 -149 371 -349 419 -931 111
-1346 -278 -375 -781 -513 -1212 -333 -219 91 -416 275 -526 491 -32 63 -78
211 -91 292 -12 74 -15 255 -5 301 3 14 8 41 11 60 10 61 64 213 100 280 151
287 468 504 780 535 38 4 70 8 71 9 4 3 125 -2 178 -8z"/>
</g>
</svg>
