<?xml version="1.0" encoding="utf-8"?>
<!-- Generator: Adobe Illustrator 18.1.1, SVG Export Plug-In . SVG Version: 6.00 Build 0)  -->
<svg version="1.1" id="Calque_1" xmlns="http://www.w3.org/2000/svg" xmlns:xlink="http://www.w3.org/1999/xlink" x="0px" y="0px"
	 viewBox="0 0 48 48" enable-background="new 0 0 48 48" xml:space="preserve">
<g>
	<path fill="#C5C5C5" d="M24.3,7.4c-9.2,0-16.7,7.5-16.7,16.7s7.5,16.7,16.7,16.7s16.7-7.5,16.7-16.7S33.6,7.4,24.3,7.4z M24.3,34.1
		c-5.5,0-9.9-4.5-9.9-9.9s4.5-9.9,9.9-9.9c5.5,0,9.9,4.5,9.9,9.9S29.8,34.1,24.3,34.1z"/>
	<path fill="#C5C5C5" d="M29.1,12h-8.8c-0.6,0-1.1-0.5-1.1-1.1V3.9c0-0.6,0.5-1.1,1.1-1.1h8.8c0.6,0,1.1,0.5,1.1,1.1v6.9
		C30.2,11.5,29.7,12,29.1,12z"/>
	<path fill="#C5C5C5" d="M16.4,14.2L12,21.8c-0.3,0.5-1,0.7-1.6,0.4l-6-3.5c-0.5-0.3-0.7-1-0.4-1.6l4.4-7.6c0.3-0.5,1-0.7,1.6-0.4
		l6,3.5C16.6,12.9,16.8,13.6,16.4,14.2z"/>
	<path fill="#C5C5C5" d="M12,26.2l4.4,7.6c0.3,0.5,0.1,1.2-0.4,1.6l-6,3.5c-0.5,0.3-1.2,0.1-1.6-0.4l-4.4-7.6
		c-0.3-0.5-0.1-1.2,0.4-1.6l6-3.5C11,25.5,11.7,25.7,12,26.2z"/>
	<path fill="#C5C5C5" d="M20.3,36h8.8c0.6,0,1.1,0.5,1.1,1.1v6.9c0,0.6-0.5,1.1-1.1,1.1h-8.8c-0.6,0-1.1-0.5-1.1-1.1v-6.9
		C19.1,36.5,19.6,36,20.3,36z"/>
	<path fill="#C5C5C5" d="M32.9,33.8l4.4-7.6c0.3-0.5,1-0.7,1.6-0.4l6,3.5c0.5,0.3,0.7,1,0.4,1.6l-4.4,7.6c-0.3,0.5-1,0.7-1.6,0.4
		l-6-3.5C32.8,35.1,32.6,34.4,32.9,33.8z"/>
	<path fill="#C5C5C5" d="M37.3,21.8l-4.4-7.6c-0.3-0.5-0.1-1.2,0.4-1.6l6-3.5c0.5-0.3,1.2-0.1,1.6,0.4l4.4,7.6
		c0.3,0.5,0.1,1.2-0.4,1.6l-6,3.5C38.3,22.5,37.6,22.3,37.3,21.8z"/>
</g>
</svg>
