<svg width="100" height="107" viewBox="0 0 100 107" xmlns="http://www.w3.org/2000/svg" xmlns:xlink="http://www.w3.org/1999/xlink"><title>Page 1</title><defs><path id="a" d="M0 .136v57.54h100V.137H0z"/><path id="c" d="M0 106.865h100V0H0z"/></defs><g fill="none" fill-rule="evenodd"><g transform="translate(0 24.526)"><mask id="b" fill="#fff"><use xlink:href="#a"/></mask><path d="M6.743 2.124a4.753 4.753 0 0 0-4.751 4.744v44.076a4.753 4.753 0 0 0 4.75 4.744h86.515a4.752 4.752 0 0 0 4.75-4.744V6.868a4.753 4.753 0 0 0-4.75-4.744H6.743zm86.514 55.553H6.743C3.025 57.677 0 54.657 0 50.944V6.868C0 3.156 3.025.136 6.743.136h86.514c3.718 0 6.743 3.02 6.743 6.732v44.076c0 3.712-3.025 6.733-6.743 6.733z" fill="#40D89F" mask="url(#b)"/></g><mask id="d" fill="#fff"><use xlink:href="#c"/></mask><path fill="#40D89F" mask="url(#d)" d="M.996 42.044h98.008v-7.557H.996z"/><path d="M2.788 106.865a.993.993 0 0 1-.749-1.65L93.872.34a.996.996 0 0 1 1.5 1.31L3.538 106.524a.994.994 0 0 1-.75.34" fill="#40D89F" mask="url(#d)"/></g></svg>