<svg width="100" height="83" viewBox="0 0 100 83" xmlns="http://www.w3.org/2000/svg"><title>Page 1</title><g fill="none" fill-rule="evenodd"><path d="M5.717 1.838c-2.304 0-4.179 1.865-4.179 4.158v48.687c0 2.293 1.875 4.158 4.179 4.158h65.94c2.303 0 4.177-1.865 4.177-4.158V5.996c0-2.293-1.874-4.158-4.178-4.158H5.716zm65.94 58.535H5.716C2.564 60.373 0 57.82 0 54.683V5.996C0 2.86 2.564.306 5.717.306h65.94c3.152 0 5.716 2.553 5.716 5.69v48.687c0 3.137-2.564 5.69-5.717 5.69z" fill="#40D89F"/><path fill="#40D89F" d="M.77 10.704h75.692V9.173H.769zM5.719 4.991a.616.616 0 0 0-.616.614.616.616 0 0 0 1.232 0 .616.616 0 0 0-.616-.614m0 2.759a2.152 2.152 0 0 1-2.155-2.145c0-1.183.967-2.145 2.155-2.145 1.188 0 2.155.962 2.155 2.145A2.152 2.152 0 0 1 5.719 7.75M11.984 4.991a.616.616 0 0 0-.616.614.616.616 0 0 0 1.233 0 .616.616 0 0 0-.617-.614m0 2.759A2.152 2.152 0 0 1 9.83 5.605c0-1.183.966-2.145 2.154-2.145s2.155.962 2.155 2.145a2.152 2.152 0 0 1-2.155 2.145M18.49 4.991a.616.616 0 0 0-.616.614.616.616 0 0 0 1.233 0 .616.616 0 0 0-.616-.614m0 2.759a2.152 2.152 0 0 1-2.155-2.145c0-1.183.967-2.145 2.155-2.145 1.188 0 2.154.962 2.154 2.145a2.152 2.152 0 0 1-2.154 2.145"/><path d="M99.077 59.607c0 12.355-10.062 22.37-22.473 22.37-12.412 0-22.474-10.015-22.474-22.37 0-12.354 10.062-22.37 22.474-22.37 12.411 0 22.473 10.016 22.473 22.37" fill="#FFF"/><path d="M76.604 38.004c-11.968 0-21.704 9.69-21.704 21.603 0 11.913 9.736 21.604 21.704 21.604s21.704-9.691 21.704-21.604c0-11.912-9.736-21.603-21.704-21.603m0 44.738c-12.816 0-23.243-10.378-23.243-23.135 0-12.756 10.427-23.135 23.243-23.135 12.816 0 23.242 10.379 23.242 23.135 0 12.757-10.426 23.135-23.242 23.135" fill="#40D89F"/><path d="M72.922 67.67c-.204 0-.4-.132-.544-.276l-6.88-6.878a.78.78 0 0 1 0-1.096.771.771 0 0 1 1.088-.006l6.336 6.306L86.659 52a.77.77 0 0 1 1.087-.002c.301.299.302.783.002 1.083l-14.28 14.313c-.145.144-.34.277-.545.277z" fill="#40D89F"/></g></svg>